STARTFONT 2.1
FONT -HEAeogae-regular-R-regular--16-16-75-c-80-iso10646-1
SIZE 16 75 75
FONTBOUNDINGBOX 16 16 0 0
STARTPROPERTIES 10
FAMILY_NAME HEAeogae
WEIGHT_NAME regular
FONT_VERSION 1.0
COPYRIGHT Copyright © 2023 Taeyun An (WindowsTiger)
FOUNDRY PIXEL FONT MAKER
FONT_ASCENT 16
FONT_DESCENT 0
CAP_HEIGHT 16
FONT_SIZE 16
X_HEIGHT 11
ENDPROPERTIES
CHARS 16600
STARTCHAR U+0020
ENCODING 32
SWIDTH 500 0
DWIDTH 8 0
BBX 8 0 0 0
BITMAP

ENDCHAR
STARTCHAR U+0021
ENCODING 33
SWIDTH 500 0
DWIDTH 8 0
BBX 8 15 0 0
BITMAP
2000
2000
2000
2000
2000
2000
2000
0000
0000
2000
2000
0000
0000
0000
0000
ENDCHAR
STARTCHAR U+0022
ENCODING 34
SWIDTH 500 0
DWIDTH 8 0
BBX 8 15 0 0
BITMAP
5000
5000
5000
5000
0000
0000
0000
0000
0000
0000
0000
0000
0000
0000
0000
ENDCHAR
STARTCHAR U+0023
ENCODING 35
SWIDTH 500 0
DWIDTH 8 0
BBX 8 15 0 0
BITMAP
5000
5000
5000
F800
5000
5000
5000
F800
5000
5000
5000
0000
0000
0000
0000
ENDCHAR
STARTCHAR U+0024
ENCODING 36
SWIDTH 500 0
DWIDTH 8 0
BBX 8 15 0 0
BITMAP
2000
7800
A000
A000
A000
7000
2800
2800
2800
F000
2000
0000
0000
0000
0000
ENDCHAR
STARTCHAR U+0025
ENCODING 37
SWIDTH 500 0
DWIDTH 8 0
BBX 8 15 0 0
BITMAP
4000
A800
4800
1000
1000
2000
4000
4000
9000
A800
1000
0000
0000
0000
0000
ENDCHAR
STARTCHAR U+0026
ENCODING 38
SWIDTH 500 0
DWIDTH 8 0
BBX 8 15 0 0
BITMAP
4000
A000
A000
A000
A000
4000
A000
9800
9000
9000
6800
0000
0000
0000
0000
ENDCHAR
STARTCHAR U+0027
ENCODING 39
SWIDTH 500 0
DWIDTH 8 0
BBX 8 15 0 0
BITMAP
2000
2000
4000
4000
8000
0000
0000
0000
0000
0000
0000
0000
0000
0000
0000
ENDCHAR
STARTCHAR U+0028
ENCODING 40
SWIDTH 500 0
DWIDTH 8 0
BBX 8 15 0 0
BITMAP
1000
2000
4000
4000
4000
4000
4000
4000
4000
2000
1000
0000
0000
0000
0000
ENDCHAR
STARTCHAR U+0029
ENCODING 41
SWIDTH 500 0
DWIDTH 8 0
BBX 8 15 0 0
BITMAP
4000
2000
1000
1000
1000
1000
1000
1000
1000
2000
4000
0000
0000
0000
0000
ENDCHAR
STARTCHAR U+002a
ENCODING 42
SWIDTH 500 0
DWIDTH 8 0
BBX 8 14 0 0
BITMAP
2000
A800
A800
7000
2000
7000
A800
A800
2000
0000
0000
0000
0000
0000
ENDCHAR
STARTCHAR U+002b
ENCODING 43
SWIDTH 500 0
DWIDTH 8 0
BBX 8 14 0 0
BITMAP
2000
2000
2000
2000
F800
2000
2000
2000
2000
0000
0000
0000
0000
0000
ENDCHAR
STARTCHAR U+002c
ENCODING 44
SWIDTH 500 0
DWIDTH 8 0
BBX 8 8 0 0
BITMAP
2000
2000
2000
4000
0000
0000
0000
0000
ENDCHAR
STARTCHAR U+002d
ENCODING 45
SWIDTH 500 0
DWIDTH 8 0
BBX 8 10 0 0
BITMAP
F800
0000
0000
0000
0000
0000
0000
0000
0000
0000
ENDCHAR
STARTCHAR U+002e
ENCODING 46
SWIDTH 500 0
DWIDTH 8 0
BBX 8 6 0 0
BITMAP
6000
6000
0000
0000
0000
0000
ENDCHAR
STARTCHAR U+002f
ENCODING 47
SWIDTH 500 0
DWIDTH 8 0
BBX 8 14 0 0
BITMAP
0800
0800
1000
1000
2000
4000
4000
8000
8000
0000
0000
0000
0000
0000
ENDCHAR
STARTCHAR U+0030
ENCODING 48
SWIDTH 500 0
DWIDTH 8 0
BBX 8 15 0 0
BITMAP
7000
8800
9800
9800
A800
A800
A800
C800
C800
8800
7000
0000
0000
0000
0000
ENDCHAR
STARTCHAR U+0031
ENCODING 49
SWIDTH 500 0
DWIDTH 8 0
BBX 8 15 0 0
BITMAP
2000
6000
A000
2000
2000
2000
2000
2000
2000
2000
F800
0000
0000
0000
0000
ENDCHAR
STARTCHAR U+0032
ENCODING 50
SWIDTH 500 0
DWIDTH 8 0
BBX 8 15 0 0
BITMAP
7000
8800
8800
0800
1000
2000
4000
8000
8000
8000
F800
0000
0000
0000
0000
ENDCHAR
STARTCHAR U+0033
ENCODING 51
SWIDTH 500 0
DWIDTH 8 0
BBX 8 15 0 0
BITMAP
7000
8800
8800
0800
0800
3000
0800
0800
8800
8800
7000
0000
0000
0000
0000
ENDCHAR
STARTCHAR U+0034
ENCODING 52
SWIDTH 500 0
DWIDTH 8 0
BBX 8 15 0 0
BITMAP
1000
3000
3000
5000
5000
5000
9000
9000
F800
1000
1000
0000
0000
0000
0000
ENDCHAR
STARTCHAR U+0035
ENCODING 53
SWIDTH 500 0
DWIDTH 8 0
BBX 8 15 0 0
BITMAP
F800
8000
8000
8000
F000
0800
0800
0800
0800
8800
7000
0000
0000
0000
0000
ENDCHAR
STARTCHAR U+0036
ENCODING 54
SWIDTH 500 0
DWIDTH 8 0
BBX 8 15 0 0
BITMAP
7000
8800
8000
8000
8000
F000
8800
8800
8800
8800
7000
0000
0000
0000
0000
ENDCHAR
STARTCHAR U+0037
ENCODING 55
SWIDTH 500 0
DWIDTH 8 0
BBX 8 15 0 0
BITMAP
F800
8800
8800
1000
1000
2000
2000
2000
2000
2000
2000
0000
0000
0000
0000
ENDCHAR
STARTCHAR U+0038
ENCODING 56
SWIDTH 500 0
DWIDTH 8 0
BBX 8 15 0 0
BITMAP
7000
8800
8800
8800
8800
7000
8800
8800
8800
8800
7000
0000
0000
0000
0000
ENDCHAR
STARTCHAR U+0039
ENCODING 57
SWIDTH 500 0
DWIDTH 8 0
BBX 8 15 0 0
BITMAP
7000
8800
8800
8800
8800
7800
0800
0800
0800
8800
7000
0000
0000
0000
0000
ENDCHAR
STARTCHAR U+003a
ENCODING 58
SWIDTH 500 0
DWIDTH 8 0
BBX 8 13 0 0
BITMAP
4000
4000
0000
0000
0000
4000
4000
0000
0000
0000
0000
0000
0000
ENDCHAR
STARTCHAR U+003b
ENCODING 59
SWIDTH 500 0
DWIDTH 8 0
BBX 8 13 0 0
BITMAP
4000
4000
0000
0000
0000
4000
4000
4000
8000
0000
0000
0000
0000
ENDCHAR
STARTCHAR U+003c
ENCODING 60
SWIDTH 500 0
DWIDTH 8 0
BBX 8 14 0 0
BITMAP
0800
1000
2000
4000
8000
4000
2000
1000
0800
0000
0000
0000
0000
0000
ENDCHAR
STARTCHAR U+003d
ENCODING 61
SWIDTH 500 0
DWIDTH 8 0
BBX 8 11 0 0
BITMAP
F800
0000
F800
0000
0000
0000
0000
0000
0000
0000
0000
ENDCHAR
STARTCHAR U+003e
ENCODING 62
SWIDTH 500 0
DWIDTH 8 0
BBX 8 14 0 0
BITMAP
8000
4000
2000
1000
0800
1000
2000
4000
8000
0000
0000
0000
0000
0000
ENDCHAR
STARTCHAR U+003f
ENCODING 63
SWIDTH 500 0
DWIDTH 8 0
BBX 8 15 0 0
BITMAP
7000
8800
8800
0800
1000
2000
2000
2000
0000
2000
2000
0000
0000
0000
0000
ENDCHAR
STARTCHAR U+0040
ENCODING 64
SWIDTH 500 0
DWIDTH 8 0
BBX 8 15 0 0
BITMAP
7000
8800
8800
0800
6800
A800
A800
A800
A800
A800
7000
0000
0000
0000
0000
ENDCHAR
STARTCHAR U+0041
ENCODING 65
SWIDTH 500 0
DWIDTH 8 0
BBX 8 15 0 0
BITMAP
2000
5000
5000
8800
8800
8800
F800
8800
8800
8800
8800
0000
0000
0000
0000
ENDCHAR
STARTCHAR U+0042
ENCODING 66
SWIDTH 500 0
DWIDTH 8 0
BBX 8 15 0 0
BITMAP
F000
4800
4800
4800
4800
7000
4800
4800
4800
4800
F000
0000
0000
0000
0000
ENDCHAR
STARTCHAR U+0043
ENCODING 67
SWIDTH 500 0
DWIDTH 8 0
BBX 8 15 0 0
BITMAP
7000
8800
8800
8000
8000
8000
8000
8000
8800
8800
7000
0000
0000
0000
0000
ENDCHAR
STARTCHAR U+0044
ENCODING 68
SWIDTH 500 0
DWIDTH 8 0
BBX 8 15 0 0
BITMAP
F000
4800
4800
4800
4800
4800
4800
4800
4800
4800
F000
0000
0000
0000
0000
ENDCHAR
STARTCHAR U+0045
ENCODING 69
SWIDTH 500 0
DWIDTH 8 0
BBX 8 15 0 0
BITMAP
F800
8000
8000
8000
8000
F000
8000
8000
8000
8000
F800
0000
0000
0000
0000
ENDCHAR
STARTCHAR U+0046
ENCODING 70
SWIDTH 500 0
DWIDTH 8 0
BBX 8 15 0 0
BITMAP
F800
8000
8000
8000
8000
F000
8000
8000
8000
8000
8000
0000
0000
0000
0000
ENDCHAR
STARTCHAR U+0047
ENCODING 71
SWIDTH 500 0
DWIDTH 8 0
BBX 8 15 0 0
BITMAP
7000
8800
8800
8000
8000
8000
9800
8800
8800
8800
7800
0000
0000
0000
0000
ENDCHAR
STARTCHAR U+0048
ENCODING 72
SWIDTH 500 0
DWIDTH 8 0
BBX 8 15 0 0
BITMAP
8800
8800
8800
8800
8800
F800
8800
8800
8800
8800
8800
0000
0000
0000
0000
ENDCHAR
STARTCHAR U+0049
ENCODING 73
SWIDTH 500 0
DWIDTH 8 0
BBX 8 15 0 0
BITMAP
7000
2000
2000
2000
2000
2000
2000
2000
2000
2000
7000
0000
0000
0000
0000
ENDCHAR
STARTCHAR U+004a
ENCODING 74
SWIDTH 500 0
DWIDTH 8 0
BBX 8 15 0 0
BITMAP
3800
1000
1000
1000
1000
1000
1000
1000
1000
9000
6000
0000
0000
0000
0000
ENDCHAR
STARTCHAR U+004b
ENCODING 75
SWIDTH 500 0
DWIDTH 8 0
BBX 8 15 0 0
BITMAP
8800
9000
9000
A000
A000
C000
A000
A000
9000
9000
8800
0000
0000
0000
0000
ENDCHAR
STARTCHAR U+004c
ENCODING 76
SWIDTH 500 0
DWIDTH 8 0
BBX 8 15 0 0
BITMAP
8000
8000
8000
8000
8000
8000
8000
8000
8000
8000
F800
0000
0000
0000
0000
ENDCHAR
STARTCHAR U+004d
ENCODING 77
SWIDTH 500 0
DWIDTH 8 0
BBX 8 15 0 0
BITMAP
8800
D800
D800
A800
A800
A800
8800
8800
8800
8800
8800
0000
0000
0000
0000
ENDCHAR
STARTCHAR U+004e
ENCODING 78
SWIDTH 500 0
DWIDTH 8 0
BBX 8 15 0 0
BITMAP
8800
C800
C800
C800
A800
A800
A800
9800
9800
9800
8800
0000
0000
0000
0000
ENDCHAR
STARTCHAR U+004f
ENCODING 79
SWIDTH 500 0
DWIDTH 8 0
BBX 8 15 0 0
BITMAP
7000
8800
8800
8800
8800
8800
8800
8800
8800
8800
7000
0000
0000
0000
0000
ENDCHAR
STARTCHAR U+0050
ENCODING 80
SWIDTH 500 0
DWIDTH 8 0
BBX 8 15 0 0
BITMAP
F000
8800
8800
8800
8800
F000
8000
8000
8000
8000
8000
0000
0000
0000
0000
ENDCHAR
STARTCHAR U+0051
ENCODING 81
SWIDTH 500 0
DWIDTH 8 0
BBX 8 15 0 0
BITMAP
7000
8800
8800
8800
8800
8800
8800
8800
A800
9000
6800
0000
0000
0000
0000
ENDCHAR
STARTCHAR U+0052
ENCODING 82
SWIDTH 500 0
DWIDTH 8 0
BBX 8 15 0 0
BITMAP
F000
8800
8800
8800
8800
F000
A000
A000
9000
9000
8800
0000
0000
0000
0000
ENDCHAR
STARTCHAR U+0053
ENCODING 83
SWIDTH 500 0
DWIDTH 8 0
BBX 8 15 0 0
BITMAP
7000
8800
8800
8000
8000
7000
0800
0800
8800
8800
7000
0000
0000
0000
0000
ENDCHAR
STARTCHAR U+0054
ENCODING 84
SWIDTH 500 0
DWIDTH 8 0
BBX 8 15 0 0
BITMAP
F800
2000
2000
2000
2000
2000
2000
2000
2000
2000
2000
0000
0000
0000
0000
ENDCHAR
STARTCHAR U+0055
ENCODING 85
SWIDTH 500 0
DWIDTH 8 0
BBX 8 15 0 0
BITMAP
8800
8800
8800
8800
8800
8800
8800
8800
8800
8800
7000
0000
0000
0000
0000
ENDCHAR
STARTCHAR U+0056
ENCODING 86
SWIDTH 500 0
DWIDTH 8 0
BBX 8 15 0 0
BITMAP
8800
8800
8800
8800
8800
8800
5000
5000
5000
2000
2000
0000
0000
0000
0000
ENDCHAR
STARTCHAR U+0057
ENCODING 87
SWIDTH 500 0
DWIDTH 8 0
BBX 8 15 0 0
BITMAP
8800
8800
8800
8800
8800
A800
A800
A800
D800
D800
8800
0000
0000
0000
0000
ENDCHAR
STARTCHAR U+0058
ENCODING 88
SWIDTH 500 0
DWIDTH 8 0
BBX 8 15 0 0
BITMAP
8800
8800
8800
5000
5000
2000
5000
5000
8800
8800
8800
0000
0000
0000
0000
ENDCHAR
STARTCHAR U+0059
ENCODING 89
SWIDTH 500 0
DWIDTH 8 0
BBX 8 15 0 0
BITMAP
8800
8800
8800
5000
5000
2000
2000
2000
2000
2000
2000
0000
0000
0000
0000
ENDCHAR
STARTCHAR U+005a
ENCODING 90
SWIDTH 500 0
DWIDTH 8 0
BBX 8 15 0 0
BITMAP
F800
0800
1000
1000
2000
2000
2000
4000
4000
8000
F800
0000
0000
0000
0000
ENDCHAR
STARTCHAR U+005b
ENCODING 91
SWIDTH 500 0
DWIDTH 8 0
BBX 8 15 0 0
BITMAP
7000
4000
4000
4000
4000
4000
4000
4000
4000
4000
7000
0000
0000
0000
0000
ENDCHAR
STARTCHAR U+005c
ENCODING 92
SWIDTH 500 0
DWIDTH 8 0
BBX 8 14 0 0
BITMAP
8000
8000
4000
4000
2000
1000
1000
0800
0800
0000
0000
0000
0000
0000
ENDCHAR
STARTCHAR U+005d
ENCODING 93
SWIDTH 500 0
DWIDTH 8 0
BBX 8 15 0 0
BITMAP
7000
1000
1000
1000
1000
1000
1000
1000
1000
1000
7000
0000
0000
0000
0000
ENDCHAR
STARTCHAR U+005e
ENCODING 94
SWIDTH 500 0
DWIDTH 8 0
BBX 8 15 0 0
BITMAP
2000
5000
5000
8800
0000
0000
0000
0000
0000
0000
0000
0000
0000
0000
0000
ENDCHAR
STARTCHAR U+005f
ENCODING 95
SWIDTH 500 0
DWIDTH 8 0
BBX 8 5 0 0
BITMAP
F800
0000
0000
0000
0000
ENDCHAR
STARTCHAR U+0060
ENCODING 96
SWIDTH 500 0
DWIDTH 8 0
BBX 8 15 0 0
BITMAP
2000
2000
1000
1000
0800
0000
0000
0000
0000
0000
0000
0000
0000
0000
0000
ENDCHAR
STARTCHAR U+0061
ENCODING 97
SWIDTH 500 0
DWIDTH 8 0
BBX 8 11 0 0
BITMAP
7000
8800
0800
7800
8800
8800
7800
0000
0000
0000
0000
ENDCHAR
STARTCHAR U+0062
ENCODING 98
SWIDTH 500 0
DWIDTH 8 0
BBX 8 15 0 0
BITMAP
8000
8000
8000
8000
B000
C800
8800
8800
8800
C800
B000
0000
0000
0000
0000
ENDCHAR
STARTCHAR U+0063
ENCODING 99
SWIDTH 500 0
DWIDTH 8 0
BBX 8 11 0 0
BITMAP
7000
8800
8000
8000
8000
8800
7000
0000
0000
0000
0000
ENDCHAR
STARTCHAR U+0064
ENCODING 100
SWIDTH 500 0
DWIDTH 8 0
BBX 8 15 0 0
BITMAP
0800
0800
0800
0800
6800
9800
8800
8800
8800
9800
6800
0000
0000
0000
0000
ENDCHAR
STARTCHAR U+0065
ENCODING 101
SWIDTH 500 0
DWIDTH 8 0
BBX 8 11 0 0
BITMAP
7000
8800
8800
F800
8000
8800
7000
0000
0000
0000
0000
ENDCHAR
STARTCHAR U+0066
ENCODING 102
SWIDTH 500 0
DWIDTH 8 0
BBX 8 15 0 0
BITMAP
3000
4800
4000
4000
F800
4000
4000
4000
4000
4000
4000
0000
0000
0000
0000
ENDCHAR
STARTCHAR U+0067
ENCODING 103
SWIDTH 500 0
DWIDTH 8 0
BBX 8 11 0 0
BITMAP
6800
9800
8800
8800
8800
9800
6800
0800
0800
8800
7000
ENDCHAR
STARTCHAR U+0068
ENCODING 104
SWIDTH 500 0
DWIDTH 8 0
BBX 8 15 0 0
BITMAP
8000
8000
8000
8000
B000
C800
8800
8800
8800
8800
8800
0000
0000
0000
0000
ENDCHAR
STARTCHAR U+0069
ENCODING 105
SWIDTH 500 0
DWIDTH 8 0
BBX 8 14 0 0
BITMAP
2000
2000
0000
6000
2000
2000
2000
2000
2000
7000
0000
0000
0000
0000
ENDCHAR
STARTCHAR U+006a
ENCODING 106
SWIDTH 500 0
DWIDTH 8 0
BBX 8 14 0 0
BITMAP
2000
2000
0000
6000
2000
2000
2000
2000
2000
2000
2000
2000
2000
C000
ENDCHAR
STARTCHAR U+006b
ENCODING 107
SWIDTH 500 0
DWIDTH 8 0
BBX 8 15 0 0
BITMAP
8000
8000
8000
8000
8800
9000
A000
C000
A000
9000
8800
0000
0000
0000
0000
ENDCHAR
STARTCHAR U+006c
ENCODING 108
SWIDTH 500 0
DWIDTH 8 0
BBX 8 15 0 0
BITMAP
6000
2000
2000
2000
2000
2000
2000
2000
2000
2000
2000
0000
0000
0000
0000
ENDCHAR
STARTCHAR U+006d
ENCODING 109
SWIDTH 500 0
DWIDTH 8 0
BBX 8 11 0 0
BITMAP
5000
A800
A800
A800
A800
A800
A800
0000
0000
0000
0000
ENDCHAR
STARTCHAR U+006e
ENCODING 110
SWIDTH 500 0
DWIDTH 8 0
BBX 8 11 0 0
BITMAP
B000
C800
8800
8800
8800
8800
8800
0000
0000
0000
0000
ENDCHAR
STARTCHAR U+006f
ENCODING 111
SWIDTH 500 0
DWIDTH 8 0
BBX 8 11 0 0
BITMAP
7000
8800
8800
8800
8800
8800
7000
0000
0000
0000
0000
ENDCHAR
STARTCHAR U+0070
ENCODING 112
SWIDTH 500 0
DWIDTH 8 0
BBX 8 11 0 0
BITMAP
B000
C800
8800
8800
8800
C800
B000
8000
8000
8000
8000
ENDCHAR
STARTCHAR U+0071
ENCODING 113
SWIDTH 500 0
DWIDTH 8 0
BBX 8 11 0 0
BITMAP
6800
9800
8800
8800
8800
9800
6800
0800
0800
0800
0800
ENDCHAR
STARTCHAR U+0072
ENCODING 114
SWIDTH 500 0
DWIDTH 8 0
BBX 8 11 0 0
BITMAP
B000
C800
8000
8000
8000
8000
8000
0000
0000
0000
0000
ENDCHAR
STARTCHAR U+0073
ENCODING 115
SWIDTH 500 0
DWIDTH 8 0
BBX 8 11 0 0
BITMAP
7000
8800
8000
7000
0800
8800
7000
0000
0000
0000
0000
ENDCHAR
STARTCHAR U+0074
ENCODING 116
SWIDTH 500 0
DWIDTH 8 0
BBX 8 15 0 0
BITMAP
4000
4000
4000
4000
E000
4000
4000
4000
4000
4800
3000
0000
0000
0000
0000
ENDCHAR
STARTCHAR U+0075
ENCODING 117
SWIDTH 500 0
DWIDTH 8 0
BBX 8 11 0 0
BITMAP
8800
8800
8800
8800
8800
9800
6800
0000
0000
0000
0000
ENDCHAR
STARTCHAR U+0076
ENCODING 118
SWIDTH 500 0
DWIDTH 8 0
BBX 8 11 0 0
BITMAP
8800
8800
8800
8800
5000
5000
2000
0000
0000
0000
0000
ENDCHAR
STARTCHAR U+0077
ENCODING 119
SWIDTH 500 0
DWIDTH 8 0
BBX 8 11 0 0
BITMAP
8800
8800
A800
A800
A800
A800
5000
0000
0000
0000
0000
ENDCHAR
STARTCHAR U+0078
ENCODING 120
SWIDTH 500 0
DWIDTH 8 0
BBX 8 11 0 0
BITMAP
8800
8800
5000
2000
5000
8800
8800
0000
0000
0000
0000
ENDCHAR
STARTCHAR U+0079
ENCODING 121
SWIDTH 500 0
DWIDTH 8 0
BBX 8 11 0 0
BITMAP
8800
8800
8800
8800
8800
9800
6800
0800
0800
8800
7000
ENDCHAR
STARTCHAR U+007a
ENCODING 122
SWIDTH 500 0
DWIDTH 8 0
BBX 8 11 0 0
BITMAP
F800
0800
1000
2000
4000
8000
F800
0000
0000
0000
0000
ENDCHAR
STARTCHAR U+007b
ENCODING 123
SWIDTH 500 0
DWIDTH 8 0
BBX 8 15 0 0
BITMAP
1000
2000
2000
2000
2000
4000
2000
2000
2000
2000
1000
0000
0000
0000
0000
ENDCHAR
STARTCHAR U+007c
ENCODING 124
SWIDTH 500 0
DWIDTH 8 0
BBX 8 15 0 0
BITMAP
2000
2000
2000
2000
2000
2000
2000
2000
2000
2000
2000
0000
0000
0000
0000
ENDCHAR
STARTCHAR U+007d
ENCODING 125
SWIDTH 500 0
DWIDTH 8 0
BBX 8 15 0 0
BITMAP
4000
2000
2000
2000
2000
1000
2000
2000
2000
2000
4000
0000
0000
0000
0000
ENDCHAR
STARTCHAR U+007e
ENCODING 126
SWIDTH 500 0
DWIDTH 8 0
BBX 8 15 0 0
BITMAP
4000
A800
1000
0000
0000
0000
0000
0000
0000
0000
0000
0000
0000
0000
0000
ENDCHAR
STARTCHAR U+00a6
ENCODING 166
SWIDTH 500 0
DWIDTH 8 0
BBX 8 15 0 0
BITMAP
2000
2000
2000
2000
0000
0000
0000
2000
2000
2000
2000
0000
0000
0000
0000
ENDCHAR
STARTCHAR U+03c0
ENCODING 960
SWIDTH 500 0
DWIDTH 16 0
BBX 16 10 0 0
BITMAP
0FF8
1FFC
3260
3260
06C0
0EE0
0E70
0C30
0000
0000
ENDCHAR
STARTCHAR U+20a9
ENCODING 8361
SWIDTH 500 0
DWIDTH 8 0
BBX 8 15 0 0
BITMAP
8800
8800
8800
FC00
8800
FC00
8800
A800
A800
A800
5000
0000
0000
0000
0000
ENDCHAR
STARTCHAR U+2500
ENCODING 9472
SWIDTH 500 0
DWIDTH 16 0
BBX 16 9 0 0
BITMAP
FFFF
0000
0000
0000
0000
0000
0000
0000
0000
ENDCHAR
STARTCHAR U+2502
ENCODING 9474
SWIDTH 500 0
DWIDTH 8 0
BBX 8 16 0 0
BITMAP
0100
0100
0100
0100
0100
0100
0100
0100
0100
0100
0100
0100
0100
0100
0100
0100
ENDCHAR
STARTCHAR U+250c
ENCODING 9484
SWIDTH 500 0
DWIDTH 16 0
BBX 16 9 0 0
BITMAP
01FF
0100
0100
0100
0100
0100
0100
0100
0100
ENDCHAR
STARTCHAR U+2510
ENCODING 9488
SWIDTH 500 0
DWIDTH 8 0
BBX 8 9 0 0
BITMAP
FF00
0100
0100
0100
0100
0100
0100
0100
0100
ENDCHAR
STARTCHAR U+2514
ENCODING 9492
SWIDTH 500 0
DWIDTH 16 0
BBX 16 16 0 0
BITMAP
0100
0100
0100
0100
0100
0100
0100
01FF
0000
0000
0000
0000
0000
0000
0000
0000
ENDCHAR
STARTCHAR U+2518
ENCODING 9496
SWIDTH 500 0
DWIDTH 8 0
BBX 8 16 0 0
BITMAP
0100
0100
0100
0100
0100
0100
0100
FF00
0000
0000
0000
0000
0000
0000
0000
0000
ENDCHAR
STARTCHAR U+251c
ENCODING 9500
SWIDTH 500 0
DWIDTH 16 0
BBX 16 16 0 0
BITMAP
0100
0100
0100
0100
0100
0100
0100
01FF
0100
0100
0100
0100
0100
0100
0100
0100
ENDCHAR
STARTCHAR U+2524
ENCODING 9508
SWIDTH 500 0
DWIDTH 8 0
BBX 8 16 0 0
BITMAP
0100
0100
0100
0100
0100
0100
0100
FF00
0100
0100
0100
0100
0100
0100
0100
0100
ENDCHAR
STARTCHAR U+252c
ENCODING 9516
SWIDTH 500 0
DWIDTH 16 0
BBX 16 9 0 0
BITMAP
FFFF
0100
0100
0100
0100
0100
0100
0100
0100
ENDCHAR
STARTCHAR U+2534
ENCODING 9524
SWIDTH 500 0
DWIDTH 16 0
BBX 16 16 0 0
BITMAP
0100
0100
0100
0100
0100
0100
0100
FFFF
0000
0000
0000
0000
0000
0000
0000
0000
ENDCHAR
STARTCHAR U+253c
ENCODING 9532
SWIDTH 500 0
DWIDTH 16 0
BBX 16 16 0 0
BITMAP
0100
0100
0100
0100
0100
0100
0100
FFFF
0100
0100
0100
0100
0100
0100
0100
0100
ENDCHAR
STARTCHAR U+2573
ENCODING 9587
SWIDTH 500 0
DWIDTH 8 0
BBX 8 16 0 0
BITMAP
8100
8100
4200
4200
2400
2400
1800
1800
1800
1800
2400
2400
4200
4200
8100
8100
ENDCHAR
STARTCHAR U+ac00
ENCODING 44032
SWIDTH 500 0
DWIDTH 16 0
BBX 16 16 0 0
BITMAP
0020
0018
0118
7F98
2318
0318
0618
0C1E
1818
3018
6018
8018
0018
0018
0010
0000
ENDCHAR
STARTCHAR U+ac01
ENCODING 44033
SWIDTH 500 0
DWIDTH 16 0
BBX 16 16 0 0
BITMAP
0030
0318
7F98
2318
0318
061E
0C18
1818
3010
DFF8
0818
0018
0018
0018
0010
0000
ENDCHAR
STARTCHAR U+ac02
ENCODING 44034
SWIDTH 500 0
DWIDTH 16 0
BBX 16 16 0 0
BITMAP
0020
0318
7F98
2318
0318
061E
0C18
1810
3118
FFFC
1318
0318
0318
0318
0210
0000
ENDCHAR
STARTCHAR U+ac03
ENCODING 44035
SWIDTH 500 0
DWIDTH 16 0
BBX 16 16 0 0
BITMAP
0030
0318
7F98
2318
0318
061E
0C18
1818
3010
C360
3FB0
0330
0330
034C
0284
0000
ENDCHAR
STARTCHAR U+ac04
ENCODING 44036
SWIDTH 500 0
DWIDTH 16 0
BBX 16 16 0 0
BITMAP
0030
0318
7F98
2318
0318
061E
0C18
1818
3018
C018
0010
1800
0C00
0C10
07F8
0000
ENDCHAR
STARTCHAR U+ac05
ENCODING 44037
SWIDTH 500 0
DWIDTH 16 0
BBX 16 16 0 0
BITMAP
0030
0318
7F98
2318
0318
061E
0C18
1818
3018
C010
19FC
0C30
0C70
0CCC
0784
0000
ENDCHAR
STARTCHAR U+ac06
ENCODING 44038
SWIDTH 500 0
DWIDTH 16 0
BBX 16 16 0 0
BITMAP
0030
0318
7F98
2318
0318
061E
0C18
1810
30F0
C008
33FC
1860
1890
1B90
0C60
0000
ENDCHAR
STARTCHAR U+ac07
ENCODING 44039
SWIDTH 500 0
DWIDTH 16 0
BBX 16 16 0 0
BITMAP
0030
0318
7F98
2318
0318
061E
0C18
1818
3018
C010
1FF8
0600
0600
0610
03F8
0000
ENDCHAR
STARTCHAR U+ac08
ENCODING 44040
SWIDTH 500 0
DWIDTH 16 0
BBX 16 16 0 0
BITMAP
0030
0318
7F98
2318
0318
061E
0C18
1818
3010
CFF8
0010
0FF8
0600
0610
03F8
0000
ENDCHAR
STARTCHAR U+ac09
ENCODING 44041
SWIDTH 500 0
DWIDTH 16 0
BBX 16 16 0 0
BITMAP
0030
0198
7FD8
2198
0318
061E
0C18
1818
E110
3FFC
0218
3F18
1818
1998
0E10
0000
ENDCHAR
STARTCHAR U+ac0a
ENCODING 44042
SWIDTH 500 0
DWIDTH 16 0
BBX 16 16 0 0
BITMAP
0030
0318
7F98
2318
031E
0618
0C18
1818
3010
FFFC
0298
3F98
1890
19F8
0E80
0000
ENDCHAR
STARTCHAR U+ac0b
ENCODING 44043
SWIDTH 500 0
DWIDTH 16 0
BBX 16 16 0 0
BITMAP
0030
0318
7F98
2318
031E
0618
0C18
1818
3230
FF18
02F8
3F98
1898
19F8
0E90
0000
ENDCHAR
STARTCHAR U+ac0c
ENCODING 44044
SWIDTH 500 0
DWIDTH 16 0
BBX 16 16 0 0
BITMAP
0030
0318
7F98
2318
031E
0618
0C18
1818
3010
FF60
0230
3F30
1870
19CC
0E04
0000
ENDCHAR
STARTCHAR U+ac0d
ENCODING 44045
SWIDTH 500 0
DWIDTH 16 0
BBX 16 16 0 0
BITMAP
0030
0318
7F98
2318
0318
061E
0C18
1818
3110
DFF8
02C0
1FF8
0CC0
0DD0
0678
0000
ENDCHAR
STARTCHAR U+ac0e
ENCODING 44046
SWIDTH 500 0
DWIDTH 16 0
BBX 16 16 0 0
BITMAP
0030
0318
7F98
2318
031E
0618
0C18
1818
3210
FFFC
0200
3F98
18D8
1950
0EFC
0000
ENDCHAR
STARTCHAR U+ac0f
ENCODING 44047
SWIDTH 500 0
DWIDTH 16 0
BBX 16 16 0 0
BITMAP
0030
0318
7F98
2318
0318
061E
0C18
1810
3170
DF88
01FC
1F70
0888
0988
0670
0000
ENDCHAR
STARTCHAR U+ac10
ENCODING 44048
SWIDTH 500 0
DWIDTH 16 0
BBX 16 16 0 0
BITMAP
0030
0318
7F98
2318
0318
061E
0C18
1818
3018
C010
0FFC
0618
0618
0610
07F8
0400
ENDCHAR
STARTCHAR U+ac11
ENCODING 44049
SWIDTH 500 0
DWIDTH 16 0
BBX 16 16 0 0
BITMAP
0030
0318
7F98
2318
0318
061E
0C18
1818
3030
C018
0C18
07F8
0618
0618
07F8
0410
ENDCHAR
STARTCHAR U+ac12
ENCODING 44050
SWIDTH 500 0
DWIDTH 16 0
BBX 16 16 0 0
BITMAP
0030
0318
7F98
2318
0318
061E
0C18
1818
3018
C610
3160
1930
1F30
1958
1FCC
1180
ENDCHAR
STARTCHAR U+ac13
ENCODING 44051
SWIDTH 500 0
DWIDTH 16 0
BBX 16 16 0 0
BITMAP
0030
0318
7F98
2318
0318
061E
0C18
1818
3018
C190
00C0
0180
0340
0630
1818
0000
ENDCHAR
STARTCHAR U+ac14
ENCODING 44052
SWIDTH 500 0
DWIDTH 16 0
BBX 16 16 0 0
BITMAP
0030
0318
7F98
2318
0318
061E
0C18
1818
3018
C010
0660
0330
0620
0D70
3198
0000
ENDCHAR
STARTCHAR U+ac15
ENCODING 44053
SWIDTH 500 0
DWIDTH 16 0
BBX 16 16 0 0
BITMAP
0030
0318
7F98
2318
0318
061E
0C18
1818
3018
C0D0
0330
0618
0618
0330
00C0
0000
ENDCHAR
STARTCHAR U+ac16
ENCODING 44054
SWIDTH 500 0
DWIDTH 16 0
BBX 16 16 0 0
BITMAP
0030
0318
7F98
2318
0318
061E
0C18
1818
3018
C010
1FF8
0980
0340
0630
1818
0000
ENDCHAR
STARTCHAR U+ac17
ENCODING 44055
SWIDTH 500 0
DWIDTH 16 0
BBX 16 16 0 0
BITMAP
0030
0198
7FD8
2198
0318
061E
0C18
1818
63F0
1010
0FF8
00C0
0180
0370
0C18
0000
ENDCHAR
STARTCHAR U+ac18
ENCODING 44056
SWIDTH 500 0
DWIDTH 16 0
BBX 16 16 0 0
BITMAP
0030
0318
7F98
2318
0318
061E
0C18
1818
3010
CFFC
0018
00F8
0F18
0418
0010
0000
ENDCHAR
STARTCHAR U+ac19
ENCODING 44057
SWIDTH 500 0
DWIDTH 16 0
BBX 16 16 0 0
BITMAP
0030
0318
7F98
2318
0318
061E
0C18
1818
3010
CFF8
0600
07F8
0600
0610
03F8
0000
ENDCHAR
STARTCHAR U+ac1a
ENCODING 44058
SWIDTH 500 0
DWIDTH 16 0
BBX 16 16 0 0
BITMAP
0030
0318
7F98
2318
0318
061E
0C18
1818
3010
C010
0FF8
0410
0230
1328
0FFC
0000
ENDCHAR
STARTCHAR U+ac1b
ENCODING 44059
SWIDTH 500 0
DWIDTH 16 0
BBX 16 16 0 0
BITMAP
0030
0198
7FD8
2198
0318
061E
0C18
1818
63F0
1010
0FF8
01C0
0220
0220
01C0
0000
ENDCHAR
STARTCHAR U+ac1c
ENCODING 44060
SWIDTH 500 0
DWIDTH 16 0
BBX 16 16 0 0
BITMAP
0020
0018
0118
04D8
7ED8
06D8
06D8
0CF8
0CD8
18D8
30D8
C0D8
00D8
0098
0010
0000
ENDCHAR
STARTCHAR U+ac1d
ENCODING 44061
SWIDTH 500 0
DWIDTH 16 0
BBX 16 16 0 0
BITMAP
0020
0118
04D8
7ED8
06D8
0CF8
0CD8
18D8
3098
C010
1FF8
0818
0018
0018
0010
0000
ENDCHAR
STARTCHAR U+ac1e
ENCODING 44062
SWIDTH 500 0
DWIDTH 16 0
BBX 16 16 0 0
BITMAP
0020
0118
04D8
7ED8
06D8
0CF8
0CD8
1898
3010
C118
3FFC
1318
0318
0318
0210
0000
ENDCHAR
STARTCHAR U+ac1f
ENCODING 44063
SWIDTH 500 0
DWIDTH 16 0
BBX 16 16 0 0
BITMAP
0020
0118
04D8
7ED8
06D8
0CF8
0CD8
1898
3010
C360
3FB0
0330
0330
034C
0284
0000
ENDCHAR
STARTCHAR U+ac20
ENCODING 44064
SWIDTH 500 0
DWIDTH 16 0
BBX 16 16 0 0
BITMAP
0020
0198
04D8
7ED8
06D8
0CD8
0CF8
18D8
30D8
C0D8
0098
1C10
0600
0610
03F8
0000
ENDCHAR
STARTCHAR U+ac21
ENCODING 44065
SWIDTH 500 0
DWIDTH 16 0
BBX 16 16 0 0
BITMAP
0020
0118
04D8
7ED8
06D8
0CF8
0CD8
18D8
3098
C010
19FC
0C30
0C70
0CCC
0784
0000
ENDCHAR
STARTCHAR U+ac22
ENCODING 44066
SWIDTH 500 0
DWIDTH 16 0
BBX 16 16 0 0
BITMAP
0020
0118
04D8
7ED8
06D8
0CF8
0CD8
1890
3070
C008
33FC
1860
1890
1B90
0C60
0000
ENDCHAR
STARTCHAR U+ac23
ENCODING 44067
SWIDTH 500 0
DWIDTH 16 0
BBX 16 16 0 0
BITMAP
0020
0198
04D8
7ED8
06D8
0CF8
0CD8
18D8
30D8
C090
0FF8
0600
0600
0610
03F8
0000
ENDCHAR
STARTCHAR U+ac24
ENCODING 44068
SWIDTH 500 0
DWIDTH 16 0
BBX 16 16 0 0
BITMAP
0020
0118
04D8
7ED8
06D8
0CD8
0CF8
18D8
30D8
C090
0FF8
0010
0FF8
0600
0610
03F8
ENDCHAR
STARTCHAR U+ac25
ENCODING 44069
SWIDTH 500 0
DWIDTH 16 0
BBX 16 16 0 0
BITMAP
0030
0118
04D8
7ED8
06D8
0CF8
0CD8
1898
3110
FFFC
0218
3F18
1818
1998
0E10
0000
ENDCHAR
STARTCHAR U+ac26
ENCODING 44070
SWIDTH 500 0
DWIDTH 16 0
BBX 16 16 0 0
BITMAP
0030
0118
04D8
7ED8
06D8
0CF8
0CD8
1898
3010
FFFC
0298
3F98
1890
19F8
0E80
0000
ENDCHAR
STARTCHAR U+ac27
ENCODING 44071
SWIDTH 500 0
DWIDTH 16 0
BBX 16 16 0 0
BITMAP
0030
0118
04D8
7ED8
06D8
0CF8
0CD8
1898
3230
FF18
02F8
3F98
1898
19F8
0E90
0000
ENDCHAR
STARTCHAR U+ac28
ENCODING 44072
SWIDTH 500 0
DWIDTH 16 0
BBX 16 16 0 0
BITMAP
0030
0118
04D8
7ED8
06D8
0CF8
0CD8
1898
3010
FF60
0230
3F30
1870
19CC
0E04
0000
ENDCHAR
STARTCHAR U+ac29
ENCODING 44073
SWIDTH 500 0
DWIDTH 16 0
BBX 16 16 0 0
BITMAP
0030
0118
04D8
7ED8
06D8
0CF8
0CD8
1898
3110
DFF8
02C0
1FF8
0CC0
0DD0
0678
0000
ENDCHAR
STARTCHAR U+ac2a
ENCODING 44074
SWIDTH 500 0
DWIDTH 16 0
BBX 16 16 0 0
BITMAP
0030
0118
04D8
7ED8
06D8
0CF8
0CD8
1898
3210
FFFC
0200
3F98
18D8
1950
0EFC
0000
ENDCHAR
STARTCHAR U+ac2b
ENCODING 44075
SWIDTH 500 0
DWIDTH 16 0
BBX 16 16 0 0
BITMAP
0030
0118
04D8
7ED8
06F8
0CD8
0C98
1810
3170
DF88
01FC
1F70
0888
0988
0670
0000
ENDCHAR
STARTCHAR U+ac2c
ENCODING 44076
SWIDTH 500 0
DWIDTH 16 0
BBX 16 16 0 0
BITMAP
0020
0118
04D8
7ED8
06D8
06F8
0CD8
18D8
3090
C008
0FFC
0618
0618
0610
07F8
0400
ENDCHAR
STARTCHAR U+ac2d
ENCODING 44077
SWIDTH 500 0
DWIDTH 16 0
BBX 16 16 0 0
BITMAP
0020
0118
04D8
7ED8
06D8
06D8
0CF8
18D8
30D0
C0B0
0C18
07F8
0618
0618
07F8
0410
ENDCHAR
STARTCHAR U+ac2e
ENCODING 44078
SWIDTH 500 0
DWIDTH 16 0
BBX 16 16 0 0
BITMAP
0030
0118
04D8
7ED8
06D8
0CD8
0CF8
18D8
3098
C610
3160
1930
1F30
1958
1FCC
1180
ENDCHAR
STARTCHAR U+ac2f
ENCODING 44079
SWIDTH 500 0
DWIDTH 16 0
BBX 16 16 0 0
BITMAP
0020
0198
02D8
7FD8
06D8
06F8
0CD8
18D8
30D8
C198
00D0
0180
0360
0638
1818
0000
ENDCHAR
STARTCHAR U+ac30
ENCODING 44080
SWIDTH 500 0
DWIDTH 16 0
BBX 16 16 0 0
BITMAP
0020
0198
02D8
7FD8
06D8
06F8
0CD8
18D8
30D8
C098
0670
0330
0670
0DCC
3304
0000
ENDCHAR
STARTCHAR U+ac31
ENCODING 44081
SWIDTH 500 0
DWIDTH 16 0
BBX 16 16 0 0
BITMAP
0020
0198
04D8
7ED8
06D8
0CF8
0CD8
18D8
3098
C0D0
0330
0618
0618
0330
00C0
0000
ENDCHAR
STARTCHAR U+ac32
ENCODING 44082
SWIDTH 500 0
DWIDTH 16 0
BBX 16 16 0 0
BITMAP
0020
0198
04D8
7ED8
06D8
0CF8
0CD8
18D8
30D8
D090
0FF8
0180
0360
0638
1818
0000
ENDCHAR
STARTCHAR U+ac33
ENCODING 44083
SWIDTH 500 0
DWIDTH 16 0
BBX 16 16 0 0
BITMAP
0030
0118
04D8
7ED8
06D8
0CF8
0CD8
1898
33F0
D010
0FF8
00C0
0180
0370
0C18
0000
ENDCHAR
STARTCHAR U+ac34
ENCODING 44084
SWIDTH 500 0
DWIDTH 16 0
BBX 16 16 0 0
BITMAP
0030
0118
04D8
7ED8
06D8
0CF8
0CD8
1898
3010
CFFC
0018
00F8
0F18
0418
0010
0000
ENDCHAR
STARTCHAR U+ac35
ENCODING 44085
SWIDTH 500 0
DWIDTH 16 0
BBX 16 16 0 0
BITMAP
0020
0198
04D8
7ED8
06D8
0CF8
0CD8
18D8
30D0
CFF8
0600
07F8
0600
0610
03F8
0000
ENDCHAR
STARTCHAR U+ac36
ENCODING 44086
SWIDTH 500 0
DWIDTH 16 0
BBX 16 16 0 0
BITMAP
0020
0198
02D8
7FD8
06D8
06F8
0CD8
18D8
3090
CFF8
0060
0630
0330
1120
0FF8
0000
ENDCHAR
STARTCHAR U+ac37
ENCODING 44087
SWIDTH 500 0
DWIDTH 16 0
BBX 16 16 0 0
BITMAP
0030
0198
04D8
7ED8
06D8
0CF8
0C98
1818
33F0
D010
0FF8
01C0
0220
0220
01C0
0000
ENDCHAR
STARTCHAR U+ac38
ENCODING 44088
SWIDTH 500 0
DWIDTH 16 0
BBX 16 16 0 0
BITMAP
0020
0018
0318
7F98
2318
0618
061E
0C18
1818
301E
6018
8018
0018
0018
0010
0000
ENDCHAR
STARTCHAR U+ac39
ENCODING 44089
SWIDTH 500 0
DWIDTH 16 0
BBX 16 16 0 0
BITMAP
0030
0318
7F98
231E
0618
0C18
181E
3018
C010
1FFC
0818
0018
0018
0018
0010
0000
ENDCHAR
STARTCHAR U+ac3a
ENCODING 44090
SWIDTH 500 0
DWIDTH 16 0
BBX 16 16 0 0
BITMAP
0020
0318
7F98
2318
061E
0C18
181E
3010
C118
3FFC
1318
0318
0318
0318
0210
0000
ENDCHAR
STARTCHAR U+ac3b
ENCODING 44091
SWIDTH 500 0
DWIDTH 16 0
BBX 16 16 0 0
BITMAP
0030
0318
7F98
2318
061E
0C18
181E
3018
C010
0360
3FB0
0330
0330
034C
0284
0000
ENDCHAR
STARTCHAR U+ac3c
ENCODING 44092
SWIDTH 500 0
DWIDTH 16 0
BBX 16 16 0 0
BITMAP
0020
0018
0318
7F98
231E
0618
0C18
181E
3018
C018
0018
0C10
0600
0610
03F8
0000
ENDCHAR
STARTCHAR U+ac3d
ENCODING 44093
SWIDTH 500 0
DWIDTH 16 0
BBX 16 16 0 0
BITMAP
0030
0318
7F98
2318
061E
0C18
1818
301E
C018
0010
19FC
0C30
0C70
0CCC
0784
0000
ENDCHAR
STARTCHAR U+ac3e
ENCODING 44094
SWIDTH 500 0
DWIDTH 16 0
BBX 16 16 0 0
BITMAP
0030
0318
7F98
231E
0618
0C1E
1818
3010
C0F0
0008
33FC
1860
1890
1B90
0C60
0000
ENDCHAR
STARTCHAR U+ac3f
ENCODING 44095
SWIDTH 500 0
DWIDTH 16 0
BBX 16 16 0 0
BITMAP
0030
0318
7F98
2318
061E
0C18
1818
301E
C018
0010
1FF8
0600
0600
0610
03F8
0000
ENDCHAR
STARTCHAR U+ac40
ENCODING 44096
SWIDTH 500 0
DWIDTH 16 0
BBX 16 16 0 0
BITMAP
0030
0318
7F98
2318
031E
0618
0C1E
1818
3010
CFF8
0010
0FF8
0600
0610
03F8
0000
ENDCHAR
STARTCHAR U+ac41
ENCODING 44097
SWIDTH 500 0
DWIDTH 16 0
BBX 16 16 0 0
BITMAP
0030
0318
7F98
2318
061E
0C18
181E
3018
C110
3FFC
0218
3F18
1818
1998
0E10
0000
ENDCHAR
STARTCHAR U+ac42
ENCODING 44098
SWIDTH 500 0
DWIDTH 16 0
BBX 16 16 0 0
BITMAP
0030
0318
7F98
2318
061E
0C18
181E
3018
C010
3FFC
0298
3F98
1890
19F8
0E80
0000
ENDCHAR
STARTCHAR U+ac43
ENCODING 44099
SWIDTH 500 0
DWIDTH 16 0
BBX 16 16 0 0
BITMAP
0030
0318
7F98
2318
061E
0C18
181E
3018
C230
3F18
02F8
3F98
1898
19F8
0E90
0000
ENDCHAR
STARTCHAR U+ac44
ENCODING 44100
SWIDTH 500 0
DWIDTH 16 0
BBX 16 16 0 0
BITMAP
0030
0318
7F98
2318
061E
0C18
181E
3018
C010
3F60
0230
3F30
1870
19CC
0E04
0000
ENDCHAR
STARTCHAR U+ac45
ENCODING 44101
SWIDTH 500 0
DWIDTH 16 0
BBX 16 16 0 0
BITMAP
0030
0318
7F98
2318
061E
0C18
181E
3018
C110
1FF8
02C0
1FF8
0CC0
0DD0
0678
0000
ENDCHAR
STARTCHAR U+ac46
ENCODING 44102
SWIDTH 500 0
DWIDTH 16 0
BBX 16 16 0 0
BITMAP
0030
0318
7F98
2318
061E
0C18
181E
3018
C210
3FFC
0200
3F98
18D8
1950
0EFC
0000
ENDCHAR
STARTCHAR U+ac47
ENCODING 44103
SWIDTH 500 0
DWIDTH 16 0
BBX 16 16 0 0
BITMAP
0030
0318
7F98
231E
0618
0C1E
1818
3010
C170
1F88
01FC
1F70
0888
0988
0670
0000
ENDCHAR
STARTCHAR U+ac48
ENCODING 44104
SWIDTH 500 0
DWIDTH 16 0
BBX 16 16 0 0
BITMAP
0030
0318
7F98
2318
061E
0C18
1818
301E
C018
0010
0FFC
0618
0618
0610
07F8
0400
ENDCHAR
STARTCHAR U+ac49
ENCODING 44105
SWIDTH 500 0
DWIDTH 16 0
BBX 16 16 0 0
BITMAP
0030
0318
7F98
231E
0618
0C1E
1818
3018
C030
0018
0C18
07F8
0618
0618
07F8
0410
ENDCHAR
STARTCHAR U+ac4a
ENCODING 44106
SWIDTH 500 0
DWIDTH 16 0
BBX 16 16 0 0
BITMAP
0030
0318
7F98
231E
0618
0C18
181E
3018
C018
0610
3160
1930
1F30
1958
1FCC
1180
ENDCHAR
STARTCHAR U+ac4b
ENCODING 44107
SWIDTH 500 0
DWIDTH 16 0
BBX 16 16 0 0
BITMAP
0020
0198
7FD8
219E
0318
0618
0C1E
1818
3018
C198
00D0
0180
0360
0638
1818
0000
ENDCHAR
STARTCHAR U+ac4c
ENCODING 44108
SWIDTH 500 0
DWIDTH 16 0
BBX 16 16 0 0
BITMAP
0030
0318
7F98
231E
0618
0C18
181E
3018
C018
0010
0660
0330
0620
0D70
3198
0000
ENDCHAR
STARTCHAR U+ac4d
ENCODING 44109
SWIDTH 500 0
DWIDTH 16 0
BBX 16 16 0 0
BITMAP
0030
0318
7F98
231E
0618
0C18
181E
3018
C018
00D0
0330
0618
0618
0330
00C0
0000
ENDCHAR
STARTCHAR U+ac4e
ENCODING 44110
SWIDTH 500 0
DWIDTH 16 0
BBX 16 16 0 0
BITMAP
0030
0318
7F98
231E
0618
0C18
181E
3018
C018
0010
1FF8
0980
0340
0630
1818
0000
ENDCHAR
STARTCHAR U+ac4f
ENCODING 44111
SWIDTH 500 0
DWIDTH 16 0
BBX 16 16 0 0
BITMAP
0030
0318
7F98
231E
0618
0C18
181E
3018
C3F0
1010
0FF8
00C0
0180
0370
0C18
0000
ENDCHAR
STARTCHAR U+ac50
ENCODING 44112
SWIDTH 500 0
DWIDTH 16 0
BBX 16 16 0 0
BITMAP
0030
0318
7F98
2318
061E
0C18
181E
3018
C010
0FFC
0018
00F8
0F18
0418
0010
0000
ENDCHAR
STARTCHAR U+ac51
ENCODING 44113
SWIDTH 500 0
DWIDTH 16 0
BBX 16 16 0 0
BITMAP
0030
0318
7F98
2318
061E
0C18
181E
3018
C010
0FF8
0600
07F8
0600
0610
03F8
0000
ENDCHAR
STARTCHAR U+ac52
ENCODING 44114
SWIDTH 500 0
DWIDTH 16 0
BBX 16 16 0 0
BITMAP
0030
0318
7F98
2318
061E
0C18
181E
3018
C010
0010
0FF8
0410
0230
1328
0FFC
0000
ENDCHAR
STARTCHAR U+ac53
ENCODING 44115
SWIDTH 500 0
DWIDTH 16 0
BBX 16 16 0 0
BITMAP
0030
0318
7F98
2318
061E
0C18
181E
3018
C3F0
1010
0FF8
01C0
0220
0220
01C0
0000
ENDCHAR
STARTCHAR U+ac54
ENCODING 44116
SWIDTH 500 0
DWIDTH 16 0
BBX 16 16 0 0
BITMAP
0020
0118
00D8
02D8
7FD8
06F8
06D8
0CD8
18F8
30D8
C0D8
00D8
00D8
0098
0010
0000
ENDCHAR
STARTCHAR U+ac55
ENCODING 44117
SWIDTH 500 0
DWIDTH 16 0
BBX 16 16 0 0
BITMAP
0020
0118
02D8
7FD8
06F8
06D8
0CD8
18F8
30D8
C090
1FF8
0818
0018
0018
0010
0000
ENDCHAR
STARTCHAR U+ac56
ENCODING 44118
SWIDTH 500 0
DWIDTH 16 0
BBX 16 16 0 0
BITMAP
0020
0118
02D8
7FD8
06F8
06D8
0CF8
18D8
3090
C118
3FFC
1318
0318
0318
0210
0000
ENDCHAR
STARTCHAR U+ac57
ENCODING 44119
SWIDTH 500 0
DWIDTH 16 0
BBX 16 16 0 0
BITMAP
0020
0198
02D8
7FF8
06D8
06D8
0CF8
18D8
3090
C360
3FB0
0330
0330
034C
0284
0000
ENDCHAR
STARTCHAR U+ac58
ENCODING 44120
SWIDTH 500 0
DWIDTH 16 0
BBX 16 16 0 0
BITMAP
0020
0198
02D8
7FD8
06F8
06D8
0CD8
18F8
30D8
C0D8
0098
0C10
0600
0610
03F8
0000
ENDCHAR
STARTCHAR U+ac59
ENCODING 44121
SWIDTH 500 0
DWIDTH 16 0
BBX 16 16 0 0
BITMAP
0020
0118
02D8
7FD8
06F8
06D8
0CD8
18F8
30D8
C090
19FC
0C30
0C70
0CCC
0784
0000
ENDCHAR
STARTCHAR U+ac5a
ENCODING 44122
SWIDTH 500 0
DWIDTH 16 0
BBX 16 16 0 0
BITMAP
0020
0118
02D8
7FF8
06D8
06F8
0CD8
1890
3070
C008
33FC
1860
1890
1B90
0C60
0000
ENDCHAR
STARTCHAR U+ac5b
ENCODING 44123
SWIDTH 500 0
DWIDTH 16 0
BBX 16 16 0 0
BITMAP
0020
0198
02D8
7FD8
06F8
06D8
0CD8
18F8
30D8
C090
0FF8
0600
0600
0610
03F8
0000
ENDCHAR
STARTCHAR U+ac5c
ENCODING 44124
SWIDTH 500 0
DWIDTH 16 0
BBX 16 16 0 0
BITMAP
0020
0198
02D8
7FF8
06D8
06D8
0CF8
18D8
3090
CFF8
0010
0FF8
0600
0610
03F8
0000
ENDCHAR
STARTCHAR U+ac5d
ENCODING 44125
SWIDTH 500 0
DWIDTH 16 0
BBX 16 16 0 0
BITMAP
0030
0118
02D8
7FF8
06D8
06F8
0CD8
1898
3110
FFFC
0218
3F18
1818
1998
0E10
0000
ENDCHAR
STARTCHAR U+ac5e
ENCODING 44126
SWIDTH 500 0
DWIDTH 16 0
BBX 16 16 0 0
BITMAP
0030
0118
02D8
7FF8
06D8
06D8
0CF8
18D8
3090
FFFC
0298
3F98
1890
19F8
0E80
0000
ENDCHAR
STARTCHAR U+ac5f
ENCODING 44127
SWIDTH 500 0
DWIDTH 16 0
BBX 16 16 0 0
BITMAP
0030
0118
02D8
7FF8
06D8
06F8
0CD8
1898
3230
FF18
02F8
3F98
1898
19F8
0E90
0000
ENDCHAR
STARTCHAR U+ac60
ENCODING 44128
SWIDTH 500 0
DWIDTH 16 0
BBX 16 16 0 0
BITMAP
0030
0118
02D8
7FF8
06D8
06D8
0CF8
18D8
3090
FF60
0230
3F30
1870
19CC
0E04
0000
ENDCHAR
STARTCHAR U+ac61
ENCODING 44129
SWIDTH 500 0
DWIDTH 16 0
BBX 16 16 0 0
BITMAP
0030
0118
02D8
7FF8
06D8
06F8
0CD8
1898
3110
DFF8
02C0
1FF8
0CC0
0DD0
0678
0000
ENDCHAR
STARTCHAR U+ac62
ENCODING 44130
SWIDTH 500 0
DWIDTH 16 0
BBX 16 16 0 0
BITMAP
0030
0118
02D8
7FF8
06D8
06D8
0CF8
18D8
3290
FFFC
0200
3F98
18D8
1950
0EFC
0000
ENDCHAR
STARTCHAR U+ac63
ENCODING 44131
SWIDTH 500 0
DWIDTH 16 0
BBX 16 16 0 0
BITMAP
0030
0118
02D8
7FF8
06D8
06F8
0CD8
1890
3170
DF88
01FC
1F70
0888
0988
0670
0000
ENDCHAR
STARTCHAR U+ac64
ENCODING 44132
SWIDTH 500 0
DWIDTH 16 0
BBX 16 16 0 0
BITMAP
0020
0118
02D8
7FF8
06D8
06D8
0CF8
18D8
3090
C008
0FFC
0618
0618
0610
07F8
0400
ENDCHAR
STARTCHAR U+ac65
ENCODING 44133
SWIDTH 500 0
DWIDTH 16 0
BBX 16 16 0 0
BITMAP
0020
0118
02D8
7FF8
06D8
06D8
0CF8
18D8
30D0
C0B0
0C18
07F8
0618
0618
07F8
0410
ENDCHAR
STARTCHAR U+ac66
ENCODING 44134
SWIDTH 500 0
DWIDTH 16 0
BBX 16 16 0 0
BITMAP
0030
0118
02D8
7FF8
06D8
06D8
0CF8
18D8
3098
C610
3160
1930
1F30
1958
1FCC
1180
ENDCHAR
STARTCHAR U+ac67
ENCODING 44135
SWIDTH 500 0
DWIDTH 16 0
BBX 16 16 0 0
BITMAP
0020
0198
02D8
7FF8
06D8
06D8
0CF8
18D8
30D8
C198
00D0
0180
0360
0638
1818
0000
ENDCHAR
STARTCHAR U+ac68
ENCODING 44136
SWIDTH 500 0
DWIDTH 16 0
BBX 16 16 0 0
BITMAP
0020
0198
02D8
7FF8
06D8
06D8
0CF8
18D8
30D8
C098
0670
0330
0670
0DCC
3304
0000
ENDCHAR
STARTCHAR U+ac69
ENCODING 44137
SWIDTH 500 0
DWIDTH 16 0
BBX 16 16 0 0
BITMAP
0020
0198
02D8
7FF8
06D8
06D8
0CF8
18D8
3098
C0D0
0330
0618
0618
0330
00C0
0000
ENDCHAR
STARTCHAR U+ac6a
ENCODING 44138
SWIDTH 500 0
DWIDTH 16 0
BBX 16 16 0 0
BITMAP
0020
0198
02D8
7FF8
06D8
06D8
0CF8
18D8
30D8
D090
0FF8
0180
0360
0638
1818
0000
ENDCHAR
STARTCHAR U+ac6b
ENCODING 44139
SWIDTH 500 0
DWIDTH 16 0
BBX 16 16 0 0
BITMAP
0030
0118
02D8
7FF8
06D8
06F8
0CD8
1898
33F0
D010
0FF8
00C0
0180
0370
0C18
0000
ENDCHAR
STARTCHAR U+ac6c
ENCODING 44140
SWIDTH 500 0
DWIDTH 16 0
BBX 16 16 0 0
BITMAP
0030
0118
02D8
7FF8
06D8
06F8
0CD8
1898
3010
CFFC
0018
00F8
0F18
0418
0010
0000
ENDCHAR
STARTCHAR U+ac6d
ENCODING 44141
SWIDTH 500 0
DWIDTH 16 0
BBX 16 16 0 0
BITMAP
0020
0198
02D8
7FF8
06D8
06D8
0CF8
18D8
30D0
CFF8
0600
07F8
0600
0610
03F8
0000
ENDCHAR
STARTCHAR U+ac6e
ENCODING 44142
SWIDTH 500 0
DWIDTH 16 0
BBX 16 16 0 0
BITMAP
0020
0198
02D8
7FF8
06D8
06D8
0CF8
18D8
3090
CFF8
0060
0630
0330
1120
0FF8
0000
ENDCHAR
STARTCHAR U+ac6f
ENCODING 44143
SWIDTH 500 0
DWIDTH 16 0
BBX 16 16 0 0
BITMAP
0030
0198
02D8
7FF8
06D8
06F8
0CD8
1898
33F0
D010
0FF8
01C0
0220
0220
01C0
0000
ENDCHAR
STARTCHAR U+ac70
ENCODING 44144
SWIDTH 500 0
DWIDTH 16 0
BBX 16 16 0 0
BITMAP
0020
0018
0318
7F98
2318
0318
0618
07F8
0C98
1818
3018
C018
0018
0018
0010
0000
ENDCHAR
STARTCHAR U+ac71
ENCODING 44145
SWIDTH 500 0
DWIDTH 16 0
BBX 16 16 0 0
BITMAP
0030
0318
7F98
2318
0318
07F8
0C98
1818
3010
DFF8
0818
0018
0018
0018
0010
0000
ENDCHAR
STARTCHAR U+ac72
ENCODING 44146
SWIDTH 500 0
DWIDTH 16 0
BBX 16 16 0 0
BITMAP
0020
0318
7F98
2318
0318
07F8
0C98
1818
3210
FFFC
1318
0318
0318
0318
0210
0000
ENDCHAR
STARTCHAR U+ac73
ENCODING 44147
SWIDTH 500 0
DWIDTH 16 0
BBX 16 16 0 0
BITMAP
0030
0318
7F98
2318
0318
07F8
0C98
1818
3110
FFE0
1330
0320
0370
03CC
0204
0000
ENDCHAR
STARTCHAR U+ac74
ENCODING 44148
SWIDTH 500 0
DWIDTH 16 0
BBX 16 16 0 0
BITMAP
0020
0318
7F98
2318
0318
07F8
0C98
1818
3018
C018
0018
1C10
0600
0610
03F8
0000
ENDCHAR
STARTCHAR U+ac75
ENCODING 44149
SWIDTH 500 0
DWIDTH 16 0
BBX 16 16 0 0
BITMAP
0030
0318
7F98
2318
0618
0DF8
1818
3018
C010
0210
19F8
0C20
0C60
0CD8
0708
0000
ENDCHAR
STARTCHAR U+ac76
ENCODING 44150
SWIDTH 500 0
DWIDTH 16 0
BBX 16 16 0 0
BITMAP
0030
0318
7F98
2318
0318
07F8
0C98
1810
30F0
C008
33FC
1860
1890
1B90
0C60
0000
ENDCHAR
STARTCHAR U+ac77
ENCODING 44151
SWIDTH 500 0
DWIDTH 16 0
BBX 16 16 0 0
BITMAP
0030
0318
7F98
2318
0318
07F8
0C98
1818
3018
C010
0FF8
0600
0600
0610
03F8
0000
ENDCHAR
STARTCHAR U+ac78
ENCODING 44152
SWIDTH 500 0
DWIDTH 16 0
BBX 16 16 0 0
BITMAP
0030
0318
7F98
2318
0318
07F8
0C98
1818
3010
CFF8
0010
0FF8
0600
0610
03F8
0000
ENDCHAR
STARTCHAR U+ac79
ENCODING 44153
SWIDTH 500 0
DWIDTH 16 0
BBX 16 16 0 0
BITMAP
0030
0318
7F98
2318
0318
07F8
0C98
1818
3110
FFFC
0218
3F18
1818
1998
0E10
0000
ENDCHAR
STARTCHAR U+ac7a
ENCODING 44154
SWIDTH 500 0
DWIDTH 16 0
BBX 16 16 0 0
BITMAP
0030
0318
7F98
2318
0618
0CF8
1818
3018
C110
3FFC
0298
3F98
1890
1BF8
0C80
0000
ENDCHAR
STARTCHAR U+ac7b
ENCODING 44155
SWIDTH 500 0
DWIDTH 16 0
BBX 16 16 0 0
BITMAP
0030
0318
7F98
2318
0318
07F8
0C98
1818
3230
FF18
02F8
3F98
1898
19F8
0E90
0000
ENDCHAR
STARTCHAR U+ac7c
ENCODING 44156
SWIDTH 500 0
DWIDTH 16 0
BBX 16 16 0 0
BITMAP
0030
0318
7F98
2318
0318
07F8
0C98
1818
3010
FF60
0230
3F30
1870
19CC
0E04
0000
ENDCHAR
STARTCHAR U+ac7d
ENCODING 44157
SWIDTH 500 0
DWIDTH 16 0
BBX 16 16 0 0
BITMAP
0030
0318
7F98
2318
0318
07F8
0C98
1818
3110
DFF8
02C0
1FF8
0CC0
0DD0
0678
0000
ENDCHAR
STARTCHAR U+ac7e
ENCODING 44158
SWIDTH 500 0
DWIDTH 16 0
BBX 16 16 0 0
BITMAP
0030
0318
7F98
2318
0318
07F8
0C98
1818
3210
FFFC
0200
3F98
18D8
1950
0EFC
0000
ENDCHAR
STARTCHAR U+ac7f
ENCODING 44159
SWIDTH 500 0
DWIDTH 16 0
BBX 16 16 0 0
BITMAP
0030
0318
7F98
2318
0318
07F8
0C98
1810
3170
DF88
01FC
1F70
0888
0988
0670
0000
ENDCHAR
STARTCHAR U+ac80
ENCODING 44160
SWIDTH 500 0
DWIDTH 16 0
BBX 16 16 0 0
BITMAP
0030
0318
7F98
2318
0318
07F8
0D18
1818
3010
C008
0FFC
0618
0618
0610
07F8
0400
ENDCHAR
STARTCHAR U+ac81
ENCODING 44161
SWIDTH 500 0
DWIDTH 16 0
BBX 16 16 0 0
BITMAP
0030
0318
7F98
0318
0318
07F8
0D18
1818
3010
C030
0C18
07F8
0618
0618
07F8
0410
ENDCHAR
STARTCHAR U+ac82
ENCODING 44162
SWIDTH 500 0
DWIDTH 16 0
BBX 16 16 0 0
BITMAP
0030
0318
7F98
2318
0318
07F8
0C98
1818
3018
C610
2360
1330
1F30
1BD8
1F8C
130C
ENDCHAR
STARTCHAR U+ac83
ENCODING 44163
SWIDTH 500 0
DWIDTH 16 0
BBX 16 16 0 0
BITMAP
0030
0318
7F98
2318
0318
07F8
0C98
1818
3018
C0D0
0040
00C0
01A0
0310
0C18
0000
ENDCHAR
STARTCHAR U+ac84
ENCODING 44164
SWIDTH 500 0
DWIDTH 16 0
BBX 16 16 0 0
BITMAP
0030
0318
7F98
2318
0618
0CF8
1818
3018
C018
0010
0C60
0630
0E60
19D8
6308
0000
ENDCHAR
STARTCHAR U+ac85
ENCODING 44165
SWIDTH 500 0
DWIDTH 16 0
BBX 16 16 0 0
BITMAP
0030
0118
7F98
2318
0318
07F8
0C98
1818
3010
C0C0
0330
0618
0618
0330
00C0
0000
ENDCHAR
STARTCHAR U+ac86
ENCODING 44166
SWIDTH 500 0
DWIDTH 16 0
BBX 16 16 0 0
BITMAP
0030
0318
7F98
2318
0618
0CF8
1818
3018
C018
1010
0FF8
00C0
01C0
0330
1C18
0000
ENDCHAR
STARTCHAR U+ac87
ENCODING 44167
SWIDTH 500 0
DWIDTH 16 0
BBX 16 16 0 0
BITMAP
0030
0318
7F98
2318
0618
0CF8
1818
3018
C0D0
0860
07F8
00C0
01C0
0330
0C18
0000
ENDCHAR
STARTCHAR U+ac88
ENCODING 44168
SWIDTH 500 0
DWIDTH 16 0
BBX 16 16 0 0
BITMAP
0030
0318
7F98
2318
0318
07F8
0C98
1818
3010
CFFC
0018
00F8
0F18
0418
0010
0000
ENDCHAR
STARTCHAR U+ac89
ENCODING 44169
SWIDTH 500 0
DWIDTH 16 0
BBX 16 16 0 0
BITMAP
0030
0118
7F98
2318
0318
07F8
0C98
1818
3010
C010
0FF8
0600
07F8
0600
03F8
0000
ENDCHAR
STARTCHAR U+ac8a
ENCODING 44170
SWIDTH 500 0
DWIDTH 16 0
BBX 16 16 0 0
BITMAP
0030
0318
7F98
2318
0618
0CF8
1818
3018
C010
0FF8
0000
0C60
0660
0250
1FF8
0000
ENDCHAR
STARTCHAR U+ac8b
ENCODING 44171
SWIDTH 500 0
DWIDTH 16 0
BBX 16 16 0 0
BITMAP
0030
0318
7F98
2318
06F8
0C18
1818
3218
C1F0
0810
07F8
01E0
0210
0210
01E0
0000
ENDCHAR
STARTCHAR U+ac8c
ENCODING 44172
SWIDTH 500 0
DWIDTH 16 0
BBX 16 16 0 0
BITMAP
0020
0018
0118
04D8
7ED8
06D8
06D8
0FD8
0CD8
18D8
30D8
60D8
80D8
0098
0010
0000
ENDCHAR
STARTCHAR U+ac8d
ENCODING 44173
SWIDTH 500 0
DWIDTH 16 0
BBX 16 16 0 0
BITMAP
0020
0198
02D8
7FD8
06D8
07D8
0CD8
18D8
3090
CFFC
0418
0018
0018
0018
0010
0000
ENDCHAR
STARTCHAR U+ac8e
ENCODING 44174
SWIDTH 500 0
DWIDTH 16 0
BBX 16 16 0 0
BITMAP
0020
0118
02D8
7FD8
06D8
07D8
0CD8
18D8
3090
C118
3FFC
1318
0318
0318
0210
0000
ENDCHAR
STARTCHAR U+ac8f
ENCODING 44175
SWIDTH 500 0
DWIDTH 16 0
BBX 16 16 0 0
BITMAP
0020
0118
02D8
7FD8
06D8
07D8
0CD8
1898
3010
C360
3FB0
0330
0330
034C
0284
0000
ENDCHAR
STARTCHAR U+ac90
ENCODING 44176
SWIDTH 500 0
DWIDTH 16 0
BBX 16 16 0 0
BITMAP
0020
0018
0118
04D8
7ED8
26D8
07D8
0CD8
18D8
30D8
C098
1C10
0600
0610
03F8
0000
ENDCHAR
STARTCHAR U+ac91
ENCODING 44177
SWIDTH 500 0
DWIDTH 16 0
BBX 16 16 0 0
BITMAP
0020
0118
02D8
7FD8
06D8
07D8
0CD8
18D8
3098
C010
19FC
0C30
0C70
0CCC
0784
0000
ENDCHAR
STARTCHAR U+ac92
ENCODING 44178
SWIDTH 500 0
DWIDTH 16 0
BBX 16 16 0 0
BITMAP
0020
0118
02D8
7FD8
06D8
07D8
0CD8
1890
3070
C008
33FC
1860
1890
1B90
0C60
0000
ENDCHAR
STARTCHAR U+ac93
ENCODING 44179
SWIDTH 500 0
DWIDTH 16 0
BBX 16 16 0 0
BITMAP
0020
0198
02D8
7FD8
06D8
07D8
0CD8
18D8
30D8
C090
0FF8
0600
0600
0610
03F8
0000
ENDCHAR
STARTCHAR U+ac94
ENCODING 44180
SWIDTH 500 0
DWIDTH 16 0
BBX 16 16 0 0
BITMAP
0020
0118
04D8
7ED8
0CD8
0CD8
1FD8
30D8
6090
8FF8
0010
0FF8
0600
0610
03F8
0000
ENDCHAR
STARTCHAR U+ac95
ENCODING 44181
SWIDTH 500 0
DWIDTH 16 0
BBX 16 16 0 0
BITMAP
0030
0118
02D8
7FD8
06D8
07D8
0CD8
1898
3110
DFFC
0218
3F18
1818
1998
0E10
0000
ENDCHAR
STARTCHAR U+ac96
ENCODING 44182
SWIDTH 500 0
DWIDTH 16 0
BBX 16 16 0 0
BITMAP
0030
0118
02D8
7FD8
06D8
07D8
0CD8
1898
3010
FFFC
0298
3F98
1890
19F8
0E80
0000
ENDCHAR
STARTCHAR U+ac97
ENCODING 44183
SWIDTH 500 0
DWIDTH 16 0
BBX 16 16 0 0
BITMAP
0030
0118
02D8
7FD8
06D8
07D8
0CD8
1898
3230
FF18
02F8
3F98
1898
19F8
0E90
0000
ENDCHAR
STARTCHAR U+ac98
ENCODING 44184
SWIDTH 500 0
DWIDTH 16 0
BBX 16 16 0 0
BITMAP
0030
0118
02D8
7FD8
06D8
07D8
0CD8
1898
3010
FF60
0230
3F30
1870
19CC
0E04
0000
ENDCHAR
STARTCHAR U+ac99
ENCODING 44185
SWIDTH 500 0
DWIDTH 16 0
BBX 16 16 0 0
BITMAP
0030
0118
02D8
7FD8
06D8
07D8
0CD8
1898
3110
DFF8
02C0
1FF8
0CC0
0DD0
0678
0000
ENDCHAR
STARTCHAR U+ac9a
ENCODING 44186
SWIDTH 500 0
DWIDTH 16 0
BBX 16 16 0 0
BITMAP
0030
0118
02D8
7FD8
06D8
07D8
0CD8
1898
3210
FFFC
0200
3F98
18D8
1950
0EFC
0000
ENDCHAR
STARTCHAR U+ac9b
ENCODING 44187
SWIDTH 500 0
DWIDTH 16 0
BBX 16 16 0 0
BITMAP
0030
0118
02D8
7FD8
06D8
07D8
0CD8
1890
3170
DF88
01FC
1F70
0888
0988
0670
0000
ENDCHAR
STARTCHAR U+ac9c
ENCODING 44188
SWIDTH 500 0
DWIDTH 16 0
BBX 16 16 0 0
BITMAP
0020
0198
02D8
7FD8
06D8
07D8
0CD8
18D8
30D8
C090
0FFC
0618
0618
0610
07F8
0400
ENDCHAR
STARTCHAR U+ac9d
ENCODING 44189
SWIDTH 500 0
DWIDTH 16 0
BBX 16 16 0 0
BITMAP
0020
0198
02D8
7FD8
06D8
07D8
0CD8
18D8
30D8
C0B0
0C18
07F8
0618
0618
07F8
0410
ENDCHAR
STARTCHAR U+ac9e
ENCODING 44190
SWIDTH 500 0
DWIDTH 16 0
BBX 16 16 0 0
BITMAP
0030
0118
02D8
7FD8
06D8
07D8
0CD8
18D8
3098
C610
3160
1930
1F30
1958
1FCC
1180
ENDCHAR
STARTCHAR U+ac9f
ENCODING 44191
SWIDTH 500 0
DWIDTH 16 0
BBX 16 16 0 0
BITMAP
0020
0118
00D8
04D8
7ED8
26D8
07D8
0CD8
1898
3198
C0D0
0080
01C0
0320
0610
1818
ENDCHAR
STARTCHAR U+aca0
ENCODING 44192
SWIDTH 500 0
DWIDTH 16 0
BBX 16 16 0 0
BITMAP
0020
0118
04D8
7ED8
26D8
06D8
0FD8
18D8
3090
C330
0110
0330
0770
0DC8
330C
0000
ENDCHAR
STARTCHAR U+aca1
ENCODING 44193
SWIDTH 500 0
DWIDTH 16 0
BBX 16 16 0 0
BITMAP
0020
0198
02D8
7FD8
06D8
07D8
0CD8
18D8
3098
C0D0
0330
0618
0618
0330
00C0
0000
ENDCHAR
STARTCHAR U+aca2
ENCODING 44194
SWIDTH 500 0
DWIDTH 16 0
BBX 16 16 0 0
BITMAP
0020
0198
02D8
7FD8
06D8
07D8
0CD8
18D8
30D8
D090
0FF8
0180
0360
0638
1818
0000
ENDCHAR
STARTCHAR U+aca3
ENCODING 44195
SWIDTH 500 0
DWIDTH 16 0
BBX 16 16 0 0
BITMAP
0020
0198
02D8
7FD8
06D8
07D8
0CD8
18D8
3090
C3F0
1010
0FF8
00C0
01A0
0630
0000
ENDCHAR
STARTCHAR U+aca4
ENCODING 44196
SWIDTH 500 0
DWIDTH 16 0
BBX 16 16 0 0
BITMAP
0030
0118
02D8
7FD8
06D8
07D8
0CD8
1898
3010
CFFC
0018
00F8
0F18
0418
0010
0000
ENDCHAR
STARTCHAR U+aca5
ENCODING 44197
SWIDTH 500 0
DWIDTH 16 0
BBX 16 16 0 0
BITMAP
0020
0198
02D8
7FD8
06D8
07D8
0CD8
18D8
3090
CFF8
0600
07F8
0600
0610
03F8
0000
ENDCHAR
STARTCHAR U+aca6
ENCODING 44198
SWIDTH 500 0
DWIDTH 16 0
BBX 16 16 0 0
BITMAP
0020
0198
02D8
7FD8
06D8
07D8
0CD8
18D8
3090
CFF8
0060
0630
0330
1120
0FF8
0000
ENDCHAR
STARTCHAR U+aca7
ENCODING 44199
SWIDTH 500 0
DWIDTH 16 0
BBX 16 16 0 0
BITMAP
0030
0198
02D8
7FD8
06D8
07D8
0C98
1818
33F0
D010
0FF8
01C0
0220
0220
01C0
0000
ENDCHAR
STARTCHAR U+aca8
ENCODING 44200
SWIDTH 500 0
DWIDTH 16 0
BBX 16 16 0 0
BITMAP
0020
0018
0318
7F98
2318
03F8
0618
0618
0DF8
1898
3018
C018
0018
0018
0010
0000
ENDCHAR
STARTCHAR U+aca9
ENCODING 44201
SWIDTH 500 0
DWIDTH 16 0
BBX 16 16 0 0
BITMAP
0030
0118
7F98
23F8
0318
0618
0FF8
1918
3010
DFF8
0818
0018
0018
0018
0010
0000
ENDCHAR
STARTCHAR U+acaa
ENCODING 44202
SWIDTH 500 0
DWIDTH 16 0
BBX 16 16 0 0
BITMAP
0030
0118
7F98
23F8
0318
0618
0DF8
1818
3110
DFF8
0318
0318
0318
0318
0210
0000
ENDCHAR
STARTCHAR U+acab
ENCODING 44203
SWIDTH 500 0
DWIDTH 16 0
BBX 16 16 0 0
BITMAP
0030
0118
7F98
23F8
0318
0618
0DF8
1818
3010
C360
3FB0
0330
0330
034C
0284
0000
ENDCHAR
STARTCHAR U+acac
ENCODING 44204
SWIDTH 500 0
DWIDTH 16 0
BBX 16 16 0 0
BITMAP
0020
0018
0118
7F98
23F8
0318
0618
0DF8
1818
2018
C018
1C10
0600
0610
03F8
0000
ENDCHAR
STARTCHAR U+acad
ENCODING 44205
SWIDTH 500 0
DWIDTH 16 0
BBX 16 16 0 0
BITMAP
0030
0118
7F98
23F8
0318
0618
0DF8
1818
3018
C010
19FC
0C30
0C70
0CCC
0784
0000
ENDCHAR
STARTCHAR U+acae
ENCODING 44206
SWIDTH 500 0
DWIDTH 16 0
BBX 16 16 0 0
BITMAP
0030
0118
7F98
23F8
0318
0618
0DF8
1810
30F0
C008
33FC
1860
1890
1B90
0C60
0000
ENDCHAR
STARTCHAR U+acaf
ENCODING 44207
SWIDTH 500 0
DWIDTH 16 0
BBX 16 16 0 0
BITMAP
0030
0318
7F98
23F8
0618
0C18
19F8
3018
C018
0010
0FF8
0600
0600
0610
03F8
0000
ENDCHAR
STARTCHAR U+acb0
ENCODING 44208
SWIDTH 500 0
DWIDTH 16 0
BBX 16 16 0 0
BITMAP
0030
0118
7F98
23F8
0318
0618
0DF8
1818
3010
CFF8
0010
0FF8
0600
0610
03F8
0000
ENDCHAR
STARTCHAR U+acb1
ENCODING 44209
SWIDTH 500 0
DWIDTH 16 0
BBX 16 16 0 0
BITMAP
0030
0118
7F98
23F8
0318
0618
0DF8
1818
3110
FFFC
0218
3F18
1818
1998
0E10
0000
ENDCHAR
STARTCHAR U+acb2
ENCODING 44210
SWIDTH 500 0
DWIDTH 16 0
BBX 16 16 0 0
BITMAP
0030
0118
7F98
23F8
0318
0618
0DF8
1818
3010
FFFC
0298
3F98
1890
19F8
0E80
0000
ENDCHAR
STARTCHAR U+acb3
ENCODING 44211
SWIDTH 500 0
DWIDTH 16 0
BBX 16 16 0 0
BITMAP
0030
0118
7F98
23F8
0318
0618
0DF8
1818
3230
FF18
02F8
3F98
1898
19F8
0E90
0000
ENDCHAR
STARTCHAR U+acb4
ENCODING 44212
SWIDTH 500 0
DWIDTH 16 0
BBX 16 16 0 0
BITMAP
0030
0118
7F98
23F8
0318
0618
0DF8
1818
3010
FF60
0230
3F30
1870
19CC
0E04
0000
ENDCHAR
STARTCHAR U+acb5
ENCODING 44213
SWIDTH 500 0
DWIDTH 16 0
BBX 16 16 0 0
BITMAP
0030
0118
7F98
23F8
0318
0618
0DF8
1818
3110
DFF8
02C0
1FF8
0CC0
0DD0
0678
0000
ENDCHAR
STARTCHAR U+acb6
ENCODING 44214
SWIDTH 500 0
DWIDTH 16 0
BBX 16 16 0 0
BITMAP
0030
0118
7F98
23F8
0318
0618
0DF8
1818
3210
FFFC
0200
3F98
18D8
1950
0EFC
0000
ENDCHAR
STARTCHAR U+acb7
ENCODING 44215
SWIDTH 500 0
DWIDTH 16 0
BBX 16 16 0 0
BITMAP
0030
0118
7F98
23F8
0318
0618
0DF8
1810
3170
DF88
01FC
1F70
0888
0988
0670
0000
ENDCHAR
STARTCHAR U+acb8
ENCODING 44216
SWIDTH 500 0
DWIDTH 16 0
BBX 16 16 0 0
BITMAP
0030
0118
7F98
23F8
0318
0618
0DF8
1818
3010
C008
0FFC
0618
0618
0610
07F8
0400
ENDCHAR
STARTCHAR U+acb9
ENCODING 44217
SWIDTH 500 0
DWIDTH 16 0
BBX 16 16 0 0
BITMAP
0030
0118
7F98
23F8
0318
0618
0DF8
1818
3018
C030
0C18
07F8
0618
0618
07F8
0410
ENDCHAR
STARTCHAR U+acba
ENCODING 44218
SWIDTH 500 0
DWIDTH 16 0
BBX 16 16 0 0
BITMAP
0030
0118
7F98
23F8
0318
0618
0DF8
1818
3010
C200
3160
1930
1F30
1958
1FCC
1180
ENDCHAR
STARTCHAR U+acbb
ENCODING 44219
SWIDTH 500 0
DWIDTH 16 0
BBX 16 16 0 0
BITMAP
0020
0318
7F98
23F8
0618
0C18
19F8
3018
C018
0198
00D0
0180
0360
0638
1818
0000
ENDCHAR
STARTCHAR U+acbc
ENCODING 44220
SWIDTH 500 0
DWIDTH 16 0
BBX 16 16 0 0
BITMAP
0030
0118
7F98
23F8
0318
0618
0DF8
1818
3010
C220
0110
0330
0670
0DC8
330C
0000
ENDCHAR
STARTCHAR U+acbd
ENCODING 44221
SWIDTH 500 0
DWIDTH 16 0
BBX 16 16 0 0
BITMAP
0030
0118
7F98
23F8
0318
0618
0DF8
1818
3010
C0C0
0330
0618
0618
0330
00C0
0000
ENDCHAR
STARTCHAR U+acbe
ENCODING 44222
SWIDTH 500 0
DWIDTH 16 0
BBX 16 16 0 0
BITMAP
0030
0118
7F98
23F8
0318
0618
0DF8
1818
3018
C010
1FF8
0980
0340
0630
1818
0000
ENDCHAR
STARTCHAR U+acbf
ENCODING 44223
SWIDTH 500 0
DWIDTH 16 0
BBX 16 16 0 0
BITMAP
0030
0118
7F98
23F8
0318
0618
0DF8
1818
33F0
D010
0FF8
00C0
0180
0370
0C18
0000
ENDCHAR
STARTCHAR U+acc0
ENCODING 44224
SWIDTH 500 0
DWIDTH 16 0
BBX 16 16 0 0
BITMAP
0030
0118
7F98
23F8
0318
0618
0DF8
1818
3010
DFFC
0018
00F8
1F18
0818
0010
0000
ENDCHAR
STARTCHAR U+acc1
ENCODING 44225
SWIDTH 500 0
DWIDTH 16 0
BBX 16 16 0 0
BITMAP
0030
0118
7F98
23F8
0318
0618
0DF8
1818
3010
CFF8
0600
07F8
0600
0610
03F8
0000
ENDCHAR
STARTCHAR U+acc2
ENCODING 44226
SWIDTH 500 0
DWIDTH 16 0
BBX 16 16 0 0
BITMAP
0030
0318
7F98
23F8
0618
0C18
19F8
3018
C018
1010
0FF8
0000
0330
1120
0FF8
0000
ENDCHAR
STARTCHAR U+acc3
ENCODING 44227
SWIDTH 500 0
DWIDTH 16 0
BBX 16 16 0 0
BITMAP
0030
0118
7F98
23F8
0318
0618
0DF8
1818
3198
C0D0
0FF8
01C0
0220
0220
01C0
0000
ENDCHAR
STARTCHAR U+acc4
ENCODING 44228
SWIDTH 500 0
DWIDTH 16 0
BBX 16 16 0 0
BITMAP
0020
0098
0058
0458
7E58
07D8
0658
0C58
0FD8
1858
3058
C058
0058
0058
0010
0000
ENDCHAR
STARTCHAR U+acc5
ENCODING 44229
SWIDTH 500 0
DWIDTH 16 0
BBX 16 16 0 0
BITMAP
0020
0198
04D8
7ED8
0FD8
0CD8
18D8
37D8
7090
8FFC
0418
0018
0018
0018
0010
0000
ENDCHAR
STARTCHAR U+acc6
ENCODING 44230
SWIDTH 500 0
DWIDTH 16 0
BBX 16 16 0 0
BITMAP
0020
0118
04D8
7ED8
0FD8
0CD8
18D8
37D8
6090
8118
3FFC
1318
0318
0318
0210
0000
ENDCHAR
STARTCHAR U+acc7
ENCODING 44231
SWIDTH 500 0
DWIDTH 16 0
BBX 16 16 0 0
BITMAP
0020
0118
04D8
7ED8
0FD8
0CD8
18D8
37D8
6090
8360
3FB0
0330
0330
034C
0284
0000
ENDCHAR
STARTCHAR U+acc8
ENCODING 44232
SWIDTH 500 0
DWIDTH 16 0
BBX 16 16 0 0
BITMAP
0020
0198
04D8
7ED8
07D8
0CD8
18D8
37D8
60D8
80D8
0098
0C10
0600
0610
03F8
0000
ENDCHAR
STARTCHAR U+acc9
ENCODING 44233
SWIDTH 500 0
DWIDTH 16 0
BBX 16 16 0 0
BITMAP
0020
0118
04D8
7ED8
0FD8
0CD8
18D8
37D8
6098
8010
19FC
0C30
0C70
0CCC
0784
0000
ENDCHAR
STARTCHAR U+acca
ENCODING 44234
SWIDTH 500 0
DWIDTH 16 0
BBX 16 16 0 0
BITMAP
0020
0118
04D8
7ED8
0FD8
0CD8
18D8
37D8
6090
8070
3008
1BFC
1860
1B90
0C60
0000
ENDCHAR
STARTCHAR U+accb
ENCODING 44235
SWIDTH 500 0
DWIDTH 16 0
BBX 16 16 0 0
BITMAP
0020
0198
04D8
7ED8
0FD8
0CD8
18D8
37D8
60D8
8090
0FF8
0600
0600
0610
03F8
0000
ENDCHAR
STARTCHAR U+accc
ENCODING 44236
SWIDTH 500 0
DWIDTH 16 0
BBX 16 16 0 0
BITMAP
0020
0198
04D8
7ED8
0FD8
0CD8
18D8
37D8
60D8
8090
0FF8
0010
0FF8
0600
0610
03F8
ENDCHAR
STARTCHAR U+accd
ENCODING 44237
SWIDTH 500 0
DWIDTH 16 0
BBX 16 16 0 0
BITMAP
0030
0118
04D8
7ED8
0FD8
0CD8
18D8
37D8
60D8
8290
1FFC
0218
3F18
1818
1998
0E10
ENDCHAR
STARTCHAR U+acce
ENCODING 44238
SWIDTH 500 0
DWIDTH 16 0
BBX 16 16 0 0
BITMAP
0030
0118
04D8
7ED8
0FD8
0CD8
18D8
37D8
60D8
8290
3FFC
0298
3F98
1890
19F8
0E80
ENDCHAR
STARTCHAR U+accf
ENCODING 44239
SWIDTH 500 0
DWIDTH 16 0
BBX 16 16 0 0
BITMAP
0030
0118
04D8
7ED8
0FD8
0CD8
18D8
37D8
60D8
84B0
3F18
02F8
3F98
1898
19F8
0E90
ENDCHAR
STARTCHAR U+acd0
ENCODING 44240
SWIDTH 500 0
DWIDTH 16 0
BBX 16 16 0 0
BITMAP
0020
0118
04D8
7ED8
0FD8
0CD8
18D8
37D8
60D8
8090
3F60
0230
3F30
1870
19CC
0E04
ENDCHAR
STARTCHAR U+acd1
ENCODING 44241
SWIDTH 500 0
DWIDTH 16 0
BBX 16 16 0 0
BITMAP
0020
0118
04D8
7ED8
0FD8
0CD8
18D8
37D8
6098
8110
1FF8
02C0
1FF8
0CC0
0DD0
0678
ENDCHAR
STARTCHAR U+acd2
ENCODING 44242
SWIDTH 500 0
DWIDTH 16 0
BBX 16 16 0 0
BITMAP
0030
0118
04D8
7ED8
0FD8
0CD8
18D8
37D8
6098
8210
3FFC
0200
3F98
18D8
1950
0EFC
ENDCHAR
STARTCHAR U+acd3
ENCODING 44243
SWIDTH 500 0
DWIDTH 16 0
BBX 16 16 0 0
BITMAP
0030
0118
04D8
7ED8
0FD8
0CD8
18D8
37D8
6090
8170
1F88
01FC
1F70
0888
0988
0670
ENDCHAR
STARTCHAR U+acd4
ENCODING 44244
SWIDTH 500 0
DWIDTH 16 0
BBX 16 16 0 0
BITMAP
0020
0198
04D8
7ED8
0FD8
0CD8
18D8
37D8
60D8
8090
0FFC
0618
0618
0610
07F8
0400
ENDCHAR
STARTCHAR U+acd5
ENCODING 44245
SWIDTH 500 0
DWIDTH 16 0
BBX 16 16 0 0
BITMAP
0020
0198
04D8
7ED8
0FD8
0CD8
18D8
37D8
60D8
80B0
0C18
07F8
0618
0618
07F8
0410
ENDCHAR
STARTCHAR U+acd6
ENCODING 44246
SWIDTH 500 0
DWIDTH 16 0
BBX 16 16 0 0
BITMAP
0030
0118
04D8
7ED8
0FD8
0CD8
18D8
37D8
6098
8610
3160
1930
1F30
1958
1FCC
1180
ENDCHAR
STARTCHAR U+acd7
ENCODING 44247
SWIDTH 500 0
DWIDTH 16 0
BBX 16 16 0 0
BITMAP
0020
0198
04D8
7ED8
0FD8
0CD8
18D8
37D8
60D8
8198
00D0
0080
01C0
0330
0C18
0000
ENDCHAR
STARTCHAR U+acd8
ENCODING 44248
SWIDTH 500 0
DWIDTH 16 0
BBX 16 16 0 0
BITMAP
0020
0198
04D8
7ED8
0FD8
0CD8
18D8
37D8
60D8
8090
0660
0330
0660
0DD8
3308
0000
ENDCHAR
STARTCHAR U+acd9
ENCODING 44249
SWIDTH 500 0
DWIDTH 16 0
BBX 16 16 0 0
BITMAP
0020
0198
04D8
7ED8
0FD8
0CD8
18D8
37D8
6098
80D0
0330
0618
0618
0330
00C0
0000
ENDCHAR
STARTCHAR U+acda
ENCODING 44250
SWIDTH 500 0
DWIDTH 16 0
BBX 16 16 0 0
BITMAP
0020
0198
04D8
7ED8
0FD8
0CD8
18D8
37D8
60D8
9090
0FF8
0180
0360
0638
1818
0000
ENDCHAR
STARTCHAR U+acdb
ENCODING 44251
SWIDTH 500 0
DWIDTH 16 0
BBX 16 16 0 0
BITMAP
0020
0198
04D8
7ED8
0FD8
0CD8
18D8
37D8
6090
81F0
0808
07FC
00C0
01B0
0618
0000
ENDCHAR
STARTCHAR U+acdc
ENCODING 44252
SWIDTH 500 0
DWIDTH 16 0
BBX 16 16 0 0
BITMAP
0030
0118
04D8
7ED8
0FD8
0CD8
18D8
3798
6010
8FFC
0018
00F8
0F18
0418
0010
0000
ENDCHAR
STARTCHAR U+acdd
ENCODING 44253
SWIDTH 500 0
DWIDTH 16 0
BBX 16 16 0 0
BITMAP
0020
0198
04D8
7ED8
0FD8
0CD8
18D8
37D8
6090
8FF8
0600
07F8
0600
0610
03F8
0000
ENDCHAR
STARTCHAR U+acde
ENCODING 44254
SWIDTH 500 0
DWIDTH 16 0
BBX 16 16 0 0
BITMAP
0020
0198
04D8
7ED8
0FD8
0CD8
18D8
37D8
6090
8FF8
0060
0630
0330
1120
0FF8
0000
ENDCHAR
STARTCHAR U+acdf
ENCODING 44255
SWIDTH 500 0
DWIDTH 16 0
BBX 16 16 0 0
BITMAP
0030
0198
04D8
7ED8
0FD8
0CD8
18D8
37D8
6098
83F0
1010
0FF8
01C0
0220
0220
01C0
ENDCHAR
STARTCHAR U+ace0
ENCODING 44256
SWIDTH 500 0
DWIDTH 16 0
BBX 16 15 0 0
BITMAP
2030
1FF8
0030
0030
0030
0630
0320
0320
8344
7FFE
2000
0000
0000
0000
0000
ENDCHAR
STARTCHAR U+ace1
ENCODING 44257
SWIDTH 500 0
DWIDTH 16 0
BBX 16 16 0 0
BITMAP
2030
1FF8
0030
0620
0320
8344
7FFE
2000
0030
3FF8
1030
0030
0030
0030
0020
0000
ENDCHAR
STARTCHAR U+ace2
ENCODING 44258
SWIDTH 500 0
DWIDTH 16 0
BBX 16 16 0 0
BITMAP
2030
1FF8
0030
0620
0320
8344
7FFE
2000
0108
3FFC
1318
0318
0318
0318
0210
0000
ENDCHAR
STARTCHAR U+ace3
ENCODING 44259
SWIDTH 500 0
DWIDTH 16 0
BBX 16 16 0 0
BITMAP
2030
1FF8
0030
0620
0320
8344
7FFE
2000
0300
3FE0
0330
0360
02D0
038C
0304
0000
ENDCHAR
STARTCHAR U+ace4
ENCODING 44260
SWIDTH 500 0
DWIDTH 16 0
BBX 16 15 0 0
BITMAP
2030
1FF8
0030
0030
0620
0320
8344
7FFE
2000
0000
3800
0C00
0C20
07F0
0000
ENDCHAR
STARTCHAR U+ace5
ENCODING 44261
SWIDTH 500 0
DWIDTH 16 0
BBX 16 16 0 0
BITMAP
2030
1FF8
0030
0620
0320
8344
7FFE
2000
0000
0000
33F8
1860
18E0
1998
0F08
0000
ENDCHAR
STARTCHAR U+ace6
ENCODING 44262
SWIDTH 500 0
DWIDTH 16 0
BBX 16 16 0 0
BITMAP
2030
1FF8
0030
0620
0320
8344
7FFE
2000
00F0
0208
31FC
1870
1888
1B88
0C70
0000
ENDCHAR
STARTCHAR U+ace7
ENCODING 44263
SWIDTH 500 0
DWIDTH 16 0
BBX 16 16 0 0
BITMAP
2030
1FF8
0030
0630
0320
0320
8344
7FFE
2000
0020
1FF0
0C00
0C00
0C20
07F0
0000
ENDCHAR
STARTCHAR U+ace8
ENCODING 44264
SWIDTH 500 0
DWIDTH 16 0
BBX 16 16 0 0
BITMAP
2030
1FF8
0030
0620
0320
8344
7FFE
2000
0020
1FF0
0020
1FF0
0C00
0C20
07F0
0000
ENDCHAR
STARTCHAR U+ace9
ENCODING 44265
SWIDTH 500 0
DWIDTH 16 0
BBX 16 16 0 0
BITMAP
2030
1FF8
0030
0620
0320
8344
7FFE
2000
0108
1FFC
0118
1F18
0C18
0D98
0610
0000
ENDCHAR
STARTCHAR U+acea
ENCODING 44266
SWIDTH 500 0
DWIDTH 16 0
BBX 16 16 0 0
BITMAP
2030
1FF8
0030
0620
0320
8344
7FFE
0000
0108
3FFC
0298
3F98
1890
1FF8
0C80
0000
ENDCHAR
STARTCHAR U+aceb
ENCODING 44267
SWIDTH 500 0
DWIDTH 16 0
BBX 16 16 0 0
BITMAP
2030
1FF8
0030
0620
0320
8344
7FFE
2000
0230
3F18
02F8
3F98
1898
19F8
0E90
0000
ENDCHAR
STARTCHAR U+acec
ENCODING 44268
SWIDTH 500 0
DWIDTH 16 0
BBX 16 16 0 0
BITMAP
2030
1FF8
0030
0630
0320
8344
7FFE
2000
0200
3F60
0230
3F60
1850
198C
0F04
0000
ENDCHAR
STARTCHAR U+aced
ENCODING 44269
SWIDTH 500 0
DWIDTH 16 0
BBX 16 16 0 0
BITMAP
2030
1FF8
0030
0620
0320
8344
7FFE
2000
0008
1FFC
0140
1FF8
0C40
0DD0
0638
0000
ENDCHAR
STARTCHAR U+acee
ENCODING 44270
SWIDTH 500 0
DWIDTH 16 0
BBX 16 16 0 0
BITMAP
2030
1FF8
0030
0620
0320
8344
7FFE
2000
0200
3FFC
0200
3F98
18D8
1950
0EFC
0000
ENDCHAR
STARTCHAR U+acef
ENCODING 44271
SWIDTH 500 0
DWIDTH 16 0
BBX 16 16 0 0
BITMAP
2030
1FF8
0030
0630
0320
8344
7FFE
2000
0270
3F08
02FC
3F70
1888
1988
0E70
0000
ENDCHAR
STARTCHAR U+acf0
ENCODING 44272
SWIDTH 500 0
DWIDTH 16 0
BBX 16 16 0 0
BITMAP
2030
1FF8
0030
0620
0320
8344
7FFE
2000
0010
1FF8
0C30
0C30
0C20
0FF0
0800
0000
ENDCHAR
STARTCHAR U+acf1
ENCODING 44273
SWIDTH 500 0
DWIDTH 16 0
BBX 16 16 0 0
BITMAP
2030
1FF8
0030
0620
0320
8344
7FFE
2000
0060
1830
0FF0
0C30
0C30
0FF0
0820
0000
ENDCHAR
STARTCHAR U+acf2
ENCODING 44274
SWIDTH 500 0
DWIDTH 16 0
BBX 16 16 0 0
BITMAP
2030
1FF8
0030
0620
0320
8344
7FFE
2000
0200
3160
1930
1F30
1958
1FCC
1180
0000
ENDCHAR
STARTCHAR U+acf3
ENCODING 44275
SWIDTH 500 0
DWIDTH 16 0
BBX 16 16 0 0
BITMAP
2030
1FF8
0030
0630
0320
0320
8344
7FFE
2000
0300
0100
0300
0680
0C60
3030
0000
ENDCHAR
STARTCHAR U+acf4
ENCODING 44276
SWIDTH 500 0
DWIDTH 16 0
BBX 16 16 0 0
BITMAP
2030
1FF8
0030
0620
0320
8344
7FFE
2000
0000
0080
0660
0330
0660
0DD8
3308
0000
ENDCHAR
STARTCHAR U+acf5
ENCODING 44277
SWIDTH 500 0
DWIDTH 16 0
BBX 16 16 0 0
BITMAP
2030
1FF8
0030
0630
0320
0320
8344
7FFE
2000
0380
0C60
1830
1830
0C60
0380
0000
ENDCHAR
STARTCHAR U+acf6
ENCODING 44278
SWIDTH 500 0
DWIDTH 16 0
BBX 16 16 0 0
BITMAP
2030
1FF8
0030
0630
0320
8344
7FFE
2000
0010
3FF8
1100
0380
06C0
0C70
3030
0000
ENDCHAR
STARTCHAR U+acf7
ENCODING 44279
SWIDTH 500 0
DWIDTH 16 0
BBX 16 16 0 0
BITMAP
2030
1FF8
0030
0630
0320
8344
7FFE
2000
07C0
2010
1FF8
0180
0380
0660
1830
0000
ENDCHAR
STARTCHAR U+acf8
ENCODING 44280
SWIDTH 500 0
DWIDTH 16 0
BBX 16 16 0 0
BITMAP
2030
1FF8
0030
0620
0320
8344
7FFE
2000
0030
1FF8
0030
01F0
1E30
0830
0020
0000
ENDCHAR
STARTCHAR U+acf9
ENCODING 44281
SWIDTH 500 0
DWIDTH 16 0
BBX 16 16 0 0
BITMAP
2030
1FF8
0030
0620
0320
8344
7FFE
2000
0020
1FF0
0C00
0FF0
0C00
0C20
07F0
0000
ENDCHAR
STARTCHAR U+acfa
ENCODING 44282
SWIDTH 500 0
DWIDTH 16 0
BBX 16 16 0 0
BITMAP
2030
1FF8
0030
0630
0320
8344
7FFE
2000
2010
1FF8
00C0
0C60
0660
2250
1FF8
0000
ENDCHAR
STARTCHAR U+acfb
ENCODING 44283
SWIDTH 500 0
DWIDTH 16 0
BBX 16 16 0 0
BITMAP
2030
1FF8
0030
0630
0320
8344
7FFE
2000
03C0
2010
1FF8
0380
0440
0440
0380
0000
ENDCHAR
STARTCHAR U+acfc
ENCODING 44284
SWIDTH 500 0
DWIDTH 16 0
BBX 16 16 0 0
BITMAP
0020
0018
0018
4198
3FD8
0198
0198
311E
1938
9AD8
7F18
2018
0018
0018
0010
0000
ENDCHAR
STARTCHAR U+acfd
ENCODING 44285
SWIDTH 500 0
DWIDTH 16 0
BBX 16 16 0 0
BITMAP
0030
4198
3FD8
0198
3198
191E
19F8
FF10
4008
1FFC
0818
0018
0018
0018
0010
0000
ENDCHAR
STARTCHAR U+acfe
ENCODING 44286
SWIDTH 500 0
DWIDTH 16 0
BBX 16 16 0 0
BITMAP
0030
4198
3FD8
0198
3198
191E
19F8
FF10
4000
0118
3FFC
1318
0318
0318
0210
0000
ENDCHAR
STARTCHAR U+acff
ENCODING 44287
SWIDTH 500 0
DWIDTH 16 0
BBX 16 16 0 0
BITMAP
0030
4198
3FD8
0198
3198
191E
19F8
FF10
4000
0360
3FB0
0330
0330
034C
0284
0000
ENDCHAR
STARTCHAR U+ad00
ENCODING 44288
SWIDTH 500 0
DWIDTH 16 0
BBX 16 16 0 0
BITMAP
0020
0018
4198
3FD8
0198
0198
311E
1A18
1AF8
FF18
4018
1C10
0600
0610
03F8
0000
ENDCHAR
STARTCHAR U+ad01
ENCODING 44289
SWIDTH 500 0
DWIDTH 16 0
BBX 16 16 0 0
BITMAP
0030
4198
3FD8
0198
3198
1918
191E
18F8
FF18
4010
19FC
0C30
0C70
0CCC
0784
0000
ENDCHAR
STARTCHAR U+ad02
ENCODING 44290
SWIDTH 500 0
DWIDTH 16 0
BBX 16 16 0 0
BITMAP
0030
4198
3FD8
0198
3198
191E
19F8
FF10
4070
0008
33FC
1860
1890
1B90
0C60
0000
ENDCHAR
STARTCHAR U+ad03
ENCODING 44291
SWIDTH 500 0
DWIDTH 16 0
BBX 16 16 0 0
BITMAP
0030
4198
3FD8
0198
3198
1918
191E
19F8
FE18
4010
0FF8
0600
0600
0610
03F8
0000
ENDCHAR
STARTCHAR U+ad04
ENCODING 44292
SWIDTH 500 0
DWIDTH 16 0
BBX 16 16 0 0
BITMAP
0030
4198
3FD8
0198
3198
1918
1A7E
FF98
4010
0FF8
0010
0FF8
0600
0610
03F8
0000
ENDCHAR
STARTCHAR U+ad05
ENCODING 44293
SWIDTH 500 0
DWIDTH 16 0
BBX 16 16 0 0
BITMAP
0030
4198
3FD8
0198
3198
1918
197E
FF98
4110
1FFC
0218
3F18
1818
1998
0E10
0000
ENDCHAR
STARTCHAR U+ad06
ENCODING 44294
SWIDTH 500 0
DWIDTH 16 0
BBX 16 16 0 0
BITMAP
0030
4198
3FD8
0198
3198
1918
197E
FF98
4010
3FFC
0298
3F98
1890
1BF8
0C00
0000
ENDCHAR
STARTCHAR U+ad07
ENCODING 44295
SWIDTH 500 0
DWIDTH 16 0
BBX 16 16 0 0
BITMAP
0030
4198
3FD8
0198
3198
1918
197E
FF98
42B0
3F18
02F8
3F98
1898
19F8
0E90
0000
ENDCHAR
STARTCHAR U+ad08
ENCODING 44296
SWIDTH 500 0
DWIDTH 16 0
BBX 16 16 0 0
BITMAP
0030
4198
3FD8
0198
3198
1918
197E
FF98
4010
3F60
0230
3F30
1870
19CC
0E04
0000
ENDCHAR
STARTCHAR U+ad09
ENCODING 44297
SWIDTH 500 0
DWIDTH 16 0
BBX 16 16 0 0
BITMAP
0030
4198
3FD8
0198
3198
1918
197E
FF98
4110
3FF8
02C0
3FF8
18C0
19D0
0E78
0000
ENDCHAR
STARTCHAR U+ad0a
ENCODING 44298
SWIDTH 500 0
DWIDTH 16 0
BBX 16 16 0 0
BITMAP
0030
4198
3FD8
0198
3198
1918
197E
FF98
4210
3FFC
0200
3F98
18D8
1950
0EFC
0000
ENDCHAR
STARTCHAR U+ad0b
ENCODING 44299
SWIDTH 500 0
DWIDTH 16 0
BBX 16 16 0 0
BITMAP
0030
4198
3FD8
0198
3198
1918
197E
FF98
4370
1F88
01FC
1F70
0888
0988
0670
0000
ENDCHAR
STARTCHAR U+ad0c
ENCODING 44300
SWIDTH 500 0
DWIDTH 16 0
BBX 16 16 0 0
BITMAP
0030
0198
7FD8
0198
0198
3118
197E
9F98
7818
2010
0FFC
0618
0618
0610
07F8
0400
ENDCHAR
STARTCHAR U+ad0d
ENCODING 44301
SWIDTH 500 0
DWIDTH 16 0
BBX 16 16 0 0
BITMAP
0030
0198
7FD8
0198
0198
3118
197E
9F98
7818
2030
0C18
07F8
0618
0618
07F8
0410
ENDCHAR
STARTCHAR U+ad0e
ENCODING 44302
SWIDTH 500 0
DWIDTH 16 0
BBX 16 16 0 0
BITMAP
0030
4198
3FD8
0198
3198
1918
197E
9F98
7818
2610
3160
1930
1F30
1958
1FCC
1180
ENDCHAR
STARTCHAR U+ad0f
ENCODING 44303
SWIDTH 500 0
DWIDTH 16 0
BBX 16 16 0 0
BITMAP
0020
0198
7FD8
2198
0198
3118
1B1E
1AF8
FF18
4198
00D0
0180
0360
0638
1818
0000
ENDCHAR
STARTCHAR U+ad10
ENCODING 44304
SWIDTH 500 0
DWIDTH 16 0
BBX 16 16 0 0
BITMAP
0030
4198
3FD8
0198
3198
1918
191E
1878
FF90
4660
0330
0320
0670
0CD8
3308
0000
ENDCHAR
STARTCHAR U+ad11
ENCODING 44305
SWIDTH 500 0
DWIDTH 16 0
BBX 16 16 0 0
BITMAP
0020
0018
4198
3FD8
0198
3198
191E
1AF8
FF18
40D0
0330
0618
0618
0330
00C0
0000
ENDCHAR
STARTCHAR U+ad12
ENCODING 44306
SWIDTH 500 0
DWIDTH 16 0
BBX 16 16 0 0
BITMAP
0030
4198
3FD8
0198
3198
1918
197E
FF98
4010
1000
0FF8
0180
0360
0638
1818
0000
ENDCHAR
STARTCHAR U+ad13
ENCODING 44307
SWIDTH 500 0
DWIDTH 16 0
BBX 16 16 0 0
BITMAP
0030
4198
3FD8
0198
3198
1918
197E
FF98
4010
01F0
0808
07FC
00C0
01B0
0618
0000
ENDCHAR
STARTCHAR U+ad14
ENCODING 44308
SWIDTH 500 0
DWIDTH 16 0
BBX 16 16 0 0
BITMAP
0030
4198
3FD8
0198
3198
1918
197E
FF98
4010
0FFC
0018
00F8
0F18
0418
0010
0000
ENDCHAR
STARTCHAR U+ad15
ENCODING 44309
SWIDTH 500 0
DWIDTH 16 0
BBX 16 16 0 0
BITMAP
0030
4198
3FD8
0198
3198
1918
197E
FF98
4010
0FF8
0600
07F8
0600
0610
03F8
0000
ENDCHAR
STARTCHAR U+ad16
ENCODING 44310
SWIDTH 500 0
DWIDTH 16 0
BBX 16 16 0 0
BITMAP
0030
4198
3FD8
0198
3198
1918
197E
FF98
4010
0FF8
0060
0630
0330
1120
0FF8
0000
ENDCHAR
STARTCHAR U+ad17
ENCODING 44311
SWIDTH 500 0
DWIDTH 16 0
BBX 16 16 0 0
BITMAP
0030
4198
3FD8
0198
3198
1918
197E
FF98
43F0
1010
0FF8
01C0
0220
0220
01C0
0000
ENDCHAR
STARTCHAR U+ad18
ENCODING 44312
SWIDTH 500 0
DWIDTH 16 0
BBX 16 16 0 0
BITMAP
0010
008C
006C
426C
3F6C
036C
226C
127C
146C
95EC
7E6C
206C
006C
004C
0008
0000
ENDCHAR
STARTCHAR U+ad19
ENCODING 44313
SWIDTH 500 0
DWIDTH 16 0
BBX 16 16 0 0
BITMAP
0020
0198
04D8
7ED8
06D8
46F8
24D8
2BD8
FC90
4FFC
0418
0018
0018
0018
0010
0000
ENDCHAR
STARTCHAR U+ad1a
ENCODING 44314
SWIDTH 500 0
DWIDTH 16 0
BBX 16 16 0 0
BITMAP
0020
0198
04D8
7ED8
06D8
46F8
24D8
2BD8
FC90
4118
3FFC
1318
0318
0318
0210
0000
ENDCHAR
STARTCHAR U+ad1b
ENCODING 44315
SWIDTH 500 0
DWIDTH 16 0
BBX 16 16 0 0
BITMAP
0020
0198
04D8
7ED8
06D8
46F8
24D8
2BD8
FC90
4360
3FB0
0330
0330
034C
0284
0000
ENDCHAR
STARTCHAR U+ad1c
ENCODING 44316
SWIDTH 500 0
DWIDTH 16 0
BBX 16 16 0 0
BITMAP
0020
0198
00D8
84D8
7ED8
06D8
66F8
34D8
3BD8
FCD8
4098
1C10
0600
0610
03F8
0000
ENDCHAR
STARTCHAR U+ad1d
ENCODING 44317
SWIDTH 500 0
DWIDTH 16 0
BBX 16 16 0 0
BITMAP
0020
0198
04D8
7ED8
06D8
46F8
24D8
2BD8
FC98
4010
19FC
0C30
0C70
0CCC
0784
0000
ENDCHAR
STARTCHAR U+ad1e
ENCODING 44318
SWIDTH 500 0
DWIDTH 16 0
BBX 16 16 0 0
BITMAP
0020
0198
04D8
7ED8
06D8
46F8
24D8
2BD0
FCF0
4008
33F8
1860
1890
1B90
0C60
0000
ENDCHAR
STARTCHAR U+ad1f
ENCODING 44319
SWIDTH 500 0
DWIDTH 16 0
BBX 16 16 0 0
BITMAP
0020
0198
04D8
7ED8
06D8
46F8
24D8
2BD8
FC90
4010
0FF8
0600
0600
0610
03F8
0000
ENDCHAR
STARTCHAR U+ad20
ENCODING 44320
SWIDTH 500 0
DWIDTH 16 0
BBX 16 16 0 0
BITMAP
0020
0198
04D8
7ED8
06D8
46F8
24D8
2BD8
FC90
4FF8
0010
0FF8
0600
0610
03F8
0000
ENDCHAR
STARTCHAR U+ad21
ENCODING 44321
SWIDTH 500 0
DWIDTH 16 0
BBX 16 16 0 0
BITMAP
0020
0198
04D8
7ED8
06D8
46F8
24D8
2BD8
FC90
5FFC
0218
3F18
1818
1998
0E10
0000
ENDCHAR
STARTCHAR U+ad22
ENCODING 44322
SWIDTH 500 0
DWIDTH 16 0
BBX 16 16 0 0
BITMAP
0020
0198
04D8
7ED8
06D8
46F8
24D8
2BD8
FC90
5FFC
0298
3F98
1890
1BF8
0C00
0000
ENDCHAR
STARTCHAR U+ad23
ENCODING 44323
SWIDTH 500 0
DWIDTH 16 0
BBX 16 16 0 0
BITMAP
0020
0198
04D8
7ED8
06D8
46F8
24D8
2BD8
FCB0
5F18
0298
3FF8
1898
19F8
0E90
0000
ENDCHAR
STARTCHAR U+ad24
ENCODING 44324
SWIDTH 500 0
DWIDTH 16 0
BBX 16 16 0 0
BITMAP
0020
0198
04D8
7ED8
06D8
46F8
24D8
2BD8
FC90
5F60
0230
3F30
1870
19CC
0E04
0000
ENDCHAR
STARTCHAR U+ad25
ENCODING 44325
SWIDTH 500 0
DWIDTH 16 0
BBX 16 16 0 0
BITMAP
0020
0198
04D8
7ED8
06D8
46F8
24D8
2BD8
FC90
5FF8
02C0
3FF8
18C0
19D0
0E78
0000
ENDCHAR
STARTCHAR U+ad26
ENCODING 44326
SWIDTH 500 0
DWIDTH 16 0
BBX 16 16 0 0
BITMAP
0020
0198
04D8
7ED8
06D8
46F8
24D8
2BD8
FC90
5FFC
0200
3F98
18D8
1950
0EFC
0000
ENDCHAR
STARTCHAR U+ad27
ENCODING 44327
SWIDTH 500 0
DWIDTH 16 0
BBX 16 16 0 0
BITMAP
0020
0198
04D8
7ED8
06D8
46F8
24D8
2BD8
FC90
5E88
01FC
1F70
0888
0F88
0670
0000
ENDCHAR
STARTCHAR U+ad28
ENCODING 44328
SWIDTH 500 0
DWIDTH 16 0
BBX 16 16 0 0
BITMAP
0020
0198
04D8
7ED8
06D8
46F8
24D8
2BD8
FC90
4018
0FFC
0618
0618
0610
07F8
0400
ENDCHAR
STARTCHAR U+ad29
ENCODING 44329
SWIDTH 500 0
DWIDTH 16 0
BBX 16 16 0 0
BITMAP
0020
0198
04D8
7ED8
06D8
46F8
24D8
2BD8
FC90
4030
0C18
07F8
0618
0618
07F8
0410
ENDCHAR
STARTCHAR U+ad2a
ENCODING 44330
SWIDTH 500 0
DWIDTH 16 0
BBX 16 16 0 0
BITMAP
0020
0198
04D8
7ED8
06D8
46F8
24D8
2BD8
FC98
4010
3260
1930
1F30
1958
1FCC
1180
ENDCHAR
STARTCHAR U+ad2b
ENCODING 44331
SWIDTH 500 0
DWIDTH 16 0
BBX 16 16 0 0
BITMAP
0020
0198
04D8
7ED8
06D8
46D8
24F8
2BD8
FCD8
4198
00D0
0180
0360
0638
1818
0000
ENDCHAR
STARTCHAR U+ad2c
ENCODING 44332
SWIDTH 500 0
DWIDTH 16 0
BBX 16 16 0 0
BITMAP
0020
0198
04D8
7ED8
06D8
46D8
24F8
2BD8
FCD8
4090
0660
0330
0660
0CD8
3308
0000
ENDCHAR
STARTCHAR U+ad2d
ENCODING 44333
SWIDTH 500 0
DWIDTH 16 0
BBX 16 16 0 0
BITMAP
0020
0198
84D8
7ED8
06D8
26F8
14D8
1BD8
FC98
40D0
0330
0618
0618
0330
00C0
0000
ENDCHAR
STARTCHAR U+ad2e
ENCODING 44334
SWIDTH 500 0
DWIDTH 16 0
BBX 16 16 0 0
BITMAP
0020
0198
04D8
7ED8
06D8
46F8
24D8
2BD8
FC90
5000
0FF8
0180
0360
0638
1818
0000
ENDCHAR
STARTCHAR U+ad2f
ENCODING 44335
SWIDTH 500 0
DWIDTH 16 0
BBX 16 16 0 0
BITMAP
0020
0198
04D8
7ED8
06D8
46F8
24D8
2BD8
FC90
41F0
0808
07FC
00C0
01B0
0618
0000
ENDCHAR
STARTCHAR U+ad30
ENCODING 44336
SWIDTH 500 0
DWIDTH 16 0
BBX 16 16 0 0
BITMAP
0020
0198
04D8
7ED8
06D8
46F8
24D8
2BD8
FC90
4FFC
0018
00F8
0F18
0418
0010
0000
ENDCHAR
STARTCHAR U+ad31
ENCODING 44337
SWIDTH 500 0
DWIDTH 16 0
BBX 16 16 0 0
BITMAP
0020
0198
04D8
7ED8
06D8
46F8
24D8
2BD8
FC90
4FF8
0600
07F8
0600
0610
03F8
0000
ENDCHAR
STARTCHAR U+ad32
ENCODING 44338
SWIDTH 500 0
DWIDTH 16 0
BBX 16 16 0 0
BITMAP
0020
0198
04D8
7ED8
06D8
46F8
24D8
2BD8
FC90
4FF8
0060
0630
0330
1120
0FF8
0000
ENDCHAR
STARTCHAR U+ad33
ENCODING 44339
SWIDTH 500 0
DWIDTH 16 0
BBX 16 16 0 0
BITMAP
0020
0198
04D8
7ED8
06D8
46F8
24D8
2BD8
FFF0
5010
0FF8
01C0
0220
0220
01C0
0000
ENDCHAR
STARTCHAR U+ad34
ENCODING 44340
SWIDTH 500 0
DWIDTH 16 0
BBX 16 16 0 0
BITMAP
0020
0018
4198
3FD8
0198
0198
3198
1918
1918
1AF8
FF18
4018
0018
0018
0010
0000
ENDCHAR
STARTCHAR U+ad35
ENCODING 44341
SWIDTH 500 0
DWIDTH 16 0
BBX 16 16 0 0
BITMAP
0030
0198
7FD8
2198
0198
3118
1AF8
FF18
4010
1FFC
0818
0018
0018
0018
0010
0000
ENDCHAR
STARTCHAR U+ad36
ENCODING 44342
SWIDTH 500 0
DWIDTH 16 0
BBX 16 16 0 0
BITMAP
0030
0198
7FD8
2198
0198
3118
1A78
FF98
4210
3FFC
1318
0318
0318
0318
0210
0000
ENDCHAR
STARTCHAR U+ad37
ENCODING 44343
SWIDTH 500 0
DWIDTH 16 0
BBX 16 16 0 0
BITMAP
0030
0198
7FD8
2198
0198
3118
1A78
FF98
4010
0360
3FB0
0360
02D0
038C
0304
0000
ENDCHAR
STARTCHAR U+ad38
ENCODING 44344
SWIDTH 500 0
DWIDTH 16 0
BBX 16 16 0 0
BITMAP
0020
0018
4198
3FD8
0198
0198
3118
1918
1AF8
FF18
4018
1810
0C00
0C10
07F8
0000
ENDCHAR
STARTCHAR U+ad39
ENCODING 44345
SWIDTH 500 0
DWIDTH 16 0
BBX 16 16 0 0
BITMAP
0030
0198
7FD8
2198
0198
3118
1A18
1AF8
FF18
4010
33F8
1860
18E0
1998
0F08
0000
ENDCHAR
STARTCHAR U+ad3a
ENCODING 44346
SWIDTH 500 0
DWIDTH 16 0
BBX 16 16 0 0
BITMAP
0030
0198
7FD8
2198
0198
3118
1A78
FF98
40F0
0208
31FC
1870
1888
1B88
0C70
0000
ENDCHAR
STARTCHAR U+ad3b
ENCODING 44347
SWIDTH 500 0
DWIDTH 16 0
BBX 16 16 0 0
BITMAP
0030
0198
7FD8
2198
0198
3118
1A18
1AF8
FF18
4010
0FF8
0600
0600
0610
03F8
0000
ENDCHAR
STARTCHAR U+ad3c
ENCODING 44348
SWIDTH 500 0
DWIDTH 16 0
BBX 16 16 0 0
BITMAP
0030
0198
7FD8
2198
0198
3118
1A78
FF98
4010
0FF8
0010
0FF8
0600
0610
03F8
0000
ENDCHAR
STARTCHAR U+ad3d
ENCODING 44349
SWIDTH 500 0
DWIDTH 16 0
BBX 16 16 0 0
BITMAP
0030
0198
7FD8
2198
0198
3118
1A78
FF90
4108
1FFC
0118
1F18
0C18
0D98
0610
0000
ENDCHAR
STARTCHAR U+ad3e
ENCODING 44350
SWIDTH 500 0
DWIDTH 16 0
BBX 16 16 0 0
BITMAP
0030
0198
7FD8
2198
0198
3118
1A78
FF90
4108
3FFC
0298
3F98
1890
1FF8
0C80
0000
ENDCHAR
STARTCHAR U+ad3f
ENCODING 44351
SWIDTH 500 0
DWIDTH 16 0
BBX 16 16 0 0
BITMAP
0030
0198
7FD8
2198
0198
3118
1A78
FF98
42B0
3F18
02F8
3F98
1898
19F8
0E90
0000
ENDCHAR
STARTCHAR U+ad40
ENCODING 44352
SWIDTH 500 0
DWIDTH 16 0
BBX 16 16 0 0
BITMAP
0030
0198
7FD8
2198
0198
3118
1A78
FF90
4200
3F60
0230
3F60
1850
198C
0F04
0000
ENDCHAR
STARTCHAR U+ad41
ENCODING 44353
SWIDTH 500 0
DWIDTH 16 0
BBX 16 16 0 0
BITMAP
0030
0198
7FD8
2198
0198
3118
1A78
FF90
4008
1FFC
0140
1FF8
0C40
0DD0
0638
0000
ENDCHAR
STARTCHAR U+ad42
ENCODING 44354
SWIDTH 500 0
DWIDTH 16 0
BBX 16 16 0 0
BITMAP
0030
0198
7FD8
2198
0198
3118
1A78
FF98
4210
3FFC
0200
3F98
18D8
1950
0EFC
0000
ENDCHAR
STARTCHAR U+ad43
ENCODING 44355
SWIDTH 500 0
DWIDTH 16 0
BBX 16 16 0 0
BITMAP
0030
0198
7FD8
2198
0198
3118
1A78
FF98
4218
3F70
0208
3FFC
1870
1988
0E70
0000
ENDCHAR
STARTCHAR U+ad44
ENCODING 44356
SWIDTH 500 0
DWIDTH 16 0
BBX 16 16 0 0
BITMAP
0030
0198
7FD8
2198
0198
3118
1A18
1AF8
FF18
4010
0FFC
0618
0618
0610
07F8
0400
ENDCHAR
STARTCHAR U+ad45
ENCODING 44357
SWIDTH 500 0
DWIDTH 16 0
BBX 16 16 0 0
BITMAP
0030
0198
7FD8
2198
0198
3118
1A18
1AF8
FF18
4030
0C18
07F8
0618
0618
07F8
0410
ENDCHAR
STARTCHAR U+ad46
ENCODING 44358
SWIDTH 500 0
DWIDTH 16 0
BBX 16 16 0 0
BITMAP
0030
0198
7FD8
2198
0198
3118
1A18
1AF8
FF18
4270
3130
1F30
1958
1FCC
1180
0000
ENDCHAR
STARTCHAR U+ad47
ENCODING 44359
SWIDTH 500 0
DWIDTH 16 0
BBX 16 16 0 0
BITMAP
0020
0198
7FD8
2198
0198
3118
1A78
9B98
7C18
2198
0090
0180
0360
0638
1818
0000
ENDCHAR
STARTCHAR U+ad48
ENCODING 44360
SWIDTH 500 0
DWIDTH 16 0
BBX 16 16 0 0
BITMAP
0030
0198
7FD8
2198
0198
3118
1A18
1A78
FF98
4010
0660
0330
0660
0DD8
3308
0000
ENDCHAR
STARTCHAR U+ad49
ENCODING 44361
SWIDTH 500 0
DWIDTH 16 0
BBX 16 16 0 0
BITMAP
0020
4198
3FD8
0198
0198
3118
1918
1AF8
FF18
40D0
0330
0618
0618
0330
00C0
0000
ENDCHAR
STARTCHAR U+ad4a
ENCODING 44362
SWIDTH 500 0
DWIDTH 16 0
BBX 16 16 0 0
BITMAP
0030
0198
7FD8
2198
0198
3118
1AF8
FF18
4010
3FF8
1100
0380
06C0
0C70
3018
0000
ENDCHAR
STARTCHAR U+ad4b
ENCODING 44363
SWIDTH 500 0
DWIDTH 16 0
BBX 16 16 0 0
BITMAP
0030
0198
7FD8
2198
0198
3118
1AF8
FF18
47D8
0010
3FF8
0180
0380
0660
1838
0000
ENDCHAR
STARTCHAR U+ad4c
ENCODING 44364
SWIDTH 500 0
DWIDTH 16 0
BBX 16 16 0 0
BITMAP
0030
0198
7FD8
2198
0198
3118
1A18
1AF8
FF18
4010
1FFC
0018
0FF8
0418
0018
0010
ENDCHAR
STARTCHAR U+ad4d
ENCODING 44365
SWIDTH 500 0
DWIDTH 16 0
BBX 16 16 0 0
BITMAP
0030
0198
7FD8
2198
0198
3118
1A18
1AF8
FF18
4030
0FF8
0600
07F8
0600
0610
03F8
ENDCHAR
STARTCHAR U+ad4e
ENCODING 44366
SWIDTH 500 0
DWIDTH 16 0
BBX 16 16 0 0
BITMAP
0030
0198
7FD8
2198
0198
3118
1AF8
FF18
6010
1FF8
0060
0630
0330
2120
1FF8
0000
ENDCHAR
STARTCHAR U+ad4f
ENCODING 44367
SWIDTH 500 0
DWIDTH 16 0
BBX 16 16 0 0
BITMAP
0030
0198
7FD8
2198
0198
3118
1AF8
FF18
43D8
1010
0FF8
01C0
0220
0220
01C0
0000
ENDCHAR
STARTCHAR U+ad50
ENCODING 44368
SWIDTH 500 0
DWIDTH 16 0
BBX 16 15 0 0
BITMAP
2030
1FF8
0030
0030
0130
18B0
0CE0
0CE0
8CC4
7FFE
2000
0000
0000
0000
0000
ENDCHAR
STARTCHAR U+ad51
ENCODING 44369
SWIDTH 500 0
DWIDTH 16 0
BBX 16 16 0 0
BITMAP
2030
1FF8
0830
0030
19A0
0CE0
8CC4
7FFE
2000
0018
1FFC
0818
0018
0018
0010
0000
ENDCHAR
STARTCHAR U+ad52
ENCODING 44370
SWIDTH 500 0
DWIDTH 16 0
BBX 16 16 0 0
BITMAP
2030
1FF8
0830
0030
19A0
0CE0
8CC4
7FFE
2000
0210
3FFC
1318
0318
0318
0210
0000
ENDCHAR
STARTCHAR U+ad53
ENCODING 44371
SWIDTH 500 0
DWIDTH 16 0
BBX 16 16 0 0
BITMAP
2030
1FF8
0830
0030
19A0
0CE0
8CC4
7FFE
2000
0360
3FB0
0360
02D0
038C
0304
0000
ENDCHAR
STARTCHAR U+ad54
ENCODING 44372
SWIDTH 500 0
DWIDTH 16 0
BBX 16 16 0 0
BITMAP
2030
1FF8
0830
0030
0130
10A0
0CE0
8CC4
7FFE
2000
0000
1800
0C00
0C20
07F0
0000
ENDCHAR
STARTCHAR U+ad55
ENCODING 44373
SWIDTH 500 0
DWIDTH 16 0
BBX 16 16 0 0
BITMAP
2030
1FF8
0830
0030
19A0
0CE0
8CC4
7FFE
2000
0000
33F8
1860
18E0
1998
0F08
0000
ENDCHAR
STARTCHAR U+ad56
ENCODING 44374
SWIDTH 500 0
DWIDTH 16 0
BBX 16 16 0 0
BITMAP
2030
1FF8
0830
0030
19A0
0CE0
8CC4
7FFE
20F0
0208
31FC
1870
1888
1B88
0C70
0000
ENDCHAR
STARTCHAR U+ad57
ENCODING 44375
SWIDTH 500 0
DWIDTH 16 0
BBX 16 16 0 0
BITMAP
2030
1FF8
0830
0030
19A0
0CE0
8CC4
7FFE
2000
0020
1FF0
0C00
0C00
0C20
07F0
0000
ENDCHAR
STARTCHAR U+ad58
ENCODING 44376
SWIDTH 500 0
DWIDTH 16 0
BBX 16 16 0 0
BITMAP
2030
1FF8
0830
0030
19A0
0CE0
8CC4
7FFE
2020
1FF0
0020
1FF0
0C00
0C20
07F0
0000
ENDCHAR
STARTCHAR U+ad59
ENCODING 44377
SWIDTH 500 0
DWIDTH 16 0
BBX 16 16 0 0
BITMAP
2030
1FF8
0830
0030
19A0
0CE0
8CC4
7FFE
2000
0108
1FFC
0118
1F18
0C18
0D98
0610
ENDCHAR
STARTCHAR U+ad5a
ENCODING 44378
SWIDTH 500 0
DWIDTH 16 0
BBX 16 16 0 0
BITMAP
2030
1FF8
0830
0030
19A0
0CE0
8CC4
7FFE
2108
3FFC
0298
3F98
1890
1FF8
0C80
0000
ENDCHAR
STARTCHAR U+ad5b
ENCODING 44379
SWIDTH 500 0
DWIDTH 16 0
BBX 16 16 0 0
BITMAP
2030
1FF8
0830
0030
19A0
0CE0
8CC4
7FFE
22B0
3F18
02F8
3F98
1898
19F8
0E90
0000
ENDCHAR
STARTCHAR U+ad5c
ENCODING 44380
SWIDTH 500 0
DWIDTH 16 0
BBX 16 16 0 0
BITMAP
2030
1FF8
0830
0030
19A0
0CE0
8CC4
7FFE
2200
3F60
0230
3F60
1850
198C
0F04
0000
ENDCHAR
STARTCHAR U+ad5d
ENCODING 44381
SWIDTH 500 0
DWIDTH 16 0
BBX 16 16 0 0
BITMAP
2030
1FF8
0830
0030
19A0
0CE0
8CC4
7FFE
2008
1FFC
0140
1FF8
0C40
0DD0
0638
0000
ENDCHAR
STARTCHAR U+ad5e
ENCODING 44382
SWIDTH 500 0
DWIDTH 16 0
BBX 16 16 0 0
BITMAP
2030
1FF8
0830
0030
19A0
0CE0
8CC4
7FFE
2200
3FFC
0200
3F98
18D8
1950
0EFC
0000
ENDCHAR
STARTCHAR U+ad5f
ENCODING 44383
SWIDTH 500 0
DWIDTH 16 0
BBX 16 16 0 0
BITMAP
2030
1FF8
0830
0030
19A0
0CE0
8CC4
7FFE
2270
3F08
02FC
3F70
1888
1988
0E70
0000
ENDCHAR
STARTCHAR U+ad60
ENCODING 44384
SWIDTH 500 0
DWIDTH 16 0
BBX 16 16 0 0
BITMAP
2030
1FF8
0830
0030
19A0
0CE0
8CC4
7FFE
2000
0030
1FF8
0C30
0C30
0C20
0FF0
0800
ENDCHAR
STARTCHAR U+ad61
ENCODING 44385
SWIDTH 500 0
DWIDTH 16 0
BBX 16 16 0 0
BITMAP
2030
1FF8
0830
0030
19A0
0CE0
8CC4
7FFE
2000
2060
1830
0FF0
0C30
0C30
0FF0
0820
ENDCHAR
STARTCHAR U+ad62
ENCODING 44386
SWIDTH 500 0
DWIDTH 16 0
BBX 16 16 0 0
BITMAP
2030
1FF8
0830
0030
19A0
0CE0
8CC4
7FFE
2200
3160
1930
1F30
1958
1FCC
1180
0000
ENDCHAR
STARTCHAR U+ad63
ENCODING 44387
SWIDTH 500 0
DWIDTH 16 0
BBX 16 16 0 0
BITMAP
2030
1FF8
0830
0030
19A0
0CE0
8CC4
7FFE
2000
0300
0180
0300
06C0
0C70
3030
0000
ENDCHAR
STARTCHAR U+ad64
ENCODING 44388
SWIDTH 500 0
DWIDTH 16 0
BBX 16 16 0 0
BITMAP
2030
1FF8
0830
0030
19A0
0CE0
8CC4
7FFE
2000
0000
0660
0330
0660
0DD8
3308
0000
ENDCHAR
STARTCHAR U+ad65
ENCODING 44389
SWIDTH 500 0
DWIDTH 16 0
BBX 16 16 0 0
BITMAP
2030
1FF8
0830
0030
19A0
0CE0
8CC4
7FFE
2000
0180
0660
0C30
0C30
0660
0180
0000
ENDCHAR
STARTCHAR U+ad66
ENCODING 44390
SWIDTH 500 0
DWIDTH 16 0
BBX 16 16 0 0
BITMAP
2030
1FF8
0830
0030
19A0
0CE0
8CC4
7FFE
2010
3FF8
1100
0380
06C0
0C70
3030
0000
ENDCHAR
STARTCHAR U+ad67
ENCODING 44391
SWIDTH 500 0
DWIDTH 16 0
BBX 16 16 0 0
BITMAP
2030
1FF8
0830
0030
19A0
0CE0
8CC4
7FFE
27C0
0010
3FF8
0180
0380
0660
1830
0000
ENDCHAR
STARTCHAR U+ad68
ENCODING 44392
SWIDTH 500 0
DWIDTH 16 0
BBX 16 16 0 0
BITMAP
2030
1FF8
0830
0030
19A0
0CE0
8CC4
7FFE
2030
1FF8
0030
0FF0
0430
0030
0020
0000
ENDCHAR
STARTCHAR U+ad69
ENCODING 44393
SWIDTH 500 0
DWIDTH 16 0
BBX 16 16 0 0
BITMAP
2030
1FF8
0830
0030
19A0
0CE0
8CC4
7FFE
2020
1FF0
0C00
0FF0
0C00
0C20
07F0
0000
ENDCHAR
STARTCHAR U+ad6a
ENCODING 44394
SWIDTH 500 0
DWIDTH 16 0
BBX 16 16 0 0
BITMAP
2030
1FF8
0830
0030
19A0
0CE0
8CC4
7FFE
2010
1FF8
00C0
0C60
0660
2250
1FF8
0000
ENDCHAR
STARTCHAR U+ad6b
ENCODING 44395
SWIDTH 500 0
DWIDTH 16 0
BBX 16 16 0 0
BITMAP
2030
1FF8
0830
0030
19A0
0CE0
8CC4
7FFE
23C0
1010
0FF8
0380
0440
0440
0380
0000
ENDCHAR
STARTCHAR U+ad6c
ENCODING 44396
SWIDTH 500 0
DWIDTH 16 0
BBX 16 15 0 0
BITMAP
2030
1FF8
0030
0030
0020
8044
7FFE
2180
0180
0180
0180
0180
0180
0100
0000
ENDCHAR
STARTCHAR U+ad6d
ENCODING 44397
SWIDTH 500 0
DWIDTH 16 0
BBX 16 16 0 0
BITMAP
1030
0FF8
0030
0030
0020
8044
7FFE
2180
0110
1FF8
0830
0030
0030
0030
0020
0000
ENDCHAR
STARTCHAR U+ad6e
ENCODING 44398
SWIDTH 500 0
DWIDTH 16 0
BBX 16 16 0 0
BITMAP
1030
0FF8
0030
0030
0020
8044
7FFE
2180
0110
3FF8
1330
0330
0330
0330
0220
0000
ENDCHAR
STARTCHAR U+ad6f
ENCODING 44399
SWIDTH 500 0
DWIDTH 16 0
BBX 16 16 0 0
BITMAP
1030
0FF8
0030
0030
0020
8044
7FFE
2180
0100
0360
3FB0
0360
02D0
038C
0304
0000
ENDCHAR
STARTCHAR U+ad70
ENCODING 44400
SWIDTH 500 0
DWIDTH 16 0
BBX 16 16 0 0
BITMAP
1030
0FF8
0030
0030
0020
8044
7FFE
2180
0180
0180
0100
3800
0C00
0C20
07F0
0000
ENDCHAR
STARTCHAR U+ad71
ENCODING 44401
SWIDTH 500 0
DWIDTH 16 0
BBX 16 16 0 0
BITMAP
1030
0FF8
0030
0030
0020
8044
7FFE
2180
0180
0100
33F8
1860
18E0
1998
0F08
0000
ENDCHAR
STARTCHAR U+ad72
ENCODING 44402
SWIDTH 500 0
DWIDTH 16 0
BBX 16 16 0 0
BITMAP
1030
0FF8
0030
0030
0020
8044
7FFE
2180
01F0
3008
1BFC
1870
1888
1B88
0C70
0000
ENDCHAR
STARTCHAR U+ad73
ENCODING 44403
SWIDTH 500 0
DWIDTH 16 0
BBX 16 16 0 0
BITMAP
1030
0FF8
0030
0030
0020
8044
7FFE
2180
0180
0110
1FF8
0C00
0C00
0C10
07F8
0000
ENDCHAR
STARTCHAR U+ad74
ENCODING 44404
SWIDTH 500 0
DWIDTH 16 0
BBX 16 16 0 0
BITMAP
1030
0FF8
0030
0030
0020
8044
7FFE
2180
0120
1FF0
0020
1FF0
0C00
0C20
07F0
0000
ENDCHAR
STARTCHAR U+ad75
ENCODING 44405
SWIDTH 500 0
DWIDTH 16 0
BBX 16 16 0 0
BITMAP
1030
0FF8
0030
0030
0020
8044
7FFE
2180
0118
3FFC
0118
3F98
1818
1998
0E10
0000
ENDCHAR
STARTCHAR U+ad76
ENCODING 44406
SWIDTH 500 0
DWIDTH 16 0
BBX 16 16 0 0
BITMAP
1030
0FF8
0030
0030
0020
8044
7FFE
2180
0118
3FFC
0298
3F98
1890
1990
0EF8
0080
ENDCHAR
STARTCHAR U+ad77
ENCODING 44407
SWIDTH 500 0
DWIDTH 16 0
BBX 16 16 0 0
BITMAP
1030
0FF8
0030
0030
0020
8044
7FFE
2180
0330
3F18
02F8
3F98
1898
19F8
0E90
0000
ENDCHAR
STARTCHAR U+ad78
ENCODING 44408
SWIDTH 500 0
DWIDTH 16 0
BBX 16 16 0 0
BITMAP
1030
0FF8
0030
0030
0020
8044
7FFE
2180
0300
3F60
0230
3F60
1850
198C
0F04
0000
ENDCHAR
STARTCHAR U+ad79
ENCODING 44409
SWIDTH 500 0
DWIDTH 16 0
BBX 16 16 0 0
BITMAP
1030
0FF8
0030
0030
0020
8044
7FFE
2180
0510
3FF8
0380
3FF0
1980
1980
0EF8
0000
ENDCHAR
STARTCHAR U+ad7a
ENCODING 44410
SWIDTH 500 0
DWIDTH 16 0
BBX 16 16 0 0
BITMAP
1030
0FF8
0030
0030
0020
8044
7FFE
2180
0300
3FFC
0200
3F98
18D8
1950
0EFC
0000
ENDCHAR
STARTCHAR U+ad7b
ENCODING 44411
SWIDTH 500 0
DWIDTH 16 0
BBX 16 16 0 0
BITMAP
2030
1FF8
0830
0030
0060
8044
7FFE
2180
01F0
3F08
03FC
3E70
1888
1B88
0C70
0000
ENDCHAR
STARTCHAR U+ad7c
ENCODING 44412
SWIDTH 500 0
DWIDTH 16 0
BBX 16 16 0 0
BITMAP
1030
0FF8
0030
0030
0020
8044
7FFE
2180
0180
0130
1FF8
0C30
0C30
0C20
0FF0
0800
ENDCHAR
STARTCHAR U+ad7d
ENCODING 44413
SWIDTH 500 0
DWIDTH 16 0
BBX 16 16 0 0
BITMAP
1030
0FF8
0030
0030
0020
8044
7FFE
2180
0180
0160
1830
0FF0
0C30
0C30
0FF0
0820
ENDCHAR
STARTCHAR U+ad7e
ENCODING 44414
SWIDTH 500 0
DWIDTH 16 0
BBX 16 16 0 0
BITMAP
1030
0FF8
0030
0030
0020
8044
7FFE
2180
0300
3160
1930
1F30
1958
1FCC
1180
0000
ENDCHAR
STARTCHAR U+ad7f
ENCODING 44415
SWIDTH 500 0
DWIDTH 16 0
BBX 16 16 0 0
BITMAP
1030
0FF8
0030
0030
0020
8044
7FFE
2180
0180
0300
0180
0300
0680
0C70
3030
0000
ENDCHAR
STARTCHAR U+ad80
ENCODING 44416
SWIDTH 500 0
DWIDTH 16 0
BBX 16 16 0 0
BITMAP
1030
0FF8
0030
0030
0020
8044
7FFE
2180
0100
0080
0660
0330
0660
0DD8
3308
0000
ENDCHAR
STARTCHAR U+ad81
ENCODING 44417
SWIDTH 500 0
DWIDTH 16 0
BBX 16 16 0 0
BITMAP
1030
0FF8
0030
0030
0020
8044
7FFE
2180
0100
0380
0C60
1830
1830
0C60
0380
0000
ENDCHAR
STARTCHAR U+ad82
ENCODING 44418
SWIDTH 500 0
DWIDTH 16 0
BBX 16 16 0 0
BITMAP
2030
1FF8
0830
0030
0060
8044
7FFE
2180
0100
2110
1FF8
0180
0380
0660
1830
0000
ENDCHAR
STARTCHAR U+ad83
ENCODING 44419
SWIDTH 500 0
DWIDTH 16 0
BBX 16 16 0 0
BITMAP
2030
1FF8
0830
0030
0020
8044
7FFE
2180
0900
07E0
2010
1FF8
0180
0660
1830
0000
ENDCHAR
STARTCHAR U+ad84
ENCODING 44420
SWIDTH 500 0
DWIDTH 16 0
BBX 16 16 0 0
BITMAP
1030
0FF8
0030
0030
0020
8044
7FFE
2180
0100
0010
1FF8
0030
01F0
0E30
0420
0000
ENDCHAR
STARTCHAR U+ad85
ENCODING 44421
SWIDTH 500 0
DWIDTH 16 0
BBX 16 16 0 0
BITMAP
1030
0FF8
0030
0030
0020
8044
7FFE
2180
0120
1FF0
0C00
0FF0
0C00
0C20
07F0
0000
ENDCHAR
STARTCHAR U+ad86
ENCODING 44422
SWIDTH 500 0
DWIDTH 16 0
BBX 16 16 0 0
BITMAP
2030
1FF8
0830
0030
0020
8044
7FFE
2180
0110
3FF8
0000
0C60
0660
2250
1FF8
0000
ENDCHAR
STARTCHAR U+ad87
ENCODING 44423
SWIDTH 500 0
DWIDTH 16 0
BBX 16 16 0 0
BITMAP
1030
0FF8
0030
0030
0020
8044
7FFE
2180
0300
2190
1FF8
03C0
0420
0420
03C0
0000
ENDCHAR
STARTCHAR U+ad88
ENCODING 44424
SWIDTH 500 0
DWIDTH 16 0
BBX 16 16 0 0
BITMAP
0030
4198
3FD8
0198
0198
0118
0278
FF98
4C18
0DF8
0C98
0C18
0C18
0818
0010
0000
ENDCHAR
STARTCHAR U+ad89
ENCODING 44425
SWIDTH 500 0
DWIDTH 16 0
BBX 16 16 0 0
BITMAP
0030
4198
3FD8
0198
0118
0278
FF98
4DF8
0810
0FFC
0418
0018
0018
0018
0010
0000
ENDCHAR
STARTCHAR U+ad8a
ENCODING 44426
SWIDTH 500 0
DWIDTH 16 0
BBX 16 16 0 0
BITMAP
0030
2198
1FD8
0198
0198
0278
FF98
4DF8
0A10
3FFC
1318
0318
0318
0318
0210
0000
ENDCHAR
STARTCHAR U+ad8b
ENCODING 44427
SWIDTH 500 0
DWIDTH 16 0
BBX 16 16 0 0
BITMAP
0020
2198
1FD8
0198
0198
02F8
FF18
4CF8
0C50
0B60
3FB0
0360
02D0
038C
0304
0000
ENDCHAR
STARTCHAR U+ad8c
ENCODING 44428
SWIDTH 500 0
DWIDTH 16 0
BBX 16 16 0 0
BITMAP
0020
2198
1FD8
0198
0198
0118
8218
7FF8
2C18
0DF8
0818
1C10
0600
0610
03F8
0000
ENDCHAR
STARTCHAR U+ad8d
ENCODING 44429
SWIDTH 500 0
DWIDTH 16 0
BBX 16 16 0 0
BITMAP
0030
2198
1FD8
0198
0198
0278
FF98
4C18
0DF8
0810
33F8
1860
18E0
1998
0F08
0000
ENDCHAR
STARTCHAR U+ad8e
ENCODING 44430
SWIDTH 500 0
DWIDTH 16 0
BBX 16 16 0 0
BITMAP
0030
2198
1FD8
0198
0198
0278
FF98
4C78
0C10
0AF8
33FC
1870
1888
1B88
0C60
0000
ENDCHAR
STARTCHAR U+ad8f
ENCODING 44431
SWIDTH 500 0
DWIDTH 16 0
BBX 16 16 0 0
BITMAP
0030
2198
1FD8
0198
0198
0218
03F8
FE18
4DF8
0810
0FF8
0600
0600
0610
03F8
0000
ENDCHAR
STARTCHAR U+ad90
ENCODING 44432
SWIDTH 500 0
DWIDTH 16 0
BBX 16 16 0 0
BITMAP
0030
2198
1FD8
0198
0198
0218
FFF8
4C18
0DF8
0810
0FF8
0010
0FF8
0600
0610
03F8
ENDCHAR
STARTCHAR U+ad91
ENCODING 44433
SWIDTH 500 0
DWIDTH 16 0
BBX 16 16 0 0
BITMAP
0030
2198
1FD8
0198
0198
02F8
FF18
4CF8
0C10
1FFC
0218
3F18
1818
1998
0E10
0000
ENDCHAR
STARTCHAR U+ad92
ENCODING 44434
SWIDTH 500 0
DWIDTH 16 0
BBX 16 16 0 0
BITMAP
0030
2198
1FD8
0198
0198
02F8
FF18
4CF8
0C10
3FFC
0298
3F98
1890
19F8
0E80
0000
ENDCHAR
STARTCHAR U+ad93
ENCODING 44435
SWIDTH 500 0
DWIDTH 16 0
BBX 16 16 0 0
BITMAP
0030
2198
1FD8
0198
0198
02F8
FF18
4CF8
0A30
3F18
02F8
3F98
1898
19F8
0E90
0000
ENDCHAR
STARTCHAR U+ad94
ENCODING 44436
SWIDTH 500 0
DWIDTH 16 0
BBX 16 16 0 0
BITMAP
0030
2198
1FD8
0198
0198
02F8
FF18
4CF8
0810
3F60
0230
3F30
1870
19CC
0E04
0000
ENDCHAR
STARTCHAR U+ad95
ENCODING 44437
SWIDTH 500 0
DWIDTH 16 0
BBX 16 16 0 0
BITMAP
0030
2198
1FD8
0198
0198
02F8
FF18
4CF8
0910
3FF8
02C0
3FF8
18C0
19D0
0E78
0000
ENDCHAR
STARTCHAR U+ad96
ENCODING 44438
SWIDTH 500 0
DWIDTH 16 0
BBX 16 16 0 0
BITMAP
0030
2198
1FD8
0198
0198
02F8
FF18
4CF8
0A10
3FFC
0200
3F98
18D8
1950
0EFC
0000
ENDCHAR
STARTCHAR U+ad97
ENCODING 44439
SWIDTH 500 0
DWIDTH 16 0
BBX 16 16 0 0
BITMAP
0030
2198
1FD8
0198
0198
0278
FF98
4C78
0910
1F60
01FC
1F70
0888
0988
0670
0000
ENDCHAR
STARTCHAR U+ad98
ENCODING 44440
SWIDTH 500 0
DWIDTH 16 0
BBX 16 16 0 0
BITMAP
0030
2198
1FD8
0198
0198
0218
03F8
FE18
4DF8
0810
0FFC
0618
0618
0610
07F8
0400
ENDCHAR
STARTCHAR U+ad99
ENCODING 44441
SWIDTH 500 0
DWIDTH 16 0
BBX 16 16 0 0
BITMAP
0030
4198
3FD8
0198
0118
0278
FF98
4C18
0DF8
0830
0C18
07F8
0618
0618
07F8
0410
ENDCHAR
STARTCHAR U+ad9a
ENCODING 44442
SWIDTH 500 0
DWIDTH 16 0
BBX 16 16 0 0
BITMAP
0030
2198
1FD8
0198
0198
0278
FF98
4C18
0CF8
0A30
3160
1930
1F30
1958
1FCC
1180
ENDCHAR
STARTCHAR U+ad9b
ENCODING 44443
SWIDTH 500 0
DWIDTH 16 0
BBX 16 16 0 0
BITMAP
0020
4198
3FD8
0198
0198
0278
FF98
4C18
0CF8
0D98
08D8
0190
0360
0638
1818
0000
ENDCHAR
STARTCHAR U+ad9c
ENCODING 44444
SWIDTH 500 0
DWIDTH 16 0
BBX 16 16 0 0
BITMAP
0030
4198
3FD8
0198
0198
0278
FF98
4C18
0DF8
0818
0670
0330
0660
0CD8
330C
0000
ENDCHAR
STARTCHAR U+ad9d
ENCODING 44445
SWIDTH 500 0
DWIDTH 16 0
BBX 16 16 0 0
BITMAP
0020
2198
1FD8
0198
0198
0278
FF98
4CF8
0C18
08D0
0330
0618
0618
0330
00C0
0000
ENDCHAR
STARTCHAR U+ad9e
ENCODING 44446
SWIDTH 500 0
DWIDTH 16 0
BBX 16 16 0 0
BITMAP
0030
2198
1FD8
0198
0198
02F8
FF18
4CF8
0818
1010
0FF8
0180
0360
0638
1818
0000
ENDCHAR
STARTCHAR U+ad9f
ENCODING 44447
SWIDTH 500 0
DWIDTH 16 0
BBX 16 16 0 0
BITMAP
0030
2198
1FD8
0198
0198
02F8
FF18
4CF8
0810
03F0
1010
0FF8
00C0
01A0
0630
0000
ENDCHAR
STARTCHAR U+ada0
ENCODING 44448
SWIDTH 500 0
DWIDTH 16 0
BBX 16 16 0 0
BITMAP
0030
2198
1FD8
0198
0198
02F8
FF18
4CF8
0810
0FFC
0018
00F8
0F18
0418
0010
0000
ENDCHAR
STARTCHAR U+ada1
ENCODING 44449
SWIDTH 500 0
DWIDTH 16 0
BBX 16 16 0 0
BITMAP
0030
2198
1FD8
0198
0198
02F8
FF18
4CF8
0810
0FF8
0600
07F8
0600
0610
03F8
0000
ENDCHAR
STARTCHAR U+ada2
ENCODING 44450
SWIDTH 500 0
DWIDTH 16 0
BBX 16 16 0 0
BITMAP
0030
2198
1FD8
0198
0198
02F8
FF18
4CF8
0810
0FF8
0060
0630
0330
1120
0FF8
0000
ENDCHAR
STARTCHAR U+ada3
ENCODING 44451
SWIDTH 500 0
DWIDTH 16 0
BBX 16 16 0 0
BITMAP
0030
2198
1FD8
0198
0198
02F8
FF18
4CF8
0810
03F0
1010
0FF8
01C0
0220
0220
01C0
ENDCHAR
STARTCHAR U+ada4
ENCODING 44452
SWIDTH 500 0
DWIDTH 16 0
BBX 16 16 0 0
BITMAP
0020
0198
04D8
7ED8
06D8
04D8
04D8
08D8
FFD8
58D8
1FD8
18D8
18D8
1098
0010
0000
ENDCHAR
STARTCHAR U+ada5
ENCODING 44453
SWIDTH 500 0
DWIDTH 16 0
BBX 16 16 0 0
BITMAP
0020
0198
04D8
7ED8
06D8
04D8
0FD8
F8D8
1BD8
1090
1FFC
0818
0018
0018
0010
0000
ENDCHAR
STARTCHAR U+ada6
ENCODING 44454
SWIDTH 500 0
DWIDTH 16 0
BBX 16 16 0 0
BITMAP
0020
0198
04D8
7ED8
06D8
04D8
0FD8
F8D8
1BD8
1090
3FFC
1318
0318
0318
0210
0000
ENDCHAR
STARTCHAR U+ada7
ENCODING 44455
SWIDTH 500 0
DWIDTH 16 0
BBX 16 16 0 0
BITMAP
0020
0198
04D8
7ED8
06D8
04D8
0FD8
F8D8
1BD8
1370
3FB0
0360
02D0
038C
0304
0000
ENDCHAR
STARTCHAR U+ada8
ENCODING 44456
SWIDTH 500 0
DWIDTH 16 0
BBX 16 16 0 0
BITMAP
0020
0198
04D8
7ED8
06D8
04D8
09D8
FED8
58D8
1BD8
10D8
0C90
0600
0610
03F8
0000
ENDCHAR
STARTCHAR U+ada9
ENCODING 44457
SWIDTH 500 0
DWIDTH 16 0
BBX 16 16 0 0
BITMAP
0020
0198
04D8
7ED8
06D8
07D8
FCD8
58D8
1FD8
1090
33F8
1860
18E0
1998
0F08
0000
ENDCHAR
STARTCHAR U+adaa
ENCODING 44458
SWIDTH 500 0
DWIDTH 16 0
BBX 16 16 0 0
BITMAP
0020
0198
04D8
7ED8
06D8
07D8
FCD8
5BD8
1890
12F8
33FC
1870
1888
1B88
0C70
0000
ENDCHAR
STARTCHAR U+adab
ENCODING 44459
SWIDTH 500 0
DWIDTH 16 0
BBX 16 16 0 0
BITMAP
0020
0198
04D8
7ED8
06D8
07D8
FCD8
58D8
1FD8
1090
0FF8
0600
0600
0610
03F8
0000
ENDCHAR
STARTCHAR U+adac
ENCODING 44460
SWIDTH 500 0
DWIDTH 16 0
BBX 16 16 0 0
BITMAP
0020
0198
04D8
7ED8
06D8
04D8
FFD8
18D8
1BD8
1090
0FF8
0010
0FF8
0600
0610
03F8
ENDCHAR
STARTCHAR U+adad
ENCODING 44461
SWIDTH 500 0
DWIDTH 16 0
BBX 16 16 0 0
BITMAP
0020
0198
04D8
7ED8
06D8
04D8
FFD8
58D8
1BD8
1090
1FFC
0218
3F18
1818
1998
0E10
ENDCHAR
STARTCHAR U+adae
ENCODING 44462
SWIDTH 500 0
DWIDTH 16 0
BBX 16 16 0 0
BITMAP
0020
0198
04D8
7ED8
06D8
04D8
FFD8
58D8
1BD8
1090
3FFC
0298
3F98
1890
19F8
0E80
ENDCHAR
STARTCHAR U+adaf
ENCODING 44463
SWIDTH 500 0
DWIDTH 16 0
BBX 16 16 0 0
BITMAP
0020
0198
04D8
7ED8
06D8
04D8
FFD8
58D8
1BD8
12B0
3F18
02F8
3F98
1898
19F8
0E90
ENDCHAR
STARTCHAR U+adb0
ENCODING 44464
SWIDTH 500 0
DWIDTH 16 0
BBX 16 16 0 0
BITMAP
0020
0198
04D8
7ED8
06D8
04D8
FFD8
58D8
1BD8
1090
3F60
0230
3F30
1870
19CC
0E04
ENDCHAR
STARTCHAR U+adb1
ENCODING 44465
SWIDTH 500 0
DWIDTH 16 0
BBX 16 16 0 0
BITMAP
0020
0198
04D8
7ED8
06D8
04D8
FFD8
58D8
1BD8
1190
3FF8
02C0
3FF8
18C0
19D0
0E78
ENDCHAR
STARTCHAR U+adb2
ENCODING 44466
SWIDTH 500 0
DWIDTH 16 0
BBX 16 16 0 0
BITMAP
0020
0198
04D8
7ED8
06D8
04D8
FFD8
58D8
1BD8
1290
3FFC
0200
3F98
18D8
1950
0EFC
ENDCHAR
STARTCHAR U+adb3
ENCODING 44467
SWIDTH 500 0
DWIDTH 16 0
BBX 16 16 0 0
BITMAP
0020
0198
04D8
7ED8
06D8
04D8
FFD8
58D8
1B90
11F0
1F88
01FC
1F70
0888
0988
0670
ENDCHAR
STARTCHAR U+adb4
ENCODING 44468
SWIDTH 500 0
DWIDTH 16 0
BBX 16 16 0 0
BITMAP
0020
0598
7ED8
06D8
04D8
0BD8
FCD8
58D8
1FD8
1090
0FFC
0618
0618
0610
07F8
0400
ENDCHAR
STARTCHAR U+adb5
ENCODING 44469
SWIDTH 500 0
DWIDTH 16 0
BBX 16 16 0 0
BITMAP
0020
0598
7ED8
06D8
04D8
08D8
FFD8
58D8
1FD8
10B0
0C18
07F8
0618
0618
07F8
0410
ENDCHAR
STARTCHAR U+adb6
ENCODING 44470
SWIDTH 500 0
DWIDTH 16 0
BBX 16 16 0 0
BITMAP
0020
0198
04D8
7ED8
06D8
04D8
FFD8
58D8
1FD8
1698
3170
1920
1F30
1958
1FCC
1180
ENDCHAR
STARTCHAR U+adb7
ENCODING 44471
SWIDTH 500 0
DWIDTH 16 0
BBX 16 16 0 0
BITMAP
0020
0198
04D8
7ED8
04D8
0CD8
0BD8
FCD8
5FD8
1898
1998
10D0
01C0
0330
0C18
0000
ENDCHAR
STARTCHAR U+adb8
ENCODING 44472
SWIDTH 500 0
DWIDTH 16 0
BBX 16 16 0 0
BITMAP
0020
0198
04D8
7ED8
06D8
04D8
0BD8
FCD8
5FD8
1890
1660
0330
0630
0C68
318C
0000
ENDCHAR
STARTCHAR U+adb9
ENCODING 44473
SWIDTH 500 0
DWIDTH 16 0
BBX 16 16 0 0
BITMAP
0020
0198
04D8
7ED8
06D8
04D8
FFD8
18D8
1F98
18D0
1330
0618
0618
0330
00C0
0000
ENDCHAR
STARTCHAR U+adba
ENCODING 44474
SWIDTH 500 0
DWIDTH 16 0
BBX 16 16 0 0
BITMAP
0020
0198
04D8
7ED8
06D8
07D8
FCD8
58D8
1FD8
1090
0FF8
0180
0360
0638
1818
0000
ENDCHAR
STARTCHAR U+adbb
ENCODING 44475
SWIDTH 500 0
DWIDTH 16 0
BBX 16 16 0 0
BITMAP
0020
0198
04D8
7ED8
06D8
07D8
FCD8
5BD8
1890
13F0
0810
07F8
00C0
0180
0370
0C18
ENDCHAR
STARTCHAR U+adbc
ENCODING 44476
SWIDTH 500 0
DWIDTH 16 0
BBX 16 16 0 0
BITMAP
0020
0198
04D8
7ED8
06D8
04D8
0FD8
F8D8
1BD8
1090
1FFC
0818
00F8
0F18
0410
0000
ENDCHAR
STARTCHAR U+adbd
ENCODING 44477
SWIDTH 500 0
DWIDTH 16 0
BBX 16 16 0 0
BITMAP
0020
0198
04D8
7ED8
06D8
07D8
FCD8
58D8
1FD8
1090
0FF8
0600
07F8
0600
03F8
0000
ENDCHAR
STARTCHAR U+adbe
ENCODING 44478
SWIDTH 500 0
DWIDTH 16 0
BBX 16 16 0 0
BITMAP
0020
0198
04D8
7ED8
06D8
07D8
FCD8
58D8
1FD8
1090
0FF8
0060
0630
0330
1120
0FF8
ENDCHAR
STARTCHAR U+adbf
ENCODING 44479
SWIDTH 500 0
DWIDTH 16 0
BBX 16 16 0 0
BITMAP
0020
0198
04D8
7ED8
06D8
07D8
FCD8
58D8
1FD8
1090
0BF0
07D8
01C0
0220
0220
01C0
ENDCHAR
STARTCHAR U+adc0
ENCODING 44480
SWIDTH 500 0
DWIDTH 16 0
BBX 16 16 0 0
BITMAP
0020
0018
4318
3F98
0318
0318
0218
8478
7F98
2C18
0C18
0C18
0C18
0818
0010
0000
ENDCHAR
STARTCHAR U+adc1
ENCODING 44481
SWIDTH 500 0
DWIDTH 16 0
BBX 16 16 0 0
BITMAP
0030
4118
3F98
0318
0318
8278
7F98
2C18
0810
1FFC
0818
0018
0018
0018
0010
0000
ENDCHAR
STARTCHAR U+adc2
ENCODING 44482
SWIDTH 500 0
DWIDTH 16 0
BBX 16 16 0 0
BITMAP
0030
4198
3FD8
0198
0118
0278
FF98
4C18
0A10
3FFC
1318
0318
0318
0318
0210
0000
ENDCHAR
STARTCHAR U+adc3
ENCODING 44483
SWIDTH 500 0
DWIDTH 16 0
BBX 16 16 0 0
BITMAP
0030
4198
3FD8
0198
0118
0278
FF98
4C18
0C10
0B60
3FB0
0360
02D0
038C
0304
0000
ENDCHAR
STARTCHAR U+adc4
ENCODING 44484
SWIDTH 500 0
DWIDTH 16 0
BBX 16 16 0 0
BITMAP
0020
4198
3FD8
0198
0198
0118
0278
FF98
4C18
0C18
0818
1810
0C00
0C10
07F8
0000
ENDCHAR
STARTCHAR U+adc5
ENCODING 44485
SWIDTH 500 0
DWIDTH 16 0
BBX 16 16 0 0
BITMAP
0030
4198
3FD8
0198
0118
0278
FF98
4C18
0C18
0810
33F8
1860
18E0
1998
0F08
0000
ENDCHAR
STARTCHAR U+adc6
ENCODING 44486
SWIDTH 500 0
DWIDTH 16 0
BBX 16 16 0 0
BITMAP
0030
4198
3FD8
0198
0118
0278
FF98
4C18
0C10
0AF8
33FC
1870
1888
1B88
0C70
0000
ENDCHAR
STARTCHAR U+adc7
ENCODING 44487
SWIDTH 500 0
DWIDTH 16 0
BBX 16 16 0 0
BITMAP
0030
4198
3FD8
0198
0118
0278
FF98
4C18
0C18
0810
0FF8
0600
0600
0610
03F8
0000
ENDCHAR
STARTCHAR U+adc8
ENCODING 44488
SWIDTH 500 0
DWIDTH 16 0
BBX 16 16 0 0
BITMAP
0030
4198
3FD8
0198
0118
0278
FF98
4C18
0810
0FF8
0010
0FF8
0600
0610
03F8
0000
ENDCHAR
STARTCHAR U+adc9
ENCODING 44489
SWIDTH 500 0
DWIDTH 16 0
BBX 16 16 0 0
BITMAP
0030
4198
3FD8
0198
0118
0278
FF98
4C18
0810
1FFC
0218
3F18
1818
1998
0E10
0000
ENDCHAR
STARTCHAR U+adca
ENCODING 44490
SWIDTH 500 0
DWIDTH 16 0
BBX 16 16 0 0
BITMAP
0030
4198
3FD8
0198
0118
0278
FF98
4C18
0810
3FFC
0298
3F98
1890
19F8
0E80
0000
ENDCHAR
STARTCHAR U+adcb
ENCODING 44491
SWIDTH 500 0
DWIDTH 16 0
BBX 16 16 0 0
BITMAP
0030
4198
3FD8
0198
0118
0278
FF98
4C18
0A30
3F18
02F8
3F98
1898
19F8
0E90
0000
ENDCHAR
STARTCHAR U+adcc
ENCODING 44492
SWIDTH 500 0
DWIDTH 16 0
BBX 16 16 0 0
BITMAP
0030
4198
3FD8
0198
0118
0278
FF98
4C18
0810
3F60
0230
3F30
1870
19CC
0E04
0000
ENDCHAR
STARTCHAR U+adcd
ENCODING 44493
SWIDTH 500 0
DWIDTH 16 0
BBX 16 16 0 0
BITMAP
0030
4198
3FD8
0198
0118
0278
FF98
4C18
0910
3FF8
02C0
3FF8
18C0
19D0
0E78
0000
ENDCHAR
STARTCHAR U+adce
ENCODING 44494
SWIDTH 500 0
DWIDTH 16 0
BBX 16 16 0 0
BITMAP
0030
4198
3FD8
0198
0118
0278
FF98
4C18
0A10
3FFC
0200
3F98
18D8
1950
0EFC
0000
ENDCHAR
STARTCHAR U+adcf
ENCODING 44495
SWIDTH 500 0
DWIDTH 16 0
BBX 16 16 0 0
BITMAP
0030
4198
3FD8
0198
0118
0278
FF98
4C18
0970
3F88
02FC
3F70
1888
1988
0E70
0000
ENDCHAR
STARTCHAR U+add0
ENCODING 44496
SWIDTH 500 0
DWIDTH 16 0
BBX 16 16 0 0
BITMAP
0030
4198
3FD8
0198
0118
0278
FF98
4C18
0C18
0810
0FFC
0618
0618
0610
07F8
0400
ENDCHAR
STARTCHAR U+add1
ENCODING 44497
SWIDTH 500 0
DWIDTH 16 0
BBX 16 16 0 0
BITMAP
0030
4198
3FD8
0198
0118
0278
FF98
4C18
0C18
0830
0C18
07F8
0618
0618
07F8
0410
ENDCHAR
STARTCHAR U+add2
ENCODING 44498
SWIDTH 500 0
DWIDTH 16 0
BBX 16 16 0 0
BITMAP
0030
4198
3FD8
0198
0118
0278
FF98
4C18
0818
0610
3160
1930
1F30
1958
1FCC
1180
ENDCHAR
STARTCHAR U+add3
ENCODING 44499
SWIDTH 500 0
DWIDTH 16 0
BBX 16 16 0 0
BITMAP
0020
4318
3F98
0318
0318
0218
0478
FF98
4C18
0D98
08D0
0180
0340
0630
1818
0000
ENDCHAR
STARTCHAR U+add4
ENCODING 44500
SWIDTH 500 0
DWIDTH 16 0
BBX 16 16 0 0
BITMAP
0030
4198
3FD8
0198
0118
0278
FF98
4C18
0C18
0810
0630
0330
0660
0DD8
330C
0000
ENDCHAR
STARTCHAR U+add5
ENCODING 44501
SWIDTH 500 0
DWIDTH 16 0
BBX 16 16 0 0
BITMAP
0020
4198
3FD8
0198
0118
0278
FF98
4C18
0C18
08D0
0330
0618
0618
0330
00C0
0000
ENDCHAR
STARTCHAR U+add6
ENCODING 44502
SWIDTH 500 0
DWIDTH 16 0
BBX 16 16 0 0
BITMAP
0030
4198
3FD8
0198
0118
0278
FF98
4C18
0818
1010
0FF8
0180
0360
0638
1818
0000
ENDCHAR
STARTCHAR U+add7
ENCODING 44503
SWIDTH 500 0
DWIDTH 16 0
BBX 16 16 0 0
BITMAP
0030
4198
3FD8
0198
0118
0278
FF98
4C18
0BF0
1010
0FF8
00C0
0180
0370
0C18
0000
ENDCHAR
STARTCHAR U+add8
ENCODING 44504
SWIDTH 500 0
DWIDTH 16 0
BBX 16 16 0 0
BITMAP
0030
4198
3FD8
0198
0118
0278
FF98
4C18
0810
0FFC
0018
00F8
0F18
0418
0010
0000
ENDCHAR
STARTCHAR U+add9
ENCODING 44505
SWIDTH 500 0
DWIDTH 16 0
BBX 16 16 0 0
BITMAP
0030
4198
3FD8
0198
0118
0278
FF98
4C18
0810
0FF8
0600
07F8
0600
0610
03F8
0000
ENDCHAR
STARTCHAR U+adda
ENCODING 44506
SWIDTH 500 0
DWIDTH 16 0
BBX 16 16 0 0
BITMAP
0030
4198
3FD8
0198
0118
0278
FF98
4C18
0810
0FF8
0060
0630
0330
1120
0FF8
0000
ENDCHAR
STARTCHAR U+addb
ENCODING 44507
SWIDTH 500 0
DWIDTH 16 0
BBX 16 16 0 0
BITMAP
0030
4198
3FD8
0198
0118
0278
FF98
4C18
0BF0
1010
0FF8
01C0
0220
0220
01C0
0000
ENDCHAR
STARTCHAR U+addc
ENCODING 44508
SWIDTH 500 0
DWIDTH 16 0
BBX 16 16 0 0
BITMAP
1030
0FF8
0030
0030
0020
8044
7FFE
2660
0660
0660
0660
0660
0660
0460
0040
0000
ENDCHAR
STARTCHAR U+addd
ENCODING 44509
SWIDTH 500 0
DWIDTH 16 0
BBX 16 16 0 0
BITMAP
1030
0FF8
0030
0030
0020
8044
7FFE
2660
0450
1FF8
0830
0030
0030
0030
0020
0000
ENDCHAR
STARTCHAR U+adde
ENCODING 44510
SWIDTH 500 0
DWIDTH 16 0
BBX 16 16 0 0
BITMAP
1030
0FF8
0030
0030
0020
8044
7FFE
2660
0450
3FF8
1330
0330
0330
0330
0220
0000
ENDCHAR
STARTCHAR U+addf
ENCODING 44511
SWIDTH 500 0
DWIDTH 16 0
BBX 16 16 0 0
BITMAP
1030
0FF8
0030
0030
0020
8044
7FFE
2660
0440
0360
3FB0
0360
02D0
038C
0304
0000
ENDCHAR
STARTCHAR U+ade0
ENCODING 44512
SWIDTH 500 0
DWIDTH 16 0
BBX 16 16 0 0
BITMAP
1030
0FF8
0030
0030
0020
8044
7FFE
2660
0660
0660
0440
1800
0C00
0C20
07F0
0000
ENDCHAR
STARTCHAR U+ade1
ENCODING 44513
SWIDTH 500 0
DWIDTH 16 0
BBX 16 16 0 0
BITMAP
1030
0FF8
0030
0030
0020
8044
7FFE
2660
0660
0440
33F8
1860
18E0
1998
0F08
0000
ENDCHAR
STARTCHAR U+ade2
ENCODING 44514
SWIDTH 500 0
DWIDTH 16 0
BBX 16 16 0 0
BITMAP
1030
0FF8
0030
0030
0020
8044
7FFE
2660
0440
31F0
1808
1BFC
1870
1B88
0C70
0000
ENDCHAR
STARTCHAR U+ade3
ENCODING 44515
SWIDTH 500 0
DWIDTH 16 0
BBX 16 16 0 0
BITMAP
1030
0FF8
0030
0030
0020
8044
7FFE
2660
0660
0450
1FF8
0C00
0C00
0C10
07F8
0000
ENDCHAR
STARTCHAR U+ade4
ENCODING 44516
SWIDTH 500 0
DWIDTH 16 0
BBX 16 16 0 0
BITMAP
1030
0FF8
0030
0030
0020
8044
7FFE
2660
0670
1FF8
0020
1FF0
0C00
0C10
07F8
0000
ENDCHAR
STARTCHAR U+ade5
ENCODING 44517
SWIDTH 500 0
DWIDTH 16 0
BBX 16 16 0 0
BITMAP
1030
0FF8
0030
0030
0020
8044
7FFE
2660
0458
3FFC
0118
3F98
1818
1998
0E10
0000
ENDCHAR
STARTCHAR U+ade6
ENCODING 44518
SWIDTH 500 0
DWIDTH 16 0
BBX 16 16 0 0
BITMAP
1030
0FF8
0030
0030
0020
8044
7FFE
2660
0458
3FFC
0298
3F98
1890
1990
0EF8
0080
ENDCHAR
STARTCHAR U+ade7
ENCODING 44519
SWIDTH 500 0
DWIDTH 16 0
BBX 16 16 0 0
BITMAP
1030
0FF8
0030
0030
0020
8044
7FFE
2660
0650
3F18
02F8
3F98
1898
19F8
0E90
0000
ENDCHAR
STARTCHAR U+ade8
ENCODING 44520
SWIDTH 500 0
DWIDTH 16 0
BBX 16 16 0 0
BITMAP
1030
0FF8
0030
0030
0020
8044
7FFE
2660
0640
3F60
0230
3F60
1850
198C
0F04
0000
ENDCHAR
STARTCHAR U+ade9
ENCODING 44521
SWIDTH 500 0
DWIDTH 16 0
BBX 16 16 0 0
BITMAP
1030
0FF8
0030
0030
0020
8044
7FFE
2660
0450
3FF8
0380
3FF0
1980
1980
0EF8
0000
ENDCHAR
STARTCHAR U+adea
ENCODING 44522
SWIDTH 500 0
DWIDTH 16 0
BBX 16 16 0 0
BITMAP
1030
0FF8
0030
0030
0020
8044
7FFE
2660
0640
3FFC
0200
3F98
18D8
1950
0EFC
0000
ENDCHAR
STARTCHAR U+adeb
ENCODING 44523
SWIDTH 500 0
DWIDTH 16 0
BBX 16 16 0 0
BITMAP
1030
0FF8
0030
0030
0020
8044
7FFE
2660
05F0
3F08
03FC
3E70
1888
1B88
0C70
0000
ENDCHAR
STARTCHAR U+adec
ENCODING 44524
SWIDTH 500 0
DWIDTH 16 0
BBX 16 16 0 0
BITMAP
1030
0FF8
0030
0030
0020
8044
7FFE
2660
0660
0450
1FF8
0C30
0C30
0C20
0FF0
0800
ENDCHAR
STARTCHAR U+aded
ENCODING 44525
SWIDTH 500 0
DWIDTH 16 0
BBX 16 16 0 0
BITMAP
1030
0FF8
0030
0030
0020
8044
7FFE
2660
0640
0420
1830
0FF0
0C30
0C30
0FF0
0820
ENDCHAR
STARTCHAR U+adee
ENCODING 44526
SWIDTH 500 0
DWIDTH 16 0
BBX 16 16 0 0
BITMAP
1030
0FF8
0030
0030
0020
8044
7FFE
2660
0640
3160
1930
1F30
1958
1FCC
1180
0000
ENDCHAR
STARTCHAR U+adef
ENCODING 44527
SWIDTH 500 0
DWIDTH 16 0
BBX 16 16 0 0
BITMAP
2030
1FF8
0830
0030
0020
8044
7FFE
2660
0660
0440
0300
0180
0380
0660
1830
0000
ENDCHAR
STARTCHAR U+adf0
ENCODING 44528
SWIDTH 500 0
DWIDTH 16 0
BBX 16 16 0 0
BITMAP
1030
0FF8
0030
0030
0020
8044
7FFE
2660
0440
0080
0660
0330
0660
0DD8
3308
0000
ENDCHAR
STARTCHAR U+adf1
ENCODING 44529
SWIDTH 500 0
DWIDTH 16 0
BBX 16 16 0 0
BITMAP
1030
0FF8
0030
0030
0020
8044
7FFE
2660
0660
0440
0180
0660
0C30
0C30
0660
0180
ENDCHAR
STARTCHAR U+adf2
ENCODING 44530
SWIDTH 500 0
DWIDTH 16 0
BBX 16 16 0 0
BITMAP
1030
0FF8
0030
0030
0020
8044
7FFE
2660
0440
2010
1FF8
0180
0380
0660
1830
0000
ENDCHAR
STARTCHAR U+adf3
ENCODING 44531
SWIDTH 500 0
DWIDTH 16 0
BBX 16 16 0 0
BITMAP
1030
0FF8
0030
0030
0020
8044
7FFE
2660
0440
07C0
1010
0FF8
0180
0360
0C30
0000
ENDCHAR
STARTCHAR U+adf4
ENCODING 44532
SWIDTH 500 0
DWIDTH 16 0
BBX 16 16 0 0
BITMAP
1030
0FF8
0030
0030
0020
8044
7FFE
2660
0440
0010
1FF8
0030
01F0
0E30
0420
0000
ENDCHAR
STARTCHAR U+adf5
ENCODING 44533
SWIDTH 500 0
DWIDTH 16 0
BBX 16 16 0 0
BITMAP
1030
0FF8
0030
0030
0020
8044
7FFE
2660
0450
1FF0
0C00
0FF0
0C00
0C00
07F0
0000
ENDCHAR
STARTCHAR U+adf6
ENCODING 44534
SWIDTH 500 0
DWIDTH 16 0
BBX 16 16 0 0
BITMAP
1030
0FF8
0030
0030
0020
8044
7FFE
2660
0448
3FF8
0000
0C60
0660
2250
1FF8
0000
ENDCHAR
STARTCHAR U+adf7
ENCODING 44535
SWIDTH 500 0
DWIDTH 16 0
BBX 16 16 0 0
BITMAP
1030
0FF8
0030
0030
0020
8044
7FFE
2660
0540
2190
1FF8
03C0
0420
0420
03C0
0000
ENDCHAR
STARTCHAR U+adf8
ENCODING 44536
SWIDTH 500 0
DWIDTH 16 0
BBX 16 15 0 0
BITMAP
2030
1FF8
0030
0030
0030
0030
0020
0020
8044
7FFE
2000
0000
0000
0000
0000
ENDCHAR
STARTCHAR U+adf9
ENCODING 44537
SWIDTH 500 0
DWIDTH 16 0
BBX 16 16 0 0
BITMAP
1030
0FF8
0030
0030
0020
8044
7FFE
2000
0030
1FF8
0830
0030
0030
0030
0020
0000
ENDCHAR
STARTCHAR U+adfa
ENCODING 44538
SWIDTH 500 0
DWIDTH 16 0
BBX 16 16 0 0
BITMAP
2030
1FF8
0830
0030
0020
8044
7FFE
2000
0010
3FF8
1330
0330
0330
0330
0220
0000
ENDCHAR
STARTCHAR U+adfb
ENCODING 44539
SWIDTH 500 0
DWIDTH 16 0
BBX 16 16 0 0
BITMAP
2030
1FF8
0830
0030
0020
8044
7FFE
2000
0340
3FA0
0330
0360
02D0
038C
0304
0000
ENDCHAR
STARTCHAR U+adfc
ENCODING 44540
SWIDTH 500 0
DWIDTH 16 0
BBX 16 16 0 0
BITMAP
1030
0FF8
0030
0030
0020
8044
7FFE
2000
0000
0000
1800
0C00
0C20
07F0
0000
0000
ENDCHAR
STARTCHAR U+adfd
ENCODING 44541
SWIDTH 500 0
DWIDTH 16 0
BBX 16 16 0 0
BITMAP
2030
1FF8
0830
0030
0020
8044
7FFE
2000
0000
33F8
1840
1860
18E0
0F98
0108
0000
ENDCHAR
STARTCHAR U+adfe
ENCODING 44542
SWIDTH 500 0
DWIDTH 16 0
BBX 16 16 0 0
BITMAP
2030
1FF8
0830
0030
0020
8044
7FFE
2000
00F0
3008
1BFC
1870
19D8
0ED8
0070
0000
ENDCHAR
STARTCHAR U+adff
ENCODING 44543
SWIDTH 500 0
DWIDTH 16 0
BBX 16 16 0 0
BITMAP
2030
1FF8
0830
0030
0020
8044
7FFE
2000
0000
0010
1FF8
0C00
0C00
0C10
07F8
0000
ENDCHAR
STARTCHAR U+ae00
ENCODING 44544
SWIDTH 500 0
DWIDTH 16 0
BBX 16 16 0 0
BITMAP
1030
0FF8
0030
0030
0020
8044
7FFE
2000
0020
1FF0
0020
1FF0
0C00
0C20
07F0
0000
ENDCHAR
STARTCHAR U+ae01
ENCODING 44545
SWIDTH 500 0
DWIDTH 16 0
BBX 16 16 0 0
BITMAP
1030
0FF8
0030
0030
0020
8044
7FFE
0000
2088
1FFC
0118
3F98
1818
1998
0E10
0000
ENDCHAR
STARTCHAR U+ae02
ENCODING 44546
SWIDTH 500 0
DWIDTH 16 0
BBX 16 16 0 0
BITMAP
2030
1FF8
0830
0030
0020
8044
7FFE
2000
0118
3FFC
0198
3F98
1890
1BF8
0C80
0000
ENDCHAR
STARTCHAR U+ae03
ENCODING 44547
SWIDTH 500 0
DWIDTH 16 0
BBX 16 16 0 0
BITMAP
2030
1FF8
0830
0030
0020
8044
7FFE
2000
0310
3F98
02F8
3F98
1898
19F8
0E90
0000
ENDCHAR
STARTCHAR U+ae04
ENCODING 44548
SWIDTH 500 0
DWIDTH 16 0
BBX 16 16 0 0
BITMAP
2030
1FF8
0830
0030
0020
8044
7FFE
2000
0200
3F60
0230
3F60
1850
198C
0F04
0000
ENDCHAR
STARTCHAR U+ae05
ENCODING 44549
SWIDTH 500 0
DWIDTH 16 0
BBX 16 16 0 0
BITMAP
2030
1FF8
0830
0030
0020
8044
7FFE
2000
0208
3FFC
01C0
3FF8
18C0
18C0
0F7C
0000
ENDCHAR
STARTCHAR U+ae06
ENCODING 44550
SWIDTH 500 0
DWIDTH 16 0
BBX 16 16 0 0
BITMAP
2030
1FF8
0830
0030
0020
8044
7FFE
2000
0208
3FFC
0200
3F98
18D8
1B50
0CFC
0000
ENDCHAR
STARTCHAR U+ae07
ENCODING 44551
SWIDTH 500 0
DWIDTH 16 0
BBX 16 16 0 0
BITMAP
2030
1FF8
0830
0030
0020
8044
7FFE
2000
0260
3F28
03FC
3F70
1888
1988
0E70
0000
ENDCHAR
STARTCHAR U+ae08
ENCODING 44552
SWIDTH 500 0
DWIDTH 16 0
BBX 16 16 0 0
BITMAP
1030
0FF8
0030
0030
0020
8044
7FFE
2000
0000
0030
1FF8
0C30
0C20
0C20
0FF0
0800
ENDCHAR
STARTCHAR U+ae09
ENCODING 44553
SWIDTH 500 0
DWIDTH 16 0
BBX 16 16 0 0
BITMAP
1030
0FF8
0030
0030
0020
8044
7FFE
2000
0000
0060
1830
0FF0
0C30
0C30
0FF0
0820
ENDCHAR
STARTCHAR U+ae0a
ENCODING 44554
SWIDTH 500 0
DWIDTH 16 0
BBX 16 16 0 0
BITMAP
2030
1FF8
0830
0030
0020
8044
7FFE
2000
0200
3160
1930
1F30
1958
1FCC
1180
0000
ENDCHAR
STARTCHAR U+ae0b
ENCODING 44555
SWIDTH 500 0
DWIDTH 16 0
BBX 16 16 0 0
BITMAP
1030
0FF8
0030
0030
0020
8044
7FFE
2000
0000
0180
0080
0180
0340
0630
1818
0000
ENDCHAR
STARTCHAR U+ae0c
ENCODING 44556
SWIDTH 500 0
DWIDTH 16 0
BBX 16 16 0 0
BITMAP
2030
1FF8
0830
0030
0020
8044
7FFE
2000
0000
0080
0660
0330
0660
0DD8
3308
0000
ENDCHAR
STARTCHAR U+ae0d
ENCODING 44557
SWIDTH 500 0
DWIDTH 16 0
BBX 16 16 0 0
BITMAP
1030
0FF8
0030
0030
0020
8044
7FFE
2000
0000
0180
0660
0C30
0C30
0660
0180
0000
ENDCHAR
STARTCHAR U+ae0e
ENCODING 44558
SWIDTH 500 0
DWIDTH 16 0
BBX 16 16 0 0
BITMAP
2030
1FF8
0830
0030
0020
8044
7FFE
2000
2010
1FF8
08C0
0180
0340
0630
1818
0000
ENDCHAR
STARTCHAR U+ae0f
ENCODING 44559
SWIDTH 500 0
DWIDTH 16 0
BBX 16 16 0 0
BITMAP
2030
1FF8
0830
0030
0020
8044
7FFE
2000
07C0
2010
1FF8
0180
0340
0630
1818
0000
ENDCHAR
STARTCHAR U+ae10
ENCODING 44560
SWIDTH 500 0
DWIDTH 16 0
BBX 16 16 0 0
BITMAP
2030
1FF8
0830
0030
0020
8044
7FFE
2000
0010
1FF8
0030
1FF0
0830
0030
0020
0000
ENDCHAR
STARTCHAR U+ae11
ENCODING 44561
SWIDTH 500 0
DWIDTH 16 0
BBX 16 16 0 0
BITMAP
2030
1FF8
0830
0030
0020
8044
7FFE
2000
0010
1FF8
0C00
0FF8
0C00
0C10
07F8
0000
ENDCHAR
STARTCHAR U+ae12
ENCODING 44562
SWIDTH 500 0
DWIDTH 16 0
BBX 16 16 0 0
BITMAP
2030
1FF8
0830
0030
0020
8044
7FFE
2000
0010
1FF8
00C0
0C60
0660
1250
0FF8
0000
ENDCHAR
STARTCHAR U+ae13
ENCODING 44563
SWIDTH 500 0
DWIDTH 16 0
BBX 16 16 0 0
BITMAP
2030
1FF8
0830
0030
0020
8044
7FFE
2000
03C0
1010
0FF8
03C0
0420
0420
03C0
0000
ENDCHAR
STARTCHAR U+ae14
ENCODING 44564
SWIDTH 500 0
DWIDTH 16 0
BBX 16 16 0 0
BITMAP
0020
0018
4198
3FD8
1198
0198
0118
0318
82F8
7F18
2018
0018
0018
0018
0010
0000
ENDCHAR
STARTCHAR U+ae15
ENCODING 44565
SWIDTH 500 0
DWIDTH 16 0
BBX 16 16 0 0
BITMAP
0030
4198
3FD8
0198
0198
0118
02F8
FF18
4010
1FFC
0818
0018
0018
0018
0010
0000
ENDCHAR
STARTCHAR U+ae16
ENCODING 44566
SWIDTH 500 0
DWIDTH 16 0
BBX 16 16 0 0
BITMAP
0030
4198
3FD8
0198
0198
0118
02F8
FF18
4010
3FFC
1318
0318
0318
0318
0210
0000
ENDCHAR
STARTCHAR U+ae17
ENCODING 44567
SWIDTH 500 0
DWIDTH 16 0
BBX 16 16 0 0
BITMAP
0030
4198
3FD8
0198
0198
0118
02F8
FF18
4010
0360
3FB0
0360
02D0
038C
0304
0000
ENDCHAR
STARTCHAR U+ae18
ENCODING 44568
SWIDTH 500 0
DWIDTH 16 0
BBX 16 16 0 0
BITMAP
0020
4198
3FD8
0198
0198
0118
0218
02F8
FF18
4018
0018
0C10
0600
0610
03F8
0000
ENDCHAR
STARTCHAR U+ae19
ENCODING 44569
SWIDTH 500 0
DWIDTH 16 0
BBX 16 16 0 0
BITMAP
0030
4198
3FD8
0198
0198
0118
0218
02F8
FF18
4010
33F8
1860
18E0
1998
0F08
0000
ENDCHAR
STARTCHAR U+ae1a
ENCODING 44570
SWIDTH 500 0
DWIDTH 16 0
BBX 16 16 0 0
BITMAP
0030
4198
3FD8
0198
0198
0118
0218
02F8
FF10
40F8
33FC
1870
1888
1B88
0C70
0000
ENDCHAR
STARTCHAR U+ae1b
ENCODING 44571
SWIDTH 500 0
DWIDTH 16 0
BBX 16 16 0 0
BITMAP
0030
4198
3FD8
0198
0198
0118
0218
02F8
FF18
4010
0FF8
0600
0600
0610
03F8
0000
ENDCHAR
STARTCHAR U+ae1c
ENCODING 44572
SWIDTH 500 0
DWIDTH 16 0
BBX 16 16 0 0
BITMAP
0030
4198
3FD8
0198
0198
0118
0218
82F8
7F18
2010
0FF8
0010
0FF8
0600
0610
03F8
ENDCHAR
STARTCHAR U+ae1d
ENCODING 44573
SWIDTH 500 0
DWIDTH 16 0
BBX 16 16 0 0
BITMAP
0030
4198
3FD8
0198
0198
0118
02F8
FF18
4010
1FFC
0218
3F18
1818
1918
0E10
0000
ENDCHAR
STARTCHAR U+ae1e
ENCODING 44574
SWIDTH 500 0
DWIDTH 16 0
BBX 16 16 0 0
BITMAP
0030
4198
3FD8
0198
0198
0118
02F8
FF18
4010
3FFC
0298
3F98
1890
19F8
0E80
0000
ENDCHAR
STARTCHAR U+ae1f
ENCODING 44575
SWIDTH 500 0
DWIDTH 16 0
BBX 16 16 0 0
BITMAP
0030
4198
3FD8
0198
0198
0118
02F8
FF18
4230
3F18
02F8
3F98
1898
19F8
0E90
0000
ENDCHAR
STARTCHAR U+ae20
ENCODING 44576
SWIDTH 500 0
DWIDTH 16 0
BBX 16 16 0 0
BITMAP
0030
4198
3FD8
0198
0198
0118
02F8
FF18
4010
3F60
0230
3F30
1870
19CC
0E04
0000
ENDCHAR
STARTCHAR U+ae21
ENCODING 44577
SWIDTH 500 0
DWIDTH 16 0
BBX 16 16 0 0
BITMAP
0030
4198
3FD8
0198
0198
0118
02F8
FF18
4010
3FF8
02C0
3FF8
18C0
19D0
0E78
0000
ENDCHAR
STARTCHAR U+ae22
ENCODING 44578
SWIDTH 500 0
DWIDTH 16 0
BBX 16 16 0 0
BITMAP
0030
4198
3FD8
0198
0198
0118
02F8
FF18
4010
3FFC
0200
3F98
18D8
1B50
0EFC
0000
ENDCHAR
STARTCHAR U+ae23
ENCODING 44579
SWIDTH 500 0
DWIDTH 16 0
BBX 16 16 0 0
BITMAP
0030
4198
3FD8
0198
0198
0118
02F8
FF18
4070
3F88
02FC
3F70
1888
1988
0E70
0000
ENDCHAR
STARTCHAR U+ae24
ENCODING 44580
SWIDTH 500 0
DWIDTH 16 0
BBX 16 16 0 0
BITMAP
0030
4198
3FD8
0198
0198
0118
02F8
FF18
4018
0010
0FFC
0618
0618
0610
07F8
0400
ENDCHAR
STARTCHAR U+ae25
ENCODING 44581
SWIDTH 500 0
DWIDTH 16 0
BBX 16 16 0 0
BITMAP
0030
4198
3FD8
0198
0198
0118
0218
02F8
FF10
4030
0C18
07F8
0618
0618
07F8
0410
ENDCHAR
STARTCHAR U+ae26
ENCODING 44582
SWIDTH 500 0
DWIDTH 16 0
BBX 16 16 0 0
BITMAP
0030
4198
3FD8
0198
0198
0118
02F8
FF18
4610
3160
1930
1F30
1950
1FC8
118C
0000
ENDCHAR
STARTCHAR U+ae27
ENCODING 44583
SWIDTH 500 0
DWIDTH 16 0
BBX 16 16 0 0
BITMAP
0030
4198
3FD8
0198
0198
0118
0218
03F8
7E18
20D0
0060
00C0
01C0
0338
0C18
0000
ENDCHAR
STARTCHAR U+ae28
ENCODING 44584
SWIDTH 500 0
DWIDTH 16 0
BBX 16 16 0 0
BITMAP
0030
4198
3FD8
0198
0198
0118
0218
02F8
FF18
4010
0670
0330
0660
0CD8
330C
0000
ENDCHAR
STARTCHAR U+ae29
ENCODING 44585
SWIDTH 500 0
DWIDTH 16 0
BBX 16 16 0 0
BITMAP
0020
4198
3FD8
0198
0198
0118
0218
02F8
FF18
40D0
0330
0618
0618
0330
00C0
0000
ENDCHAR
STARTCHAR U+ae2a
ENCODING 44586
SWIDTH 500 0
DWIDTH 16 0
BBX 16 16 0 0
BITMAP
0030
4198
3FD8
0198
0198
0118
0218
02F8
FF18
5010
0FF8
0180
0360
0638
1818
0000
ENDCHAR
STARTCHAR U+ae2b
ENCODING 44587
SWIDTH 500 0
DWIDTH 16 0
BBX 16 16 0 0
BITMAP
0030
4198
3FD8
0198
0198
0118
0218
02F8
FF18
43F0
1010
0FF8
00C0
0180
0370
0C18
ENDCHAR
STARTCHAR U+ae2c
ENCODING 44588
SWIDTH 500 0
DWIDTH 16 0
BBX 16 16 0 0
BITMAP
0030
4198
3FD8
0198
0198
0118
02F8
FF18
4010
0FFC
0018
00F8
0F18
0418
0010
0000
ENDCHAR
STARTCHAR U+ae2d
ENCODING 44589
SWIDTH 500 0
DWIDTH 16 0
BBX 16 16 0 0
BITMAP
0030
4198
3FD8
0198
0198
0118
02F8
FF18
4010
0FF8
0600
07F8
0600
0610
03F8
0000
ENDCHAR
STARTCHAR U+ae2e
ENCODING 44590
SWIDTH 500 0
DWIDTH 16 0
BBX 16 16 0 0
BITMAP
0030
4198
3FD8
0198
0198
0118
02F8
FF18
4010
0FF8
0060
0630
0330
1120
0FF8
0000
ENDCHAR
STARTCHAR U+ae2f
ENCODING 44591
SWIDTH 500 0
DWIDTH 16 0
BBX 16 16 0 0
BITMAP
0030
4198
3FD8
0198
0198
0118
02F8
FF18
4018
03F0
1010
0FF8
01C0
0220
0220
01C0
ENDCHAR
STARTCHAR U+ae30
ENCODING 44592
SWIDTH 500 0
DWIDTH 16 0
BBX 16 16 0 0
BITMAP
0020
0018
0018
4318
3F98
0318
0318
0618
0C18
1818
3018
C018
0018
0018
0010
0000
ENDCHAR
STARTCHAR U+ae31
ENCODING 44593
SWIDTH 500 0
DWIDTH 16 0
BBX 16 16 0 0
BITMAP
0030
0318
7F98
2318
0618
0C18
1818
3018
C010
1FFC
0818
0018
0018
0018
0010
0000
ENDCHAR
STARTCHAR U+ae32
ENCODING 44594
SWIDTH 500 0
DWIDTH 16 0
BBX 16 16 0 0
BITMAP
0030
0318
7F98
2318
0618
0C18
1818
3018
C210
3FFC
1318
0318
0318
0318
0210
0000
ENDCHAR
STARTCHAR U+ae33
ENCODING 44595
SWIDTH 500 0
DWIDTH 16 0
BBX 16 16 0 0
BITMAP
0030
0318
7F98
2318
0618
0C18
1818
3018
C010
0360
3FB0
0360
02D0
038C
0304
0000
ENDCHAR
STARTCHAR U+ae34
ENCODING 44596
SWIDTH 500 0
DWIDTH 16 0
BBX 16 16 0 0
BITMAP
0020
0018
0318
7F98
2318
0318
0618
0C18
1818
3018
C018
0C10
0600
0610
03F8
0000
ENDCHAR
STARTCHAR U+ae35
ENCODING 44597
SWIDTH 500 0
DWIDTH 16 0
BBX 16 16 0 0
BITMAP
0030
0318
7F98
2318
0618
0C18
1818
3018
C010
0000
33F8
1860
18E0
1998
0F08
0000
ENDCHAR
STARTCHAR U+ae36
ENCODING 44598
SWIDTH 500 0
DWIDTH 16 0
BBX 16 16 0 0
BITMAP
0030
0318
7F98
2318
0618
0C18
1818
3018
C010
02F8
33FC
1870
1888
1B88
0C70
0000
ENDCHAR
STARTCHAR U+ae37
ENCODING 44599
SWIDTH 500 0
DWIDTH 16 0
BBX 16 16 0 0
BITMAP
0030
0318
7F98
2318
0618
0C18
1818
3018
C018
0010
0FF8
0600
0600
0610
03F8
0000
ENDCHAR
STARTCHAR U+ae38
ENCODING 44600
SWIDTH 500 0
DWIDTH 16 0
BBX 16 16 0 0
BITMAP
0030
0318
7F98
2318
0318
0618
0C18
1818
3010
CFFC
0010
0FF8
0600
0610
03F8
0000
ENDCHAR
STARTCHAR U+ae39
ENCODING 44601
SWIDTH 500 0
DWIDTH 16 0
BBX 16 16 0 0
BITMAP
0030
0318
7F98
2318
0618
0C18
1818
3018
C010
1FFC
0118
1F98
0C18
0CD8
0710
0000
ENDCHAR
STARTCHAR U+ae3a
ENCODING 44602
SWIDTH 500 0
DWIDTH 16 0
BBX 16 16 0 0
BITMAP
0030
0318
7F98
2318
0618
0C18
1818
3018
C110
3FFC
0298
3F98
1890
19F8
0E80
0000
ENDCHAR
STARTCHAR U+ae3b
ENCODING 44603
SWIDTH 500 0
DWIDTH 16 0
BBX 16 16 0 0
BITMAP
0030
0318
7F98
2318
0618
0C18
1818
3018
C230
3F18
02F8
3F98
1898
19F8
0E90
0000
ENDCHAR
STARTCHAR U+ae3c
ENCODING 44604
SWIDTH 500 0
DWIDTH 16 0
BBX 16 16 0 0
BITMAP
0030
0318
7F98
2318
0618
0C18
1818
3018
C010
3F60
0230
3F30
1870
19CC
0E04
0000
ENDCHAR
STARTCHAR U+ae3d
ENCODING 44605
SWIDTH 500 0
DWIDTH 16 0
BBX 16 16 0 0
BITMAP
0030
0318
7F98
2318
0618
0C18
1818
3018
C110
3FF8
02C0
3FF8
18C0
19D0
0E78
0000
ENDCHAR
STARTCHAR U+ae3e
ENCODING 44606
SWIDTH 500 0
DWIDTH 16 0
BBX 16 16 0 0
BITMAP
0030
0318
7F98
2318
0618
0C18
1818
3018
C210
3FFC
0200
3F98
18D8
1950
0EFC
0000
ENDCHAR
STARTCHAR U+ae3f
ENCODING 44607
SWIDTH 500 0
DWIDTH 16 0
BBX 16 16 0 0
BITMAP
0030
0318
7F98
2318
0618
0C18
1818
3018
C270
3F08
03FC
3E70
1888
1B88
0C70
0000
ENDCHAR
STARTCHAR U+ae40
ENCODING 44608
SWIDTH 500 0
DWIDTH 16 0
BBX 16 16 0 0
BITMAP
0030
0318
7F98
2318
0318
0618
0C18
1818
3010
C008
0FFC
0618
0618
0610
07F8
0400
ENDCHAR
STARTCHAR U+ae41
ENCODING 44609
SWIDTH 500 0
DWIDTH 16 0
BBX 16 16 0 0
BITMAP
0030
0318
7F98
2318
0618
0C18
1818
3018
C010
0030
0C18
07F8
0618
0618
07F8
0410
ENDCHAR
STARTCHAR U+ae42
ENCODING 44610
SWIDTH 500 0
DWIDTH 16 0
BBX 16 16 0 0
BITMAP
0030
0318
7F98
2318
0618
0C18
1818
3018
C018
0610
3160
1930
1F30
1958
1FCC
1180
ENDCHAR
STARTCHAR U+ae43
ENCODING 44611
SWIDTH 500 0
DWIDTH 16 0
BBX 16 16 0 0
BITMAP
0020
0318
7F98
2318
0318
0618
0C18
1818
3018
C198
00D0
0180
0340
0630
1818
0000
ENDCHAR
STARTCHAR U+ae44
ENCODING 44612
SWIDTH 500 0
DWIDTH 16 0
BBX 16 16 0 0
BITMAP
0030
0318
7F98
2318
0618
0C18
1818
3018
C010
0C60
0630
0430
0F60
19D0
6318
0000
ENDCHAR
STARTCHAR U+ae45
ENCODING 44613
SWIDTH 500 0
DWIDTH 16 0
BBX 16 16 0 0
BITMAP
0020
0318
7F98
2318
0618
0C18
1818
3018
C018
00D0
0330
0618
0618
0330
00C0
0000
ENDCHAR
STARTCHAR U+ae46
ENCODING 44614
SWIDTH 500 0
DWIDTH 16 0
BBX 16 16 0 0
BITMAP
0020
0318
7F98
2318
0618
0C18
1818
3018
C018
1010
0FF8
00C0
01C0
0330
0C18
0000
ENDCHAR
STARTCHAR U+ae47
ENCODING 44615
SWIDTH 500 0
DWIDTH 16 0
BBX 16 16 0 0
BITMAP
0030
0318
7F98
2318
0618
0C18
1818
3010
C3F0
0800
07F8
00C0
01A0
0318
0C18
0000
ENDCHAR
STARTCHAR U+ae48
ENCODING 44616
SWIDTH 500 0
DWIDTH 16 0
BBX 16 16 0 0
BITMAP
0030
0318
7F98
2318
0618
0C18
1818
3018
C010
1FFC
0018
01F8
1E18
0818
0010
0000
ENDCHAR
STARTCHAR U+ae49
ENCODING 44617
SWIDTH 500 0
DWIDTH 16 0
BBX 16 16 0 0
BITMAP
0030
0318
7F98
2318
0618
0C18
1818
3018
C010
0FF8
0600
07F8
0600
0610
03F8
0000
ENDCHAR
STARTCHAR U+ae4a
ENCODING 44618
SWIDTH 500 0
DWIDTH 16 0
BBX 16 16 0 0
BITMAP
0030
0318
7F98
2318
0318
0618
0C18
1818
3018
C010
1FF0
0820
0460
2660
1FF8
0000
ENDCHAR
STARTCHAR U+ae4b
ENCODING 44619
SWIDTH 500 0
DWIDTH 16 0
BBX 16 16 0 0
BITMAP
0030
0318
7F98
2318
0618
0C18
1818
3018
C3F0
1008
0FFC
01C0
0220
0220
01C0
0000
ENDCHAR
STARTCHAR U+ae4c
ENCODING 44620
SWIDTH 500 0
DWIDTH 16 0
BBX 16 16 0 0
BITMAP
0020
0018
0018
0898
7FD8
0D98
0998
191E
1318
2218
4418
8818
0018
0018
0010
0000
ENDCHAR
STARTCHAR U+ae4d
ENCODING 44621
SWIDTH 500 0
DWIDTH 16 0
BBX 16 16 0 0
BITMAP
0020
0898
7FD8
1998
1118
331E
2218
4410
8818
3FFC
1018
0018
0018
0018
0010
0000
ENDCHAR
STARTCHAR U+ae4e
ENCODING 44622
SWIDTH 500 0
DWIDTH 16 0
BBX 16 16 0 0
BITMAP
0020
0898
7FD8
1998
1118
331E
2218
4410
8918
3FFC
1318
0318
0318
0318
0210
0000
ENDCHAR
STARTCHAR U+ae4f
ENCODING 44623
SWIDTH 500 0
DWIDTH 16 0
BBX 16 16 0 0
BITMAP
0030
0898
7FD8
1998
1118
331E
2218
4418
8810
1360
3FB0
0330
0330
034C
0284
0000
ENDCHAR
STARTCHAR U+ae50
ENCODING 44624
SWIDTH 500 0
DWIDTH 16 0
BBX 16 16 0 0
BITMAP
0020
0898
7FD8
1998
1118
3318
221E
4418
8818
1018
0010
1C00
0600
0610
03F8
0000
ENDCHAR
STARTCHAR U+ae51
ENCODING 44625
SWIDTH 500 0
DWIDTH 16 0
BBX 16 16 0 0
BITMAP
0030
0898
7FD8
1998
1118
331E
2218
4418
8818
1010
19FC
0C30
0C70
0CCC
0784
0000
ENDCHAR
STARTCHAR U+ae52
ENCODING 44626
SWIDTH 500 0
DWIDTH 16 0
BBX 16 16 0 0
BITMAP
0030
0898
7FD8
1998
1118
331E
2218
4410
88F0
1008
33FC
1860
1890
1B90
0C60
0000
ENDCHAR
STARTCHAR U+ae53
ENCODING 44627
SWIDTH 500 0
DWIDTH 16 0
BBX 16 16 0 0
BITMAP
0030
0898
7FD8
1998
1118
331E
2218
4418
8818
1010
1FF8
0600
0600
0610
03F8
0000
ENDCHAR
STARTCHAR U+ae54
ENCODING 44628
SWIDTH 500 0
DWIDTH 16 0
BBX 16 16 0 0
BITMAP
0020
0898
7FD8
1998
1118
331E
2218
4418
8810
0FF8
0010
0FF8
0600
0610
03F8
0000
ENDCHAR
STARTCHAR U+ae55
ENCODING 44629
SWIDTH 500 0
DWIDTH 16 0
BBX 16 16 0 0
BITMAP
0030
0898
7FD8
1998
1118
331E
2218
4418
8910
3FFC
0218
3F18
1818
1998
0E10
0000
ENDCHAR
STARTCHAR U+ae56
ENCODING 44630
SWIDTH 500 0
DWIDTH 16 0
BBX 16 16 0 0
BITMAP
0030
0898
7FD8
1998
111E
3318
2218
4418
8810
3FFC
0298
3F98
1890
19F8
0E80
0000
ENDCHAR
STARTCHAR U+ae57
ENCODING 44631
SWIDTH 500 0
DWIDTH 16 0
BBX 16 16 0 0
BITMAP
0030
0898
7FD8
1998
111E
3318
2218
4418
8A30
3F18
02F8
3F98
1898
19F8
0E90
0000
ENDCHAR
STARTCHAR U+ae58
ENCODING 44632
SWIDTH 500 0
DWIDTH 16 0
BBX 16 16 0 0
BITMAP
0030
0898
7FD8
1998
111E
3318
2218
4418
8810
3F60
0230
3F30
1870
19CC
0E04
0000
ENDCHAR
STARTCHAR U+ae59
ENCODING 44633
SWIDTH 500 0
DWIDTH 16 0
BBX 16 16 0 0
BITMAP
0030
0898
7FD8
1998
1118
331E
2218
4418
8910
1FF8
02C0
1FF8
0CC0
0DD0
0678
0000
ENDCHAR
STARTCHAR U+ae5a
ENCODING 44634
SWIDTH 500 0
DWIDTH 16 0
BBX 16 16 0 0
BITMAP
0030
0898
7FD8
1998
111E
3318
2218
4418
8A10
3FFC
0200
3F98
18D8
1950
0EFC
0000
ENDCHAR
STARTCHAR U+ae5b
ENCODING 44635
SWIDTH 500 0
DWIDTH 16 0
BBX 16 16 0 0
BITMAP
0030
0898
7FD8
1998
1118
331E
2218
4410
8970
1F88
01FC
1F70
0888
0988
0670
0000
ENDCHAR
STARTCHAR U+ae5c
ENCODING 44636
SWIDTH 500 0
DWIDTH 16 0
BBX 16 16 0 0
BITMAP
0020
0898
7FD8
1998
1118
331E
2218
4418
8810
0008
0FFC
0618
0618
0610
07F8
0400
ENDCHAR
STARTCHAR U+ae5d
ENCODING 44637
SWIDTH 500 0
DWIDTH 16 0
BBX 16 16 0 0
BITMAP
0020
0898
7FD8
1998
1118
331E
2218
4418
8830
0018
0C18
07F8
0618
0618
07F8
0410
ENDCHAR
STARTCHAR U+ae5e
ENCODING 44638
SWIDTH 500 0
DWIDTH 16 0
BBX 16 16 0 0
BITMAP
0030
0898
7FD8
1998
1118
331E
2218
4418
8818
1610
3160
1930
1F30
1958
1FCC
1180
ENDCHAR
STARTCHAR U+ae5f
ENCODING 44639
SWIDTH 500 0
DWIDTH 16 0
BBX 16 16 0 0
BITMAP
0020
0898
7FD8
0D98
1998
1B1E
3218
6418
8818
1190
00C0
0180
0360
0638
1818
0000
ENDCHAR
STARTCHAR U+ae60
ENCODING 44640
SWIDTH 500 0
DWIDTH 16 0
BBX 16 16 0 0
BITMAP
0020
0898
7FD8
0D98
1998
1B1E
3218
4418
8818
1010
0660
0330
0660
0CD0
3318
0000
ENDCHAR
STARTCHAR U+ae61
ENCODING 44641
SWIDTH 500 0
DWIDTH 16 0
BBX 16 16 0 0
BITMAP
0020
0898
7FD8
1998
1118
331E
2218
4418
8810
11C0
0630
0C18
0C18
0630
01C0
0000
ENDCHAR
STARTCHAR U+ae62
ENCODING 44642
SWIDTH 500 0
DWIDTH 16 0
BBX 16 16 0 0
BITMAP
0020
0898
7FD8
0D98
1998
1B1E
3218
4418
8818
1010
0FF8
04C0
01C0
0330
0C18
0000
ENDCHAR
STARTCHAR U+ae63
ENCODING 44643
SWIDTH 500 0
DWIDTH 16 0
BBX 16 16 0 0
BITMAP
0030
0898
7FD8
1998
1118
331E
2218
4418
8BF0
1010
0FF8
00C0
0180
0370
0C18
0000
ENDCHAR
STARTCHAR U+ae64
ENCODING 44644
SWIDTH 500 0
DWIDTH 16 0
BBX 16 16 0 0
BITMAP
0030
0898
7FD8
1998
1118
331E
2218
4418
8810
1FFC
0018
00F8
0F18
0418
0010
0000
ENDCHAR
STARTCHAR U+ae65
ENCODING 44645
SWIDTH 500 0
DWIDTH 16 0
BBX 16 16 0 0
BITMAP
0020
0898
7FD8
1998
1118
331E
2218
4418
8810
1FF8
0600
07F8
0600
0610
03F8
0000
ENDCHAR
STARTCHAR U+ae66
ENCODING 44646
SWIDTH 500 0
DWIDTH 16 0
BBX 16 16 0 0
BITMAP
0030
0898
7FD8
1998
1118
331E
2218
4418
8810
1010
0FF8
0410
0230
1328
0FFC
0000
ENDCHAR
STARTCHAR U+ae67
ENCODING 44647
SWIDTH 500 0
DWIDTH 16 0
BBX 16 16 0 0
BITMAP
0030
0898
7FD8
1998
1118
331E
2218
4418
8BF0
1010
0FF8
01C0
0220
0220
01C0
0000
ENDCHAR
STARTCHAR U+ae68
ENCODING 44648
SWIDTH 500 0
DWIDTH 16 0
BBX 16 16 0 0
BITMAP
0020
0118
0098
2298
FF98
3698
3698
24F8
6C98
4898
4898
9098
0098
0098
0010
0000
ENDCHAR
STARTCHAR U+ae69
ENCODING 44649
SWIDTH 500 0
DWIDTH 16 0
BBX 16 16 0 0
BITMAP
0020
0198
22D8
FFD8
36D8
26F8
4CD8
48D8
90D8
2090
1FFC
0818
0018
0018
0010
0000
ENDCHAR
STARTCHAR U+ae6a
ENCODING 44650
SWIDTH 500 0
DWIDTH 16 0
BBX 16 16 0 0
BITMAP
0020
0118
22D8
FFD8
36D8
26F8
4CD8
4898
9010
2118
3FFC
1318
0318
0318
0210
0000
ENDCHAR
STARTCHAR U+ae6b
ENCODING 44651
SWIDTH 500 0
DWIDTH 16 0
BBX 16 16 0 0
BITMAP
0020
0118
22D8
FFD8
36D8
26F8
4CD8
4898
9010
2360
3FB0
0330
0330
034C
0284
0000
ENDCHAR
STARTCHAR U+ae6c
ENCODING 44652
SWIDTH 500 0
DWIDTH 16 0
BBX 16 16 0 0
BITMAP
0020
0198
22D8
FFD8
36D8
26F8
4CD8
48D8
90D8
2098
0010
0C00
0600
0610
03F8
0000
ENDCHAR
STARTCHAR U+ae6d
ENCODING 44653
SWIDTH 500 0
DWIDTH 16 0
BBX 16 16 0 0
BITMAP
0020
0118
22D8
FFD8
36D8
26F8
4CD8
48D8
9098
2010
19FC
0C30
0C70
0CCC
0784
0000
ENDCHAR
STARTCHAR U+ae6e
ENCODING 44654
SWIDTH 500 0
DWIDTH 16 0
BBX 16 16 0 0
BITMAP
0020
0118
22D8
FFD8
36D8
26F8
4CD8
4890
9070
2008
33FC
1860
1890
1B90
0C60
0000
ENDCHAR
STARTCHAR U+ae6f
ENCODING 44655
SWIDTH 500 0
DWIDTH 16 0
BBX 16 16 0 0
BITMAP
0020
0198
22D8
FFD8
36D8
26F8
4CD8
48D8
90D8
2090
0FF8
0600
0600
0610
03F8
0000
ENDCHAR
STARTCHAR U+ae70
ENCODING 44656
SWIDTH 500 0
DWIDTH 16 0
BBX 16 16 0 0
BITMAP
0020
0198
22D8
FFD8
36D8
36D8
24F8
6CD8
48D8
9090
1FF8
0010
1FF8
0600
0610
03F8
ENDCHAR
STARTCHAR U+ae71
ENCODING 44657
SWIDTH 500 0
DWIDTH 16 0
BBX 16 16 0 0
BITMAP
0030
0118
22D8
FFD8
36D8
26F8
4CD8
4898
9110
3FFC
0218
3F18
1818
1998
0E10
0000
ENDCHAR
STARTCHAR U+ae72
ENCODING 44658
SWIDTH 500 0
DWIDTH 16 0
BBX 16 16 0 0
BITMAP
0030
0118
22D8
FFD8
36D8
26F8
4CD8
4898
9010
3FFC
0298
3F98
1890
19F8
0E80
0000
ENDCHAR
STARTCHAR U+ae73
ENCODING 44659
SWIDTH 500 0
DWIDTH 16 0
BBX 16 16 0 0
BITMAP
0030
0118
22D8
FFD8
36D8
26F8
4CD8
4898
9230
3F18
02F8
3F98
1898
19F8
0E90
0000
ENDCHAR
STARTCHAR U+ae74
ENCODING 44660
SWIDTH 500 0
DWIDTH 16 0
BBX 16 16 0 0
BITMAP
0030
0118
22D8
FFD8
36D8
26F8
4CD8
4898
9010
3F60
0230
3F30
1870
19CC
0E04
0000
ENDCHAR
STARTCHAR U+ae75
ENCODING 44661
SWIDTH 500 0
DWIDTH 16 0
BBX 16 16 0 0
BITMAP
0030
0118
22D8
FFD8
36D8
26F8
4CD8
4898
9110
3FF8
02C0
1FF8
0CC0
0DD0
0678
0000
ENDCHAR
STARTCHAR U+ae76
ENCODING 44662
SWIDTH 500 0
DWIDTH 16 0
BBX 16 16 0 0
BITMAP
0030
0118
22D8
FFD8
36D8
26F8
4CD8
4898
9210
3FFC
0200
3F98
18D8
1950
0EFC
0000
ENDCHAR
STARTCHAR U+ae77
ENCODING 44663
SWIDTH 500 0
DWIDTH 16 0
BBX 16 16 0 0
BITMAP
0030
0118
22D8
FFD8
36F8
26D8
4C98
4810
9170
3F88
01FC
1F70
0888
0988
0670
0000
ENDCHAR
STARTCHAR U+ae78
ENCODING 44664
SWIDTH 500 0
DWIDTH 16 0
BBX 16 16 0 0
BITMAP
0020
0198
22D8
FFD8
36D8
26F8
6CD8
48D8
90D8
2090
0FFC
0618
0618
0610
07F8
0400
ENDCHAR
STARTCHAR U+ae79
ENCODING 44665
SWIDTH 500 0
DWIDTH 16 0
BBX 16 16 0 0
BITMAP
0020
0198
22D8
FFD8
36D8
26F8
6CD8
48D8
90D8
20B0
0C18
07F8
0618
0618
07F8
0410
ENDCHAR
STARTCHAR U+ae7a
ENCODING 44666
SWIDTH 500 0
DWIDTH 16 0
BBX 16 16 0 0
BITMAP
0030
0118
22D8
FFD8
36D8
26D8
4CF8
48D8
9098
2610
3160
1930
1F30
1958
1FCC
1180
ENDCHAR
STARTCHAR U+ae7b
ENCODING 44667
SWIDTH 500 0
DWIDTH 16 0
BBX 16 16 0 0
BITMAP
0020
0198
22D8
FFD8
36D8
26F8
6CD8
48D8
90D8
2190
00C0
00C0
01A0
0318
0C18
0000
ENDCHAR
STARTCHAR U+ae7c
ENCODING 44668
SWIDTH 500 0
DWIDTH 16 0
BBX 16 16 0 0
BITMAP
0020
0198
22D8
FFD8
36D8
26F8
6CD8
48D8
90D8
2090
0630
0330
0660
0CD0
3318
0000
ENDCHAR
STARTCHAR U+ae7d
ENCODING 44669
SWIDTH 500 0
DWIDTH 16 0
BBX 16 16 0 0
BITMAP
0020
0198
22D8
FFD8
36D8
26F8
6CD8
48D8
9098
20D0
0330
0618
0618
0330
00C0
0000
ENDCHAR
STARTCHAR U+ae7e
ENCODING 44670
SWIDTH 500 0
DWIDTH 16 0
BBX 16 16 0 0
BITMAP
0020
0198
22D8
FFD8
36D8
26F8
4CD8
48D8
90D8
3090
0FF8
0180
0360
0638
1818
0000
ENDCHAR
STARTCHAR U+ae7f
ENCODING 44671
SWIDTH 500 0
DWIDTH 16 0
BBX 16 16 0 0
BITMAP
0030
0118
22D8
FFD8
36D8
26F8
4CD8
4898
93F0
3010
0FF8
00C0
0180
0370
0C18
0000
ENDCHAR
STARTCHAR U+ae80
ENCODING 44672
SWIDTH 500 0
DWIDTH 16 0
BBX 16 16 0 0
BITMAP
0030
0118
22D8
FFD8
36D8
26F8
4CD8
4898
9010
2FFC
0018
00F8
0F18
0418
0010
0000
ENDCHAR
STARTCHAR U+ae81
ENCODING 44673
SWIDTH 500 0
DWIDTH 16 0
BBX 16 16 0 0
BITMAP
0020
0198
22D8
FFD8
36D8
26F8
4CD8
48D8
90D0
2FF8
0600
07F8
0600
0610
03F8
0000
ENDCHAR
STARTCHAR U+ae82
ENCODING 44674
SWIDTH 500 0
DWIDTH 16 0
BBX 16 16 0 0
BITMAP
0020
0198
22D8
FFD8
36D8
26F8
4CD8
48D8
9090
2FF8
0060
0630
0330
1120
0FF8
0000
ENDCHAR
STARTCHAR U+ae83
ENCODING 44675
SWIDTH 500 0
DWIDTH 16 0
BBX 16 16 0 0
BITMAP
0030
0198
22D8
FFD8
36D8
26F8
4C98
4818
93F0
3010
0FF8
01C0
0220
0220
01C0
0000
ENDCHAR
STARTCHAR U+ae84
ENCODING 44676
SWIDTH 500 0
DWIDTH 16 0
BBX 16 16 0 0
BITMAP
0030
0018
0898
7FD8
0D98
191E
1318
2218
441E
8818
1018
0018
0018
0018
0010
0000
ENDCHAR
STARTCHAR U+ae85
ENCODING 44677
SWIDTH 500 0
DWIDTH 16 0
BBX 16 16 0 0
BITMAP
0030
0898
7FD8
199E
1118
3318
221E
4418
8810
1FFC
0818
0018
0018
0018
0010
0000
ENDCHAR
STARTCHAR U+ae86
ENCODING 44678
SWIDTH 500 0
DWIDTH 16 0
BBX 16 16 0 0
BITMAP
0020
0898
7FD8
1998
111E
3318
221E
4410
8918
3FFC
1318
0318
0318
0318
0210
0000
ENDCHAR
STARTCHAR U+ae87
ENCODING 44679
SWIDTH 500 0
DWIDTH 16 0
BBX 16 16 0 0
BITMAP
0030
0898
7FD8
1998
111E
3318
221E
4418
8810
1360
3FB0
0330
0330
034C
0284
0000
ENDCHAR
STARTCHAR U+ae88
ENCODING 44680
SWIDTH 500 0
DWIDTH 16 0
BBX 16 16 0 0
BITMAP
0020
0898
7FD8
1998
111E
3318
2218
441E
8818
1018
0018
0C10
0600
0610
03F8
0000
ENDCHAR
STARTCHAR U+ae89
ENCODING 44681
SWIDTH 500 0
DWIDTH 16 0
BBX 16 16 0 0
BITMAP
0030
0898
7FD8
1998
111E
3318
2218
441E
8818
1010
19FC
0C30
0C70
0CCC
0784
0000
ENDCHAR
STARTCHAR U+ae8a
ENCODING 44682
SWIDTH 500 0
DWIDTH 16 0
BBX 16 16 0 0
BITMAP
0030
0898
7FD8
199E
1118
331E
2218
4410
88F0
1008
33FC
1860
1890
1B90
0C60
0000
ENDCHAR
STARTCHAR U+ae8b
ENCODING 44683
SWIDTH 500 0
DWIDTH 16 0
BBX 16 16 0 0
BITMAP
0030
0898
7FD8
1998
111E
3318
2218
441E
8818
1010
1FF8
0600
0600
0610
03F8
0000
ENDCHAR
STARTCHAR U+ae8c
ENCODING 44684
SWIDTH 500 0
DWIDTH 16 0
BBX 16 16 0 0
BITMAP
0030
0898
7FD8
1998
111E
3318
221E
4418
8810
1FF8
0010
0FF8
0600
0610
03F8
0000
ENDCHAR
STARTCHAR U+ae8d
ENCODING 44685
SWIDTH 500 0
DWIDTH 16 0
BBX 16 16 0 0
BITMAP
0030
0898
7FD8
1998
111E
3318
221E
4418
8910
3FFC
0218
3F18
1818
1998
0E10
0000
ENDCHAR
STARTCHAR U+ae8e
ENCODING 44686
SWIDTH 500 0
DWIDTH 16 0
BBX 16 16 0 0
BITMAP
0030
0898
7FD8
1998
111E
3318
221E
4418
8810
3FFC
0298
3F98
1890
19F8
0E80
0000
ENDCHAR
STARTCHAR U+ae8f
ENCODING 44687
SWIDTH 500 0
DWIDTH 16 0
BBX 16 16 0 0
BITMAP
0030
0898
7FD8
1998
111E
3318
221E
4418
8A30
3F18
02F8
3F98
1898
19F8
0E90
0000
ENDCHAR
STARTCHAR U+ae90
ENCODING 44688
SWIDTH 500 0
DWIDTH 16 0
BBX 16 16 0 0
BITMAP
0030
0898
7FD8
1998
111E
3318
221E
4418
8810
3F60
0230
3F30
1870
19CC
0E04
0000
ENDCHAR
STARTCHAR U+ae91
ENCODING 44689
SWIDTH 500 0
DWIDTH 16 0
BBX 16 16 0 0
BITMAP
0030
0898
7FD8
1998
111E
3318
221E
4418
8910
1FF8
02C0
1FF8
0CC0
0DD0
0678
0000
ENDCHAR
STARTCHAR U+ae92
ENCODING 44690
SWIDTH 500 0
DWIDTH 16 0
BBX 16 16 0 0
BITMAP
0030
0898
7FD8
1998
111E
3318
221E
4418
8A10
3FFC
0200
3F98
18D8
1950
0EFC
0000
ENDCHAR
STARTCHAR U+ae93
ENCODING 44691
SWIDTH 500 0
DWIDTH 16 0
BBX 16 16 0 0
BITMAP
0030
0898
7FD8
199E
1118
331E
2218
4410
8970
1F88
01FC
1F70
0888
0988
0670
0000
ENDCHAR
STARTCHAR U+ae94
ENCODING 44692
SWIDTH 500 0
DWIDTH 16 0
BBX 16 16 0 0
BITMAP
0030
0898
7FD8
1998
111E
3318
2218
441E
8818
1010
0FFC
0618
0618
0610
07F8
0400
ENDCHAR
STARTCHAR U+ae95
ENCODING 44693
SWIDTH 500 0
DWIDTH 16 0
BBX 16 16 0 0
BITMAP
0030
0898
7FD8
199E
1118
331E
2218
4418
8830
1018
0C18
07F8
0618
0618
07F8
0410
ENDCHAR
STARTCHAR U+ae96
ENCODING 44694
SWIDTH 500 0
DWIDTH 16 0
BBX 16 16 0 0
BITMAP
0030
0898
7FD8
199E
1118
3318
221E
4418
8818
1610
3160
1930
1F30
1958
1FCC
1180
ENDCHAR
STARTCHAR U+ae97
ENCODING 44695
SWIDTH 500 0
DWIDTH 16 0
BBX 16 16 0 0
BITMAP
0020
0898
7FD8
199E
1118
3318
221E
4418
8818
1198
00D0
0180
0360
0638
1818
0000
ENDCHAR
STARTCHAR U+ae98
ENCODING 44696
SWIDTH 500 0
DWIDTH 16 0
BBX 16 16 0 0
BITMAP
0030
0898
7FD8
199E
1118
3318
221E
4418
8818
1010
0660
0330
0620
0D70
3198
0000
ENDCHAR
STARTCHAR U+ae99
ENCODING 44697
SWIDTH 500 0
DWIDTH 16 0
BBX 16 16 0 0
BITMAP
0030
0898
7FD8
199E
1118
3318
221E
4418
8818
10D0
0330
0618
0618
0330
00C0
0000
ENDCHAR
STARTCHAR U+ae9a
ENCODING 44698
SWIDTH 500 0
DWIDTH 16 0
BBX 16 16 0 0
BITMAP
0030
0898
7FD8
199E
1118
3318
221E
4418
8818
1010
1FF8
0980
0340
0630
1818
0000
ENDCHAR
STARTCHAR U+ae9b
ENCODING 44699
SWIDTH 500 0
DWIDTH 16 0
BBX 16 16 0 0
BITMAP
0030
0898
7FD8
199E
1118
3318
221E
4418
8BF0
1010
0FF8
00C0
0180
0370
0C18
0000
ENDCHAR
STARTCHAR U+ae9c
ENCODING 44700
SWIDTH 500 0
DWIDTH 16 0
BBX 16 16 0 0
BITMAP
0030
0898
7FD8
1998
111E
3318
221E
4418
8810
1FFC
0018
00F8
0F18
0418
0010
0000
ENDCHAR
STARTCHAR U+ae9d
ENCODING 44701
SWIDTH 500 0
DWIDTH 16 0
BBX 16 16 0 0
BITMAP
0030
0898
7FD8
1998
111E
3318
221E
4418
8810
1FF8
0600
07F8
0600
0610
03F8
0000
ENDCHAR
STARTCHAR U+ae9e
ENCODING 44702
SWIDTH 500 0
DWIDTH 16 0
BBX 16 16 0 0
BITMAP
0030
0898
7FD8
1998
111E
3318
221E
4418
8810
1010
0FF8
0410
0230
1328
0FFC
0000
ENDCHAR
STARTCHAR U+ae9f
ENCODING 44703
SWIDTH 500 0
DWIDTH 16 0
BBX 16 16 0 0
BITMAP
0030
0898
7FD8
1998
111E
3318
221E
4418
8BF0
1010
0FF8
01C0
0220
0220
01C0
0000
ENDCHAR
STARTCHAR U+aea0
ENCODING 44704
SWIDTH 500 0
DWIDTH 16 0
BBX 16 16 0 0
BITMAP
0020
0118
00D8
22D8
FFD8
36F8
36D8
24D8
6CF8
48D8
48D8
90D8
00D8
0098
0010
0000
ENDCHAR
STARTCHAR U+aea1
ENCODING 44705
SWIDTH 500 0
DWIDTH 16 0
BBX 16 16 0 0
BITMAP
0020
0118
22D8
FFD8
36F8
26D8
4CD8
48F8
90D8
2090
1FF8
0818
0018
0018
0010
0000
ENDCHAR
STARTCHAR U+aea2
ENCODING 44706
SWIDTH 500 0
DWIDTH 16 0
BBX 16 16 0 0
BITMAP
0020
0118
22D8
FFD8
36F8
26D8
4CF8
48D8
9090
2118
3FFC
1318
0318
0318
0210
0000
ENDCHAR
STARTCHAR U+aea3
ENCODING 44707
SWIDTH 500 0
DWIDTH 16 0
BBX 16 16 0 0
BITMAP
0020
0198
22D8
FFF8
36D8
26D8
4CF8
48D8
9090
2360
3FB0
0330
0330
034C
0284
0000
ENDCHAR
STARTCHAR U+aea4
ENCODING 44708
SWIDTH 500 0
DWIDTH 16 0
BBX 16 16 0 0
BITMAP
0020
0198
22D8
FFD8
36F8
26D8
4CD8
48F8
90D8
20D8
0098
0C10
0600
0610
03F8
0000
ENDCHAR
STARTCHAR U+aea5
ENCODING 44709
SWIDTH 500 0
DWIDTH 16 0
BBX 16 16 0 0
BITMAP
0020
0118
22D8
FFD8
36F8
26D8
4CD8
48F8
90D8
2090
19FC
0C30
0C70
0CCC
0784
0000
ENDCHAR
STARTCHAR U+aea6
ENCODING 44710
SWIDTH 500 0
DWIDTH 16 0
BBX 16 16 0 0
BITMAP
0020
0118
22D8
FFF8
36D8
26F8
4CD8
4890
9070
2008
33FC
1860
1890
1B90
0C60
0000
ENDCHAR
STARTCHAR U+aea7
ENCODING 44711
SWIDTH 500 0
DWIDTH 16 0
BBX 16 16 0 0
BITMAP
0020
0198
22D8
FFD8
36F8
26D8
4CD8
48F8
90D8
2090
0FF8
0600
0600
0610
03F8
0000
ENDCHAR
STARTCHAR U+aea8
ENCODING 44712
SWIDTH 500 0
DWIDTH 16 0
BBX 16 16 0 0
BITMAP
0020
0198
22D8
FFF8
36D8
26D8
4CF8
48D8
9090
2FF8
0010
0FF8
0600
0610
03F8
0000
ENDCHAR
STARTCHAR U+aea9
ENCODING 44713
SWIDTH 500 0
DWIDTH 16 0
BBX 16 16 0 0
BITMAP
0030
0118
22D8
FFF8
36D8
26F8
4CD8
4898
9110
3FFC
0218
3F18
1818
1998
0E10
0000
ENDCHAR
STARTCHAR U+aeaa
ENCODING 44714
SWIDTH 500 0
DWIDTH 16 0
BBX 16 16 0 0
BITMAP
0030
0118
22D8
FFF8
36D8
26D8
4CF8
48D8
9090
3FFC
0298
3F98
1890
19F8
0E80
0000
ENDCHAR
STARTCHAR U+aeab
ENCODING 44715
SWIDTH 500 0
DWIDTH 16 0
BBX 16 16 0 0
BITMAP
0030
0118
22D8
FFF8
36D8
26F8
4CD8
4898
9230
3F18
02F8
3F98
1898
19F8
0E90
0000
ENDCHAR
STARTCHAR U+aeac
ENCODING 44716
SWIDTH 500 0
DWIDTH 16 0
BBX 16 16 0 0
BITMAP
0030
0118
22D8
FFF8
36D8
26D8
4CF8
48D8
9090
3F60
0230
3F30
1870
19CC
0E04
0000
ENDCHAR
STARTCHAR U+aead
ENCODING 44717
SWIDTH 500 0
DWIDTH 16 0
BBX 16 16 0 0
BITMAP
0030
0118
22D8
FFF8
36D8
26F8
4CD8
4898
9110
3FF8
02C0
1FF8
0CC0
0DD0
0678
0000
ENDCHAR
STARTCHAR U+aeae
ENCODING 44718
SWIDTH 500 0
DWIDTH 16 0
BBX 16 16 0 0
BITMAP
0030
0118
22D8
FFF8
36D8
26D8
4CF8
48D8
9290
3FFC
0200
3F98
18D8
1950
0EFC
0000
ENDCHAR
STARTCHAR U+aeaf
ENCODING 44719
SWIDTH 500 0
DWIDTH 16 0
BBX 16 16 0 0
BITMAP
0030
0118
22D8
FFF8
36D8
26F8
4CD8
4890
9170
3F88
01FC
1F70
0888
0988
0670
0000
ENDCHAR
STARTCHAR U+aeb0
ENCODING 44720
SWIDTH 500 0
DWIDTH 16 0
BBX 16 16 0 0
BITMAP
0020
0118
22D8
FFF8
36D8
26D8
4CF8
48D8
9090
2008
0FFC
0618
0618
0610
07F8
0400
ENDCHAR
STARTCHAR U+aeb1
ENCODING 44721
SWIDTH 500 0
DWIDTH 16 0
BBX 16 16 0 0
BITMAP
0020
0118
22D8
FFF8
36D8
26D8
4CF8
48D8
90D0
20B0
0C18
07F8
0618
0618
07F8
0410
ENDCHAR
STARTCHAR U+aeb2
ENCODING 44722
SWIDTH 500 0
DWIDTH 16 0
BBX 16 16 0 0
BITMAP
0030
0118
22D8
FFF8
36D8
26D8
4CF8
48D8
9098
2610
3160
1930
1F30
1958
1FCC
1180
ENDCHAR
STARTCHAR U+aeb3
ENCODING 44723
SWIDTH 500 0
DWIDTH 16 0
BBX 16 16 0 0
BITMAP
0020
0198
22D8
FFF8
36D8
26D8
4CF8
48D8
90D8
2198
00D0
0180
0360
0638
1818
0000
ENDCHAR
STARTCHAR U+aeb4
ENCODING 44724
SWIDTH 500 0
DWIDTH 16 0
BBX 16 16 0 0
BITMAP
0020
0198
22D8
FFF8
36D8
26D8
4CF8
48D8
90D8
2098
0670
0330
0670
0DCC
3304
0000
ENDCHAR
STARTCHAR U+aeb5
ENCODING 44725
SWIDTH 500 0
DWIDTH 16 0
BBX 16 16 0 0
BITMAP
0020
0198
22D8
FFF8
36D8
26D8
4CF8
48D8
9098
20D0
0330
0618
0618
0330
00C0
0000
ENDCHAR
STARTCHAR U+aeb6
ENCODING 44726
SWIDTH 500 0
DWIDTH 16 0
BBX 16 16 0 0
BITMAP
0020
0198
22D8
FFF8
36D8
26D8
4CF8
48D8
90D8
3090
0FF8
0180
0360
0638
1818
0000
ENDCHAR
STARTCHAR U+aeb7
ENCODING 44727
SWIDTH 500 0
DWIDTH 16 0
BBX 16 16 0 0
BITMAP
0030
0118
22D8
FFF8
36D8
26F8
4CD8
4898
93F0
3010
0FF8
00C0
0180
0370
0C18
0000
ENDCHAR
STARTCHAR U+aeb8
ENCODING 44728
SWIDTH 500 0
DWIDTH 16 0
BBX 16 16 0 0
BITMAP
0030
0118
22D8
FFF8
36D8
26F8
4CD8
4898
9010
2FFC
0018
00F8
0F18
0418
0010
0000
ENDCHAR
STARTCHAR U+aeb9
ENCODING 44729
SWIDTH 500 0
DWIDTH 16 0
BBX 16 16 0 0
BITMAP
0020
0198
22D8
FFF8
36D8
26D8
4CF8
48D8
90D0
2FF8
0600
07F8
0600
0610
03F8
0000
ENDCHAR
STARTCHAR U+aeba
ENCODING 44730
SWIDTH 500 0
DWIDTH 16 0
BBX 16 16 0 0
BITMAP
0020
0198
22D8
FFF8
36D8
26D8
4CF8
48D8
9090
2FF8
0060
0630
0330
1120
0FF8
0000
ENDCHAR
STARTCHAR U+aebb
ENCODING 44731
SWIDTH 500 0
DWIDTH 16 0
BBX 16 16 0 0
BITMAP
0030
0198
22D8
FFF8
36D8
26F8
4CD8
4898
93F0
3010
0FF8
01C0
0220
0220
01C0
0000
ENDCHAR
STARTCHAR U+aebc
ENCODING 44732
SWIDTH 500 0
DWIDTH 16 0
BBX 16 16 0 0
BITMAP
0020
0018
0498
7FD8
0D98
0D98
09F8
1B18
1218
2218
4418
8818
0018
0018
0010
0000
ENDCHAR
STARTCHAR U+aebd
ENCODING 44733
SWIDTH 500 0
DWIDTH 16 0
BBX 16 16 0 0
BITMAP
0030
0898
7FD8
0D98
0DF8
1B18
1218
2418
4810
1FFC
0818
0018
0018
0018
0010
0000
ENDCHAR
STARTCHAR U+aebe
ENCODING 44734
SWIDTH 500 0
DWIDTH 16 0
BBX 16 16 0 0
BITMAP
0030
0898
7FD8
0D98
0DF8
1B18
1218
2418
4910
3FFC
1318
0318
0318
0318
0210
0000
ENDCHAR
STARTCHAR U+aebf
ENCODING 44735
SWIDTH 500 0
DWIDTH 16 0
BBX 16 16 0 0
BITMAP
0030
0898
7FD8
0D98
0D98
1BF8
1218
2418
4910
3FE0
1330
0320
0370
03CC
0204
0000
ENDCHAR
STARTCHAR U+aec0
ENCODING 44736
SWIDTH 500 0
DWIDTH 16 0
BBX 16 16 0 0
BITMAP
0020
0018
0898
7FD8
0D98
1918
33F8
2418
4818
9018
0018
0C10
0600
0610
03F8
0000
ENDCHAR
STARTCHAR U+aec1
ENCODING 44737
SWIDTH 500 0
DWIDTH 16 0
BBX 16 16 0 0
BITMAP
0030
0898
7FD8
0D98
0D98
1BF8
1218
2418
4810
0210
19F8
0C20
0C60
0CD8
0708
0000
ENDCHAR
STARTCHAR U+aec2
ENCODING 44738
SWIDTH 500 0
DWIDTH 16 0
BBX 16 16 0 0
BITMAP
0030
0898
7FD8
0D98
0D98
1BF8
1218
2410
48F0
0008
33FC
1860
1890
1B90
0C60
0000
ENDCHAR
STARTCHAR U+aec3
ENCODING 44739
SWIDTH 500 0
DWIDTH 16 0
BBX 16 16 0 0
BITMAP
0030
0898
7FD8
0D98
0D98
1BF8
1218
2418
4818
0010
0FF8
0600
0600
0610
03F8
0000
ENDCHAR
STARTCHAR U+aec4
ENCODING 44740
SWIDTH 500 0
DWIDTH 16 0
BBX 16 16 0 0
BITMAP
0030
0898
7FD8
0D98
1918
33F8
2618
4C18
9010
0FF8
0010
0FF8
0600
0610
03F8
0000
ENDCHAR
STARTCHAR U+aec5
ENCODING 44741
SWIDTH 500 0
DWIDTH 16 0
BBX 16 16 0 0
BITMAP
0030
0898
7FD8
0D98
0D98
1BF8
1218
2418
4910
3FFC
0218
3F18
1818
1998
0E10
0000
ENDCHAR
STARTCHAR U+aec6
ENCODING 44742
SWIDTH 500 0
DWIDTH 16 0
BBX 16 16 0 0
BITMAP
0030
0898
7FD8
0D98
0D98
1BF8
1218
2418
4910
3FFC
0298
3F98
1890
1BF8
0C80
0000
ENDCHAR
STARTCHAR U+aec7
ENCODING 44743
SWIDTH 500 0
DWIDTH 16 0
BBX 16 16 0 0
BITMAP
0030
0898
7FD8
0D98
0D98
1BF8
1218
2418
4A30
3F18
02F8
3F98
1898
19F8
0E90
0000
ENDCHAR
STARTCHAR U+aec8
ENCODING 44744
SWIDTH 500 0
DWIDTH 16 0
BBX 16 16 0 0
BITMAP
0030
0898
7FD8
0D98
0D98
1BF8
1218
2418
4810
3F60
0230
3F30
1870
19CC
0E04
0000
ENDCHAR
STARTCHAR U+aec9
ENCODING 44745
SWIDTH 500 0
DWIDTH 16 0
BBX 16 16 0 0
BITMAP
0030
0898
7FD8
0D98
0D98
1BF8
1218
2418
4910
1FF8
02C0
1FF8
0CC0
0DD0
0678
0000
ENDCHAR
STARTCHAR U+aeca
ENCODING 44746
SWIDTH 500 0
DWIDTH 16 0
BBX 16 16 0 0
BITMAP
0030
0898
7FD8
0D98
0D98
1BF8
1218
2418
4A10
3FFC
0200
3F98
18D8
1950
0EFC
0000
ENDCHAR
STARTCHAR U+aecb
ENCODING 44747
SWIDTH 500 0
DWIDTH 16 0
BBX 16 16 0 0
BITMAP
0030
0898
7FD8
0D98
0D98
1BF8
1218
2410
4970
1F88
01FC
1F70
0888
0988
0670
0000
ENDCHAR
STARTCHAR U+aecc
ENCODING 44748
SWIDTH 500 0
DWIDTH 16 0
BBX 16 16 0 0
BITMAP
0030
0898
7FD8
0D98
0D98
1BF8
1218
2418
4810
1018
0FFC
0618
0610
0610
07F8
0400
ENDCHAR
STARTCHAR U+aecd
ENCODING 44749
SWIDTH 500 0
DWIDTH 16 0
BBX 16 16 0 0
BITMAP
0030
0898
7FD8
0D98
0D98
1BF8
1218
2418
4810
1030
0C18
07F8
0618
0618
07F8
0410
ENDCHAR
STARTCHAR U+aece
ENCODING 44750
SWIDTH 500 0
DWIDTH 16 0
BBX 16 16 0 0
BITMAP
0030
0898
7FD8
0D98
0D98
1BF8
1218
2418
4818
0610
2360
1330
1F30
1BD8
1F8C
130C
ENDCHAR
STARTCHAR U+aecf
ENCODING 44751
SWIDTH 500 0
DWIDTH 16 0
BBX 16 16 0 0
BITMAP
0030
0898
7FD8
0D98
1918
33F8
2618
4C18
9018
00D0
0060
00C0
01A0
0310
0C18
0000
ENDCHAR
STARTCHAR U+aed0
ENCODING 44752
SWIDTH 500 0
DWIDTH 16 0
BBX 16 16 0 0
BITMAP
0030
0898
7FD8
0D98
1918
33F8
2618
4C18
9018
0010
0660
0330
0660
0CD0
3318
0000
ENDCHAR
STARTCHAR U+aed1
ENCODING 44753
SWIDTH 500 0
DWIDTH 16 0
BBX 16 16 0 0
BITMAP
0030
0898
7FD8
0D98
0D98
1BF8
1218
2418
4810
10C0
0330
0618
0618
0330
00C0
0000
ENDCHAR
STARTCHAR U+aed2
ENCODING 44754
SWIDTH 500 0
DWIDTH 16 0
BBX 16 16 0 0
BITMAP
0030
0898
7FD8
0D98
1918
33F8
2618
4C18
9018
0010
1FF8
0980
0340
0630
1810
0000
ENDCHAR
STARTCHAR U+aed3
ENCODING 44755
SWIDTH 500 0
DWIDTH 16 0
BBX 16 16 0 0
BITMAP
0030
0898
7FD8
0D98
0D98
1BF8
1218
2418
48D0
0860
07F8
00C0
01C0
0330
0C18
0000
ENDCHAR
STARTCHAR U+aed4
ENCODING 44756
SWIDTH 500 0
DWIDTH 16 0
BBX 16 16 0 0
BITMAP
0030
0898
7FD8
0D98
0D98
1BF8
1218
2418
4810
0FFC
0018
00F8
0F18
0418
0010
0000
ENDCHAR
STARTCHAR U+aed5
ENCODING 44757
SWIDTH 500 0
DWIDTH 16 0
BBX 16 16 0 0
BITMAP
0030
0898
7FD8
0D98
0D98
1BF8
1218
2418
4810
0010
0FF8
0600
07F8
0600
03F8
0000
ENDCHAR
STARTCHAR U+aed6
ENCODING 44758
SWIDTH 500 0
DWIDTH 16 0
BBX 16 16 0 0
BITMAP
0030
0898
7FD8
0D98
0D98
1BF8
1218
2418
4810
0FF8
0000
0C60
0660
0250
1FF8
0000
ENDCHAR
STARTCHAR U+aed7
ENCODING 44759
SWIDTH 500 0
DWIDTH 16 0
BBX 16 16 0 0
BITMAP
0030
0898
7FD8
0D98
0D98
1BF8
1218
2618
49F0
0810
07F8
01E0
0210
0210
01E0
0000
ENDCHAR
STARTCHAR U+aed8
ENCODING 44760
SWIDTH 500 0
DWIDTH 16 0
BBX 16 16 0 0
BITMAP
0020
0098
0058
2258
FF58
3658
3658
27D8
2458
6C58
4858
9058
0058
0058
0010
0000
ENDCHAR
STARTCHAR U+aed9
ENCODING 44761
SWIDTH 500 0
DWIDTH 16 0
BBX 16 16 0 0
BITMAP
0020
0198
22D8
FFD8
36D8
27D8
6CD8
48D8
90D8
2090
1FFC
0818
0018
0018
0010
0000
ENDCHAR
STARTCHAR U+aeda
ENCODING 44762
SWIDTH 500 0
DWIDTH 16 0
BBX 16 16 0 0
BITMAP
0020
0118
22D8
FFD8
36D8
27D8
6CD8
48D8
9090
2118
3FFC
1318
0318
0318
0210
0000
ENDCHAR
STARTCHAR U+aedb
ENCODING 44763
SWIDTH 500 0
DWIDTH 16 0
BBX 16 16 0 0
BITMAP
0020
0118
22D8
FFD8
36D8
27D8
6CD8
4898
9010
2360
3FB0
0330
0330
034C
0284
0000
ENDCHAR
STARTCHAR U+aedc
ENCODING 44764
SWIDTH 500 0
DWIDTH 16 0
BBX 16 16 0 0
BITMAP
0020
0198
22D8
FFD8
36D8
26D8
6FD8
48D8
90D8
20D8
0098
1810
0C00
0C10
07F8
0000
ENDCHAR
STARTCHAR U+aedd
ENCODING 44765
SWIDTH 500 0
DWIDTH 16 0
BBX 16 16 0 0
BITMAP
0020
0118
22D8
FFD8
36D8
27D8
6CD8
48D8
9098
2010
19FC
0C30
0C70
0CCC
0784
0000
ENDCHAR
STARTCHAR U+aede
ENCODING 44766
SWIDTH 500 0
DWIDTH 16 0
BBX 16 16 0 0
BITMAP
0020
0118
22D8
FFD8
36D8
27D8
6CD8
4890
9070
2008
33FC
1860
1890
1B90
0C60
0000
ENDCHAR
STARTCHAR U+aedf
ENCODING 44767
SWIDTH 500 0
DWIDTH 16 0
BBX 16 16 0 0
BITMAP
0020
0198
22D8
FFD8
36D8
27D8
6CD8
48D8
90D8
2090
0FF8
0600
0600
0610
03F8
0000
ENDCHAR
STARTCHAR U+aee0
ENCODING 44768
SWIDTH 500 0
DWIDTH 16 0
BBX 16 16 0 0
BITMAP
0020
0198
22D8
FFD8
36D8
27D8
6CD8
48D8
90D8
2090
1FF8
0010
1FF8
0C00
0C10
07F8
ENDCHAR
STARTCHAR U+aee1
ENCODING 44769
SWIDTH 500 0
DWIDTH 16 0
BBX 16 16 0 0
BITMAP
0030
0118
22D8
FFD8
36D8
27D8
6CD8
4898
9110
3FFC
0218
3F18
1818
1998
0E10
0000
ENDCHAR
STARTCHAR U+aee2
ENCODING 44770
SWIDTH 500 0
DWIDTH 16 0
BBX 16 16 0 0
BITMAP
0030
0118
22D8
FFD8
36D8
27D8
6CD8
4898
9010
3FFC
0298
3F98
1890
19F8
0E80
0000
ENDCHAR
STARTCHAR U+aee3
ENCODING 44771
SWIDTH 500 0
DWIDTH 16 0
BBX 16 16 0 0
BITMAP
0030
0118
22D8
FFD8
36D8
27D8
6CD8
4898
9230
3F18
02F8
3F98
1898
19F8
0E90
0000
ENDCHAR
STARTCHAR U+aee4
ENCODING 44772
SWIDTH 500 0
DWIDTH 16 0
BBX 16 16 0 0
BITMAP
0030
0118
22D8
FFD8
36D8
27D8
6CD8
4898
9010
3F60
0230
3F30
1870
19CC
0E04
0000
ENDCHAR
STARTCHAR U+aee5
ENCODING 44773
SWIDTH 500 0
DWIDTH 16 0
BBX 16 16 0 0
BITMAP
0030
0118
22D8
FFD8
36D8
27D8
6CD8
4898
9110
3FF8
02C0
1FF8
0CC0
0DD0
0678
0000
ENDCHAR
STARTCHAR U+aee6
ENCODING 44774
SWIDTH 500 0
DWIDTH 16 0
BBX 16 16 0 0
BITMAP
0030
0118
22D8
FFD8
36D8
27D8
6CD8
4898
9210
3FFC
0200
3F98
18D8
1950
0EFC
0000
ENDCHAR
STARTCHAR U+aee7
ENCODING 44775
SWIDTH 500 0
DWIDTH 16 0
BBX 16 16 0 0
BITMAP
0030
0118
22D8
FFD8
36D8
27D8
6CD8
4890
9170
3F88
01FC
1F70
0888
0988
0670
0000
ENDCHAR
STARTCHAR U+aee8
ENCODING 44776
SWIDTH 500 0
DWIDTH 16 0
BBX 16 16 0 0
BITMAP
0020
0198
22D8
FFD8
36D8
27D8
6CD8
48D8
90D8
2090
1FFC
0C18
0C18
0C10
0FF8
0800
ENDCHAR
STARTCHAR U+aee9
ENCODING 44777
SWIDTH 500 0
DWIDTH 16 0
BBX 16 16 0 0
BITMAP
0020
0198
22D8
FFD8
36D8
27D8
6CD8
48D8
90D8
20B0
1818
0FF8
0C18
0C18
0FF8
0810
ENDCHAR
STARTCHAR U+aeea
ENCODING 44778
SWIDTH 500 0
DWIDTH 16 0
BBX 16 16 0 0
BITMAP
0030
0118
22D8
FFD8
36D8
27D8
6CD8
48D8
9098
2610
3160
1930
1F30
1958
1FCC
1180
ENDCHAR
STARTCHAR U+aeeb
ENCODING 44779
SWIDTH 500 0
DWIDTH 16 0
BBX 16 16 0 0
BITMAP
0020
0198
22D8
FFD8
36D8
27D8
24D8
4CD8
48D8
90D0
0060
00C0
01C0
0330
0C18
0000
ENDCHAR
STARTCHAR U+aeec
ENCODING 44780
SWIDTH 500 0
DWIDTH 16 0
BBX 16 16 0 0
BITMAP
0020
0198
22D8
FFD8
36D8
37D8
24D8
48D8
48D8
9090
0660
0330
0660
0DD8
3308
0000
ENDCHAR
STARTCHAR U+aeed
ENCODING 44781
SWIDTH 500 0
DWIDTH 16 0
BBX 16 16 0 0
BITMAP
0020
0198
22D8
FFD8
36D8
27D8
24D8
4CD8
4898
90D0
0330
0618
0618
0330
00C0
0000
ENDCHAR
STARTCHAR U+aeee
ENCODING 44782
SWIDTH 500 0
DWIDTH 16 0
BBX 16 16 0 0
BITMAP
0020
0198
22D8
FFD8
36D8
27D8
6CD8
48D8
90D8
3090
0FF8
0180
0360
0638
1818
0000
ENDCHAR
STARTCHAR U+aeef
ENCODING 44783
SWIDTH 500 0
DWIDTH 16 0
BBX 16 16 0 0
BITMAP
0020
0198
22D8
FFD8
36D8
27D8
6CD8
48D8
9090
23F0
1010
0FF8
00C0
01A0
0630
0000
ENDCHAR
STARTCHAR U+aef0
ENCODING 44784
SWIDTH 500 0
DWIDTH 16 0
BBX 16 16 0 0
BITMAP
0030
0118
22D8
FFD8
36D8
27D8
6CD8
4898
9010
2FFC
0018
00F8
0F18
0418
0010
0000
ENDCHAR
STARTCHAR U+aef1
ENCODING 44785
SWIDTH 500 0
DWIDTH 16 0
BBX 16 16 0 0
BITMAP
0020
0198
22D8
FFD8
36D8
27D8
6CD8
48D8
9090
2FF8
0600
07F8
0600
0610
03F8
0000
ENDCHAR
STARTCHAR U+aef2
ENCODING 44786
SWIDTH 500 0
DWIDTH 16 0
BBX 16 16 0 0
BITMAP
0020
0198
22D8
FFD8
36D8
27D8
6CD8
48D8
9090
2FF8
0060
0630
0330
1120
0FF8
0000
ENDCHAR
STARTCHAR U+aef3
ENCODING 44787
SWIDTH 500 0
DWIDTH 16 0
BBX 16 16 0 0
BITMAP
0030
0198
22D8
FFD8
36D8
27D8
6C98
4818
93F0
3010
0FF8
01C0
0220
0220
01C0
0000
ENDCHAR
STARTCHAR U+aef4
ENCODING 44788
SWIDTH 500 0
DWIDTH 16 0
BBX 16 16 0 0
BITMAP
0020
0018
0498
7FD8
0D98
0DF8
0998
1B18
12F8
2618
4418
8818
0018
0018
0010
0000
ENDCHAR
STARTCHAR U+aef5
ENCODING 44789
SWIDTH 500 0
DWIDTH 16 0
BBX 16 16 0 0
BITMAP
0030
0898
7FD8
0DF8
1998
3318
26F8
4C18
9010
1FFC
0818
0018
0018
0018
0010
0000
ENDCHAR
STARTCHAR U+aef6
ENCODING 44790
SWIDTH 500 0
DWIDTH 16 0
BBX 16 16 0 0
BITMAP
0030
0898
7FD8
0DF8
1998
3318
26F8
4C18
9018
0110
1FF8
0318
0318
0318
0210
0000
ENDCHAR
STARTCHAR U+aef7
ENCODING 44791
SWIDTH 500 0
DWIDTH 16 0
BBX 16 16 0 0
BITMAP
0030
0898
7FD8
0DF8
1998
3318
26F8
4C18
9010
0360
3FB0
0330
0330
034C
0284
0000
ENDCHAR
STARTCHAR U+aef8
ENCODING 44792
SWIDTH 500 0
DWIDTH 16 0
BBX 16 16 0 0
BITMAP
0020
0898
7FD8
0DF8
1998
3318
26F8
4C18
9018
0018
0018
1C10
0600
0610
03F8
0000
ENDCHAR
STARTCHAR U+aef9
ENCODING 44793
SWIDTH 500 0
DWIDTH 16 0
BBX 16 16 0 0
BITMAP
0030
0898
7FD8
0DF8
1998
3318
26F8
4C18
9018
0010
19FC
0C30
0C70
0CCC
0784
0000
ENDCHAR
STARTCHAR U+aefa
ENCODING 44794
SWIDTH 500 0
DWIDTH 16 0
BBX 16 16 0 0
BITMAP
0030
0898
7FD8
0DF8
1998
3318
26F8
4C10
90F0
0008
33FC
1860
1890
1B90
0C60
0000
ENDCHAR
STARTCHAR U+aefb
ENCODING 44795
SWIDTH 500 0
DWIDTH 16 0
BBX 16 16 0 0
BITMAP
0030
0898
7FD8
0DF8
1998
3318
26F8
4C18
9018
0010
0FF8
0600
0600
0610
03F8
0000
ENDCHAR
STARTCHAR U+aefc
ENCODING 44796
SWIDTH 500 0
DWIDTH 16 0
BBX 16 16 0 0
BITMAP
0030
0898
7FD8
0DF8
1998
3318
26F8
4C18
9010
0FF8
0010
0FF8
0600
0610
03F8
0000
ENDCHAR
STARTCHAR U+aefd
ENCODING 44797
SWIDTH 500 0
DWIDTH 16 0
BBX 16 16 0 0
BITMAP
0030
0898
7FD8
0DF8
1998
3318
26F8
4C18
9110
3FFC
0218
3F18
1818
1998
0E10
0000
ENDCHAR
STARTCHAR U+aefe
ENCODING 44798
SWIDTH 500 0
DWIDTH 16 0
BBX 16 16 0 0
BITMAP
0030
0898
7FD8
0DF8
1998
3318
26F8
4C18
9010
3FFC
0298
3F98
1890
19F8
0E80
0000
ENDCHAR
STARTCHAR U+aeff
ENCODING 44799
SWIDTH 500 0
DWIDTH 16 0
BBX 16 16 0 0
BITMAP
0030
0898
7FD8
0DF8
1998
3318
26F8
4C18
9230
3F18
02F8
3F98
1898
19F8
0E90
0000
ENDCHAR
STARTCHAR U+af00
ENCODING 44800
SWIDTH 500 0
DWIDTH 16 0
BBX 16 16 0 0
BITMAP
0030
0898
7FD8
0DF8
1998
3318
26F8
4C18
9010
3F60
0230
3F30
1870
19CC
0E04
0000
ENDCHAR
STARTCHAR U+af01
ENCODING 44801
SWIDTH 500 0
DWIDTH 16 0
BBX 16 16 0 0
BITMAP
0030
0898
7FD8
0DF8
1998
3318
26F8
4C18
9110
1FF8
02C0
1FF8
0CC0
0DD0
0678
0000
ENDCHAR
STARTCHAR U+af02
ENCODING 44802
SWIDTH 500 0
DWIDTH 16 0
BBX 16 16 0 0
BITMAP
0030
0898
7FD8
0DF8
1998
3318
26F8
4C18
9210
3FFC
0200
3F98
18D8
1950
0EFC
0000
ENDCHAR
STARTCHAR U+af03
ENCODING 44803
SWIDTH 500 0
DWIDTH 16 0
BBX 16 16 0 0
BITMAP
0030
0898
7FD8
0DF8
1998
3318
26F8
4C10
9170
1F88
01FC
1F70
0888
0988
0670
0000
ENDCHAR
STARTCHAR U+af04
ENCODING 44804
SWIDTH 500 0
DWIDTH 16 0
BBX 16 16 0 0
BITMAP
0030
0898
7FD8
0DF8
1998
3318
26F8
4C18
9010
0008
0FFC
0618
0618
0610
07F8
0400
ENDCHAR
STARTCHAR U+af05
ENCODING 44805
SWIDTH 500 0
DWIDTH 16 0
BBX 16 16 0 0
BITMAP
0030
0898
7FD8
0DF8
1998
3318
26F8
4C18
9010
0030
0C18
07F8
0618
0618
07F8
0410
ENDCHAR
STARTCHAR U+af06
ENCODING 44806
SWIDTH 500 0
DWIDTH 16 0
BBX 16 16 0 0
BITMAP
0030
0898
7FD8
0DF8
1998
3318
26F8
4C18
9010
0200
3160
1930
1F30
1958
1FCC
1180
ENDCHAR
STARTCHAR U+af07
ENCODING 44807
SWIDTH 500 0
DWIDTH 16 0
BBX 16 16 0 0
BITMAP
0020
0898
7FD8
0D98
0DF8
1B18
1218
24F8
4818
1198
0090
0180
0340
0630
1818
0000
ENDCHAR
STARTCHAR U+af08
ENCODING 44808
SWIDTH 500 0
DWIDTH 16 0
BBX 16 16 0 0
BITMAP
0030
0898
7FD8
0DF8
1998
3318
26F8
4C18
9018
0010
0660
0330
0660
0CD0
3318
0000
ENDCHAR
STARTCHAR U+af09
ENCODING 44809
SWIDTH 500 0
DWIDTH 16 0
BBX 16 16 0 0
BITMAP
0030
0898
7FD8
0DF8
1998
3318
26F8
4C18
9010
00C0
0330
0618
0618
0330
00C0
0000
ENDCHAR
STARTCHAR U+af0a
ENCODING 44810
SWIDTH 500 0
DWIDTH 16 0
BBX 16 16 0 0
BITMAP
0030
0898
7FD8
0DF8
1998
3318
26F8
4C18
9018
0010
1FF8
0980
0340
0630
1818
0000
ENDCHAR
STARTCHAR U+af0b
ENCODING 44811
SWIDTH 500 0
DWIDTH 16 0
BBX 16 16 0 0
BITMAP
0030
0898
7FD8
0DF8
1998
3318
26F8
4C18
93F0
1010
0FF8
00C0
0180
0370
0C18
0000
ENDCHAR
STARTCHAR U+af0c
ENCODING 44812
SWIDTH 500 0
DWIDTH 16 0
BBX 16 16 0 0
BITMAP
0030
0898
7FD8
0DF8
1998
3318
26F8
4C18
9010
1FFC
0018
00F8
1F18
0818
0010
0000
ENDCHAR
STARTCHAR U+af0d
ENCODING 44813
SWIDTH 500 0
DWIDTH 16 0
BBX 16 16 0 0
BITMAP
0030
0898
7FD8
0DF8
1998
3318
26F8
4C18
9010
0FF8
0600
07F8
0600
0610
03F8
0000
ENDCHAR
STARTCHAR U+af0e
ENCODING 44814
SWIDTH 500 0
DWIDTH 16 0
BBX 16 16 0 0
BITMAP
0030
0898
7FD8
0DF8
1998
3318
26F8
4C18
9018
1010
0FF8
0000
0330
1120
0FF8
0000
ENDCHAR
STARTCHAR U+af0f
ENCODING 44815
SWIDTH 500 0
DWIDTH 16 0
BBX 16 16 0 0
BITMAP
0030
0898
7FD8
0DF8
1998
3318
26F8
4C18
9198
00D0
0FF8
01C0
0220
0220
01C0
0000
ENDCHAR
STARTCHAR U+af10
ENCODING 44816
SWIDTH 500 0
DWIDTH 16 0
BBX 16 16 0 0
BITMAP
0020
0098
0058
2258
FF58
33D8
3658
3658
27D8
2458
4C58
4858
9058
0058
0010
0000
ENDCHAR
STARTCHAR U+af11
ENCODING 44817
SWIDTH 500 0
DWIDTH 16 0
BBX 16 16 0 0
BITMAP
0020
0198
22D8
FED8
37D8
24D8
6CD8
4FD8
9090
2FFC
0418
0018
0018
0018
0010
0000
ENDCHAR
STARTCHAR U+af12
ENCODING 44818
SWIDTH 500 0
DWIDTH 16 0
BBX 16 16 0 0
BITMAP
0020
0118
22D8
FED8
37D8
24D8
6CD8
4FD8
9090
2118
3FFC
1318
0318
0318
0210
0000
ENDCHAR
STARTCHAR U+af13
ENCODING 44819
SWIDTH 500 0
DWIDTH 16 0
BBX 16 16 0 0
BITMAP
0020
0118
22D8
FED8
37D8
24D8
6CD8
4FD8
9090
2360
3FB0
0330
0330
034C
0284
0000
ENDCHAR
STARTCHAR U+af14
ENCODING 44820
SWIDTH 500 0
DWIDTH 16 0
BBX 16 16 0 0
BITMAP
0020
0198
22D8
FED8
37D8
24D8
6CD8
4FD8
90D8
20D8
0098
0C10
0600
0610
03F8
0000
ENDCHAR
STARTCHAR U+af15
ENCODING 44821
SWIDTH 500 0
DWIDTH 16 0
BBX 16 16 0 0
BITMAP
0020
0118
22D8
FED8
37D8
24D8
6CD8
4FD8
9098
2010
19FC
0C30
0C70
0CCC
0784
0000
ENDCHAR
STARTCHAR U+af16
ENCODING 44822
SWIDTH 500 0
DWIDTH 16 0
BBX 16 16 0 0
BITMAP
0020
0118
22D8
FED8
37D8
24D8
6CD8
4FD8
9090
2070
3008
1BFC
1860
1B90
0C60
0000
ENDCHAR
STARTCHAR U+af17
ENCODING 44823
SWIDTH 500 0
DWIDTH 16 0
BBX 16 16 0 0
BITMAP
0020
0198
22D8
FED8
37D8
24D8
6CD8
4FD8
90D8
2090
0FF8
0600
0600
0610
03F8
0000
ENDCHAR
STARTCHAR U+af18
ENCODING 44824
SWIDTH 500 0
DWIDTH 16 0
BBX 16 16 0 0
BITMAP
0020
0198
22D8
FED8
37D8
24D8
6CD8
4FD8
90D8
2090
0FF8
0010
0FF8
0600
0610
03F8
ENDCHAR
STARTCHAR U+af19
ENCODING 44825
SWIDTH 500 0
DWIDTH 16 0
BBX 16 16 0 0
BITMAP
0030
0118
22D8
FED8
37D8
24D8
6CD8
4FD8
90D8
2290
1FFC
0218
3F18
1818
1998
0E10
ENDCHAR
STARTCHAR U+af1a
ENCODING 44826
SWIDTH 500 0
DWIDTH 16 0
BBX 16 16 0 0
BITMAP
0030
0118
22D8
FED8
37D8
24D8
6CD8
4FD8
90D8
2290
3FFC
0298
3F98
1890
19F8
0E80
ENDCHAR
STARTCHAR U+af1b
ENCODING 44827
SWIDTH 500 0
DWIDTH 16 0
BBX 16 16 0 0
BITMAP
0030
0118
22D8
FED8
37D8
24D8
6CD8
4FD8
90D8
24B0
3F18
02F8
3F98
1898
19F8
0E90
ENDCHAR
STARTCHAR U+af1c
ENCODING 44828
SWIDTH 500 0
DWIDTH 16 0
BBX 16 16 0 0
BITMAP
0020
0118
22D8
FED8
37D8
24D8
6CD8
4FD8
90D8
2090
3F60
0230
3F30
1870
19CC
0E04
ENDCHAR
STARTCHAR U+af1d
ENCODING 44829
SWIDTH 500 0
DWIDTH 16 0
BBX 16 16 0 0
BITMAP
0020
0118
22D8
FED8
37D8
24D8
6CD8
4FD8
9098
2110
1FF8
02C0
1FF8
0CC0
0DD0
0678
ENDCHAR
STARTCHAR U+af1e
ENCODING 44830
SWIDTH 500 0
DWIDTH 16 0
BBX 16 16 0 0
BITMAP
0030
0118
22D8
FED8
37D8
24D8
6CD8
4FD8
9098
2210
3FFC
0200
3F98
18D8
1950
0EFC
ENDCHAR
STARTCHAR U+af1f
ENCODING 44831
SWIDTH 500 0
DWIDTH 16 0
BBX 16 16 0 0
BITMAP
0030
0118
22D8
FED8
37D8
24D8
6CD8
4FD8
9090
2170
1F88
01FC
1F70
0888
0988
0670
ENDCHAR
STARTCHAR U+af20
ENCODING 44832
SWIDTH 500 0
DWIDTH 16 0
BBX 16 16 0 0
BITMAP
0020
0198
22D8
FED8
37D8
24D8
6CD8
4FD8
90D8
2090
0FFC
0618
0618
0610
07F8
0400
ENDCHAR
STARTCHAR U+af21
ENCODING 44833
SWIDTH 500 0
DWIDTH 16 0
BBX 16 16 0 0
BITMAP
0020
0198
22D8
FED8
37D8
24D8
6CD8
4FD8
90D8
20B0
0C18
07F8
0618
0618
07F8
0410
ENDCHAR
STARTCHAR U+af22
ENCODING 44834
SWIDTH 500 0
DWIDTH 16 0
BBX 16 16 0 0
BITMAP
0030
0118
22D8
FED8
37D8
24D8
6CD8
4FD8
9098
2610
3160
1930
1F30
1958
1FCC
1180
ENDCHAR
STARTCHAR U+af23
ENCODING 44835
SWIDTH 500 0
DWIDTH 16 0
BBX 16 16 0 0
BITMAP
0020
0198
22D8
FED8
37D8
24D8
6CD8
4FD8
90D8
2198
00D0
0080
01C0
0330
0C18
0000
ENDCHAR
STARTCHAR U+af24
ENCODING 44836
SWIDTH 500 0
DWIDTH 16 0
BBX 16 16 0 0
BITMAP
0020
0198
22D8
FED8
37D8
24D8
6CD8
4FD8
90D8
2090
0660
0330
0660
0DD8
3308
0000
ENDCHAR
STARTCHAR U+af25
ENCODING 44837
SWIDTH 500 0
DWIDTH 16 0
BBX 16 16 0 0
BITMAP
0020
0198
22D8
FED8
37D8
24D8
6CD8
4FD8
9098
20D0
0330
0618
0618
0330
00C0
0000
ENDCHAR
STARTCHAR U+af26
ENCODING 44838
SWIDTH 500 0
DWIDTH 16 0
BBX 16 16 0 0
BITMAP
0020
0198
22D8
FED8
37D8
24D8
6CD8
4FD8
90D8
3090
0FF8
0180
0360
0638
1818
0000
ENDCHAR
STARTCHAR U+af27
ENCODING 44839
SWIDTH 500 0
DWIDTH 16 0
BBX 16 16 0 0
BITMAP
0020
0198
22D8
FED8
37D8
24D8
6CD8
4FD8
9090
21F0
0808
07FC
00C0
01B0
0618
0000
ENDCHAR
STARTCHAR U+af28
ENCODING 44840
SWIDTH 500 0
DWIDTH 16 0
BBX 16 16 0 0
BITMAP
0030
0118
22D8
FED8
37D8
24D8
6CD8
4F98
9010
2FFC
0018
00F8
0F18
0418
0010
0000
ENDCHAR
STARTCHAR U+af29
ENCODING 44841
SWIDTH 500 0
DWIDTH 16 0
BBX 16 16 0 0
BITMAP
0020
0198
22D8
FED8
37D8
24D8
6CD8
4FD8
9090
2FF8
0600
07F8
0600
0610
03F8
0000
ENDCHAR
STARTCHAR U+af2a
ENCODING 44842
SWIDTH 500 0
DWIDTH 16 0
BBX 16 16 0 0
BITMAP
0020
0198
22D8
FED8
37D8
24D8
6CD8
4FD8
9090
2FF8
0060
0630
0330
1120
0FF8
0000
ENDCHAR
STARTCHAR U+af2b
ENCODING 44843
SWIDTH 500 0
DWIDTH 16 0
BBX 16 16 0 0
BITMAP
0030
0198
22D8
FED8
37D8
24D8
6CD8
4FD8
9098
23F0
1010
0FF8
01C0
0220
0220
01C0
ENDCHAR
STARTCHAR U+af2c
ENCODING 44844
SWIDTH 500 0
DWIDTH 16 0
BBX 16 14 0 0
BITMAP
2318
1FFC
0318
0318
0210
0510
05B0
89A4
7FFE
2000
0000
0000
0000
0000
ENDCHAR
STARTCHAR U+af2d
ENCODING 44845
SWIDTH 500 0
DWIDTH 16 0
BBX 16 16 0 0
BITMAP
2318
1FFC
0318
0318
0390
85A4
7FFE
2000
0018
1FFC
0818
0018
0018
0018
0010
0000
ENDCHAR
STARTCHAR U+af2e
ENCODING 44846
SWIDTH 500 0
DWIDTH 16 0
BBX 16 16 0 0
BITMAP
2318
1FFC
0318
0318
0390
85A4
7FFE
2000
0108
3FFC
1318
0318
0318
0318
0210
0000
ENDCHAR
STARTCHAR U+af2f
ENCODING 44847
SWIDTH 500 0
DWIDTH 16 0
BBX 16 16 0 0
BITMAP
2318
1FFC
0318
0318
0390
85A4
7FFE
2000
0300
3FE0
0330
0360
02D0
038C
0304
0000
ENDCHAR
STARTCHAR U+af30
ENCODING 44848
SWIDTH 500 0
DWIDTH 16 0
BBX 16 16 0 0
BITMAP
2318
1FFC
0318
0318
0710
05B0
89A4
7FFE
2000
0000
1800
0C00
0C10
07F8
0000
0000
ENDCHAR
STARTCHAR U+af31
ENCODING 44849
SWIDTH 500 0
DWIDTH 16 0
BBX 16 16 0 0
BITMAP
2318
1FFC
0318
0318
0390
85A4
7FFE
2000
0000
0000
33F8
1860
18E0
1998
0F08
0000
ENDCHAR
STARTCHAR U+af32
ENCODING 44850
SWIDTH 500 0
DWIDTH 16 0
BBX 16 16 0 0
BITMAP
0318
3FFC
0318
0318
0390
85A4
7FFE
2000
00F0
0208
31FC
1870
1888
1B88
0C70
0000
ENDCHAR
STARTCHAR U+af33
ENCODING 44851
SWIDTH 500 0
DWIDTH 16 0
BBX 16 16 0 0
BITMAP
0318
3FFC
0318
0318
0390
85A4
7FFE
2000
0000
1820
0FF0
0C00
0C00
0C20
07F0
0000
ENDCHAR
STARTCHAR U+af34
ENCODING 44852
SWIDTH 500 0
DWIDTH 16 0
BBX 16 16 0 0
BITMAP
2318
1FFC
0318
0318
0390
85A4
7FFE
2000
0010
0FF8
0010
0FF8
0600
0610
03F8
0000
ENDCHAR
STARTCHAR U+af35
ENCODING 44853
SWIDTH 500 0
DWIDTH 16 0
BBX 16 16 0 0
BITMAP
2318
1FFC
0318
0318
0390
85A4
7FFE
2000
0108
1FFC
0118
1F18
0C18
0D98
0610
0000
ENDCHAR
STARTCHAR U+af36
ENCODING 44854
SWIDTH 500 0
DWIDTH 16 0
BBX 16 16 0 0
BITMAP
2318
1FFC
0318
0318
0390
85A4
7FFE
2000
0108
3FFC
0298
3F98
1890
1FF8
0C80
0000
ENDCHAR
STARTCHAR U+af37
ENCODING 44855
SWIDTH 500 0
DWIDTH 16 0
BBX 16 16 0 0
BITMAP
2318
1FFC
0318
0318
0390
85A4
7FFE
2000
0230
3F18
02F8
3F98
1898
19F8
0E90
0000
ENDCHAR
STARTCHAR U+af38
ENCODING 44856
SWIDTH 500 0
DWIDTH 16 0
BBX 16 16 0 0
BITMAP
2318
1FFC
0318
0318
0390
85A4
7FFE
2000
0200
3F60
0230
3F60
1850
198C
0F04
0000
ENDCHAR
STARTCHAR U+af39
ENCODING 44857
SWIDTH 500 0
DWIDTH 16 0
BBX 16 16 0 0
BITMAP
2318
1FFC
0318
0318
0390
85A4
7FFE
2000
0008
1FFC
0140
1FF8
0C40
0DD0
0638
0000
ENDCHAR
STARTCHAR U+af3a
ENCODING 44858
SWIDTH 500 0
DWIDTH 16 0
BBX 16 16 0 0
BITMAP
2318
1FFC
0318
0318
0390
85A4
7FFE
2000
0200
3FFC
0200
3F98
18D8
1950
0EFC
0000
ENDCHAR
STARTCHAR U+af3b
ENCODING 44859
SWIDTH 500 0
DWIDTH 16 0
BBX 16 16 0 0
BITMAP
2318
1FFC
0318
0318
0390
85A4
7FFE
2000
0270
3F08
02FC
3F70
1888
1988
0E70
0000
ENDCHAR
STARTCHAR U+af3c
ENCODING 44860
SWIDTH 500 0
DWIDTH 16 0
BBX 16 16 0 0
BITMAP
2318
1FFC
0318
0318
0390
85A4
7FFE
2000
0030
1FF8
0C30
0C30
0C20
0FF0
0800
0000
ENDCHAR
STARTCHAR U+af3d
ENCODING 44861
SWIDTH 500 0
DWIDTH 16 0
BBX 16 16 0 0
BITMAP
2318
1FFC
0318
0318
0390
85A4
7FFE
2000
0060
1830
0FF0
0C30
0C30
0FF0
0820
0000
ENDCHAR
STARTCHAR U+af3e
ENCODING 44862
SWIDTH 500 0
DWIDTH 16 0
BBX 16 16 0 0
BITMAP
2318
1FFC
0318
0318
0390
85A4
7FFE
2000
0200
3160
1930
1F30
1958
1FCC
1180
0000
ENDCHAR
STARTCHAR U+af3f
ENCODING 44863
SWIDTH 500 0
DWIDTH 16 0
BBX 16 16 0 0
BITMAP
0318
3FFC
0318
0318
0390
85A4
7FFE
2000
0000
0180
00C0
0180
0340
0638
1818
0000
ENDCHAR
STARTCHAR U+af40
ENCODING 44864
SWIDTH 500 0
DWIDTH 16 0
BBX 16 16 0 0
BITMAP
2318
1FFC
0318
0318
0390
85A4
7FFE
2000
0000
0080
0660
0330
0660
0DD8
3308
0000
ENDCHAR
STARTCHAR U+af41
ENCODING 44865
SWIDTH 500 0
DWIDTH 16 0
BBX 16 16 0 0
BITMAP
2318
1FFC
0318
0318
03B0
85A4
7FFE
2000
0000
0180
0660
0C30
0C30
0660
0180
0000
ENDCHAR
STARTCHAR U+af42
ENCODING 44866
SWIDTH 500 0
DWIDTH 16 0
BBX 16 16 0 0
BITMAP
2318
1FFC
0318
0318
0390
85A4
7FFE
2000
0010
1FF8
0980
0180
0340
0630
1818
0000
ENDCHAR
STARTCHAR U+af43
ENCODING 44867
SWIDTH 500 0
DWIDTH 16 0
BBX 16 16 0 0
BITMAP
2318
1FFC
0318
0318
0390
85A4
7FFE
2000
03C0
1010
0FF8
0180
0340
0630
1818
0000
ENDCHAR
STARTCHAR U+af44
ENCODING 44868
SWIDTH 500 0
DWIDTH 16 0
BBX 16 16 0 0
BITMAP
2318
1FFC
0318
0318
0390
85A4
7FFE
2000
0030
1FF8
0030
01F0
1E30
0830
0020
0000
ENDCHAR
STARTCHAR U+af45
ENCODING 44869
SWIDTH 500 0
DWIDTH 16 0
BBX 16 16 0 0
BITMAP
2318
1FFC
0318
0318
0390
85A4
7FFE
2000
0020
1FF0
0C00
0FF0
0C00
0C20
07F0
0000
ENDCHAR
STARTCHAR U+af46
ENCODING 44870
SWIDTH 500 0
DWIDTH 16 0
BBX 16 16 0 0
BITMAP
2318
1FFC
0318
0318
0390
85A4
7FFE
2000
2010
1FF8
00C0
0C60
0660
2250
1FF8
0000
ENDCHAR
STARTCHAR U+af47
ENCODING 44871
SWIDTH 500 0
DWIDTH 16 0
BBX 16 16 0 0
BITMAP
2318
1FFC
0318
0318
0390
85A4
7FFE
2000
0000
03C0
2010
1FF8
0380
0440
0440
0380
ENDCHAR
STARTCHAR U+af48
ENCODING 44872
SWIDTH 500 0
DWIDTH 16 0
BBX 16 16 0 0
BITMAP
0020
0018
0858
7FD8
0CD8
0CD8
0CD8
0C9E
1698
16F8
FF18
4018
0018
0018
0010
0000
ENDCHAR
STARTCHAR U+af49
ENCODING 44873
SWIDTH 500 0
DWIDTH 16 0
BBX 16 16 0 0
BITMAP
0030
0898
7FD8
0998
0998
0D98
151E
A6F8
7F18
2010
3FFC
1018
0018
0018
0010
0000
ENDCHAR
STARTCHAR U+af4a
ENCODING 44874
SWIDTH 500 0
DWIDTH 16 0
BBX 16 16 0 0
BITMAP
0030
0898
7FD8
0D98
0D98
1D1E
15F8
FF10
4000
0118
3FFC
1318
0318
0318
0210
0000
ENDCHAR
STARTCHAR U+af4b
ENCODING 44875
SWIDTH 500 0
DWIDTH 16 0
BBX 16 16 0 0
BITMAP
0030
0898
7FD8
0D98
0D98
1D1E
15F8
FF10
4000
0360
3FB0
0330
0330
034C
0284
0000
ENDCHAR
STARTCHAR U+af4c
ENCODING 44876
SWIDTH 500 0
DWIDTH 16 0
BBX 16 16 0 0
BITMAP
0020
0898
7FD8
0D98
0D98
1D18
151E
15F8
0F18
F018
4018
1C10
0600
0610
03F8
0000
ENDCHAR
STARTCHAR U+af4d
ENCODING 44877
SWIDTH 500 0
DWIDTH 16 0
BBX 16 16 0 0
BITMAP
0030
0898
7FD8
0D98
0D98
1D18
151E
15F8
FF18
4010
19FC
0C30
0C70
0CCC
0784
0000
ENDCHAR
STARTCHAR U+af4e
ENCODING 44878
SWIDTH 500 0
DWIDTH 16 0
BBX 16 16 0 0
BITMAP
0030
0898
7FD8
0D98
0D98
1D1E
15F8
FF10
4070
0008
33FC
1860
1890
1B90
0C60
0000
ENDCHAR
STARTCHAR U+af4f
ENCODING 44879
SWIDTH 500 0
DWIDTH 16 0
BBX 16 16 0 0
BITMAP
0030
0898
7FD8
0D98
0D98
1D18
151E
15F8
FE18
4010
0FF8
0600
0600
0610
03F8
0000
ENDCHAR
STARTCHAR U+af50
ENCODING 44880
SWIDTH 500 0
DWIDTH 16 0
BBX 16 16 0 0
BITMAP
0030
0898
7FD8
0D98
0D98
1D1E
1578
FF98
4010
0FF8
0010
0FF8
0600
0610
03F8
0000
ENDCHAR
STARTCHAR U+af51
ENCODING 44881
SWIDTH 500 0
DWIDTH 16 0
BBX 16 16 0 0
BITMAP
0030
0898
7FD8
0D98
0D98
1D18
157E
FF98
4110
1FFC
0218
3F18
1818
1998
0E10
0000
ENDCHAR
STARTCHAR U+af52
ENCODING 44882
SWIDTH 500 0
DWIDTH 16 0
BBX 16 16 0 0
BITMAP
0030
0898
7FD8
0D98
0D98
1D18
157E
FF98
4010
3FFC
0298
3F98
1890
1BF8
0C00
0000
ENDCHAR
STARTCHAR U+af53
ENCODING 44883
SWIDTH 500 0
DWIDTH 16 0
BBX 16 16 0 0
BITMAP
0030
0898
7FD8
0D98
0D98
1D18
157E
FF98
42B0
3F18
02F8
3F98
1898
19F8
0E90
0000
ENDCHAR
STARTCHAR U+af54
ENCODING 44884
SWIDTH 500 0
DWIDTH 16 0
BBX 16 16 0 0
BITMAP
0030
0898
7FD8
0D98
0D98
1D18
157E
FF98
4010
3F60
0230
3F30
1870
19CC
0E04
0000
ENDCHAR
STARTCHAR U+af55
ENCODING 44885
SWIDTH 500 0
DWIDTH 16 0
BBX 16 16 0 0
BITMAP
0030
0898
7FD8
0D98
0D98
1D18
157E
FF98
4110
3FF8
02C0
3FF8
18C0
19D0
0E78
0000
ENDCHAR
STARTCHAR U+af56
ENCODING 44886
SWIDTH 500 0
DWIDTH 16 0
BBX 16 16 0 0
BITMAP
0030
0898
7FD8
0D98
0D98
1D18
157E
FF98
4210
3FFC
0200
3F98
18D8
1950
0EFC
0000
ENDCHAR
STARTCHAR U+af57
ENCODING 44887
SWIDTH 500 0
DWIDTH 16 0
BBX 16 16 0 0
BITMAP
0030
0898
7FD8
0D98
0D98
1D18
157E
FF98
4370
1F88
01FC
1F70
0888
0988
0670
0000
ENDCHAR
STARTCHAR U+af58
ENCODING 44888
SWIDTH 500 0
DWIDTH 16 0
BBX 16 16 0 0
BITMAP
0030
0898
7FD8
0D98
0D98
1D1E
1578
FF98
4010
0018
0FFC
0618
0618
0610
07F8
0400
ENDCHAR
STARTCHAR U+af59
ENCODING 44889
SWIDTH 500 0
DWIDTH 16 0
BBX 16 16 0 0
BITMAP
0030
0898
7FD8
0D98
0D98
1D18
157E
9798
7818
2030
0C18
07F8
0618
0618
07F8
0410
ENDCHAR
STARTCHAR U+af5a
ENCODING 44890
SWIDTH 500 0
DWIDTH 16 0
BBX 16 16 0 0
BITMAP
0030
0898
7FD8
0D98
0D98
1D18
157E
9F98
7818
2610
3160
1930
1F30
1958
1FCC
1180
ENDCHAR
STARTCHAR U+af5b
ENCODING 44891
SWIDTH 500 0
DWIDTH 16 0
BBX 16 16 0 0
BITMAP
0030
0898
7FD8
0D98
0D98
1D1E
1578
FF98
4018
0190
00C0
0180
0360
0638
1818
0000
ENDCHAR
STARTCHAR U+af5c
ENCODING 44892
SWIDTH 500 0
DWIDTH 16 0
BBX 16 16 0 0
BITMAP
0030
1098
7FD8
1998
1998
1D98
151E
2678
FF90
4660
0330
0320
0670
0CD8
3308
0000
ENDCHAR
STARTCHAR U+af5d
ENCODING 44893
SWIDTH 500 0
DWIDTH 16 0
BBX 16 16 0 0
BITMAP
0030
1098
7FD8
1998
1998
3D18
257E
FF98
4018
00D0
0330
0618
0618
0330
00C0
0000
ENDCHAR
STARTCHAR U+af5e
ENCODING 44894
SWIDTH 500 0
DWIDTH 16 0
BBX 16 16 0 0
BITMAP
0030
0898
7FD8
0D98
0D98
1D18
157E
FF98
4010
1000
0FF8
0180
0360
0638
1818
0000
ENDCHAR
STARTCHAR U+af5f
ENCODING 44895
SWIDTH 500 0
DWIDTH 16 0
BBX 16 16 0 0
BITMAP
0030
0898
7FD8
0D98
0D98
1D18
157E
FF98
4010
01F0
0808
07FC
00C0
01B0
0618
0000
ENDCHAR
STARTCHAR U+af60
ENCODING 44896
SWIDTH 500 0
DWIDTH 16 0
BBX 16 16 0 0
BITMAP
0030
0898
7FD8
0D98
0D98
1D18
157E
FF98
4010
0FFC
0018
00F8
0F18
0418
0010
0000
ENDCHAR
STARTCHAR U+af61
ENCODING 44897
SWIDTH 500 0
DWIDTH 16 0
BBX 16 16 0 0
BITMAP
0030
0898
7FD8
0D98
0D98
1D18
157E
FF98
4010
0FF8
0600
07F8
0600
0610
03F8
0000
ENDCHAR
STARTCHAR U+af62
ENCODING 44898
SWIDTH 500 0
DWIDTH 16 0
BBX 16 16 0 0
BITMAP
0030
0898
7FD8
0D98
0D98
1D18
157E
FF98
4010
0FF8
0060
0630
0330
1120
0FF8
0000
ENDCHAR
STARTCHAR U+af63
ENCODING 44899
SWIDTH 500 0
DWIDTH 16 0
BBX 16 16 0 0
BITMAP
0030
0898
7FD8
0D98
0D98
1D18
157E
FF98
43F0
1010
0FF8
01C0
0220
0220
01C0
0000
ENDCHAR
STARTCHAR U+af64
ENCODING 44900
SWIDTH 500 0
DWIDTH 16 0
BBX 16 16 0 0
BITMAP
0020
0118
00D8
22D8
FED8
26D8
26D8
36D8
34F8
57D8
F8D8
40D8
00D8
0098
0010
0000
ENDCHAR
STARTCHAR U+af65
ENCODING 44901
SWIDTH 500 0
DWIDTH 16 0
BBX 16 16 0 0
BITMAP
0020
0198
22D8
FED8
36D8
36F8
34D8
5BD8
FCD8
0090
1FFC
0818
0018
0018
0010
0000
ENDCHAR
STARTCHAR U+af66
ENCODING 44902
SWIDTH 500 0
DWIDTH 16 0
BBX 16 16 0 0
BITMAP
0020
0198
22D8
FED8
26D8
36F8
34D8
53D8
FC90
4118
3FFC
1318
0318
0318
0210
0000
ENDCHAR
STARTCHAR U+af67
ENCODING 44903
SWIDTH 500 0
DWIDTH 16 0
BBX 16 16 0 0
BITMAP
0020
0198
22D8
FED8
26D8
36F8
34D8
53D8
FC90
4360
3FB0
0330
0330
034C
0284
0000
ENDCHAR
STARTCHAR U+af68
ENCODING 44904
SWIDTH 500 0
DWIDTH 16 0
BBX 16 16 0 0
BITMAP
0020
0198
22D8
FED8
36D8
36D8
34F8
5BD8
FCD8
00D8
0098
0C10
0600
0610
03F8
0000
ENDCHAR
STARTCHAR U+af69
ENCODING 44905
SWIDTH 500 0
DWIDTH 16 0
BBX 16 16 0 0
BITMAP
0020
0198
22D8
FED8
26D8
36F8
34D8
53D8
FC98
4010
19FC
0C30
0C70
0CCC
0784
0000
ENDCHAR
STARTCHAR U+af6a
ENCODING 44906
SWIDTH 500 0
DWIDTH 16 0
BBX 16 16 0 0
BITMAP
0020
0198
22D8
FED8
26D8
36F8
34D8
53D0
FCF0
4008
33F8
1860
1890
1B90
0C60
0000
ENDCHAR
STARTCHAR U+af6b
ENCODING 44907
SWIDTH 500 0
DWIDTH 16 0
BBX 16 16 0 0
BITMAP
0020
0198
22D8
FED8
26D8
36F8
34D8
53D8
FC90
4010
0FF8
0600
0600
0610
03F8
0000
ENDCHAR
STARTCHAR U+af6c
ENCODING 44908
SWIDTH 500 0
DWIDTH 16 0
BBX 16 16 0 0
BITMAP
0020
0198
22D8
FED8
26D8
36F8
34D8
53D8
FC90
4FF8
0010
0FF8
0600
0610
03F8
0000
ENDCHAR
STARTCHAR U+af6d
ENCODING 44909
SWIDTH 500 0
DWIDTH 16 0
BBX 16 16 0 0
BITMAP
0020
0198
22D8
FED8
26D8
36F8
34D8
53D8
FC90
5FFC
0218
3F18
1818
1998
0E10
0000
ENDCHAR
STARTCHAR U+af6e
ENCODING 44910
SWIDTH 500 0
DWIDTH 16 0
BBX 16 16 0 0
BITMAP
0020
0198
22D8
FED8
26D8
36F8
34D8
53D8
FC90
5FFC
0298
3F98
1890
1BF8
0C00
0000
ENDCHAR
STARTCHAR U+af6f
ENCODING 44911
SWIDTH 500 0
DWIDTH 16 0
BBX 16 16 0 0
BITMAP
0020
0198
22D8
FED8
26D8
36F8
34D8
53D8
FCB0
5F18
0298
3FF8
1898
19F8
0E90
0000
ENDCHAR
STARTCHAR U+af70
ENCODING 44912
SWIDTH 500 0
DWIDTH 16 0
BBX 16 16 0 0
BITMAP
0020
0198
22D8
FED8
26D8
36F8
34D8
53D8
FC90
5F60
0230
3F30
1870
19CC
0E04
0000
ENDCHAR
STARTCHAR U+af71
ENCODING 44913
SWIDTH 500 0
DWIDTH 16 0
BBX 16 16 0 0
BITMAP
0020
0198
22D8
FED8
26D8
36F8
34D8
53D8
FC90
5FF8
02C0
3FF8
18C0
19D0
0E78
0000
ENDCHAR
STARTCHAR U+af72
ENCODING 44914
SWIDTH 500 0
DWIDTH 16 0
BBX 16 16 0 0
BITMAP
0020
0198
22D8
FED8
26D8
36F8
34D8
53D8
FC90
5FFC
0200
3F98
18D8
1950
0EFC
0000
ENDCHAR
STARTCHAR U+af73
ENCODING 44915
SWIDTH 500 0
DWIDTH 16 0
BBX 16 16 0 0
BITMAP
0020
0198
22D8
FED8
26D8
36F8
34D8
53D8
FC90
5E88
01FC
1F70
0888
0F88
0670
0000
ENDCHAR
STARTCHAR U+af74
ENCODING 44916
SWIDTH 500 0
DWIDTH 16 0
BBX 16 16 0 0
BITMAP
0020
0198
22D8
FED8
36D8
36F8
34D8
5BD8
FCD8
0090
0FFC
0618
0618
0610
07F8
0400
ENDCHAR
STARTCHAR U+af75
ENCODING 44917
SWIDTH 500 0
DWIDTH 16 0
BBX 16 16 0 0
BITMAP
0020
0198
22D8
FED8
36D8
36F8
34D8
5BD8
FCD8
00B0
0C18
07F8
0618
0618
07F8
0410
ENDCHAR
STARTCHAR U+af76
ENCODING 44918
SWIDTH 500 0
DWIDTH 16 0
BBX 16 16 0 0
BITMAP
0020
0198
22D8
FED8
26D8
36F8
34D8
53D8
FC98
4010
3260
1930
1F30
1958
1FCC
1180
ENDCHAR
STARTCHAR U+af77
ENCODING 44919
SWIDTH 500 0
DWIDTH 16 0
BBX 16 16 0 0
BITMAP
0020
0198
22D8
FED8
26D8
36D8
34F8
53D8
FCD8
4198
00D0
0180
0360
0638
1818
0000
ENDCHAR
STARTCHAR U+af78
ENCODING 44920
SWIDTH 500 0
DWIDTH 16 0
BBX 16 16 0 0
BITMAP
0020
0198
22D8
FED8
26D8
36D8
34F8
53D8
FCD8
4090
0660
0330
0660
0CD8
3308
0000
ENDCHAR
STARTCHAR U+af79
ENCODING 44921
SWIDTH 500 0
DWIDTH 16 0
BBX 16 16 0 0
BITMAP
0020
0198
22D8
FED8
26D8
36F8
34D8
5FD8
F898
40D0
0330
0618
0618
0330
00C0
0000
ENDCHAR
STARTCHAR U+af7a
ENCODING 44922
SWIDTH 500 0
DWIDTH 16 0
BBX 16 16 0 0
BITMAP
0020
0198
22D8
FED8
26D8
36F8
34D8
53D8
FC90
5000
0FF8
0180
0360
0638
1818
0000
ENDCHAR
STARTCHAR U+af7b
ENCODING 44923
SWIDTH 500 0
DWIDTH 16 0
BBX 16 16 0 0
BITMAP
0020
0198
22D8
FED8
26D8
36F8
34D8
53D8
FC90
41F0
0808
07FC
00C0
01B0
0618
0000
ENDCHAR
STARTCHAR U+af7c
ENCODING 44924
SWIDTH 500 0
DWIDTH 16 0
BBX 16 16 0 0
BITMAP
0020
0198
22D8
FED8
26D8
36F8
34D8
53D8
FC90
4FFC
0018
00F8
0F18
0418
0010
0000
ENDCHAR
STARTCHAR U+af7d
ENCODING 44925
SWIDTH 500 0
DWIDTH 16 0
BBX 16 16 0 0
BITMAP
0020
0198
22D8
FED8
26D8
36F8
34D8
53D8
FC90
4FF8
0600
07F8
0600
0610
03F8
0000
ENDCHAR
STARTCHAR U+af7e
ENCODING 44926
SWIDTH 500 0
DWIDTH 16 0
BBX 16 16 0 0
BITMAP
0020
0198
22D8
FED8
26D8
36F8
34D8
53D8
FC90
4FF8
0060
0630
0330
1120
0FF8
0000
ENDCHAR
STARTCHAR U+af7f
ENCODING 44927
SWIDTH 500 0
DWIDTH 16 0
BBX 16 16 0 0
BITMAP
0020
0198
22D8
FED8
26D8
36F8
34D8
53D8
FFF0
5010
0FF8
01C0
0220
0220
01C0
0000
ENDCHAR
STARTCHAR U+af80
ENCODING 44928
SWIDTH 500 0
DWIDTH 16 0
BBX 16 16 0 0
BITMAP
0020
0018
0898
7FD8
0D98
0D98
0998
0D18
1D78
9798
7C18
2018
0018
0018
0010
0000
ENDCHAR
STARTCHAR U+af81
ENCODING 44929
SWIDTH 500 0
DWIDTH 16 0
BBX 16 16 0 0
BITMAP
0030
1098
7FD8
1998
1998
1D18
25F8
FF18
4010
1FFC
0818
0018
0018
0018
0010
0000
ENDCHAR
STARTCHAR U+af82
ENCODING 44930
SWIDTH 500 0
DWIDTH 16 0
BBX 16 16 0 0
BITMAP
0030
1098
7FD8
1998
1D98
1D18
1578
FF98
4210
3FFC
1318
0318
0318
0318
0210
0000
ENDCHAR
STARTCHAR U+af83
ENCODING 44931
SWIDTH 500 0
DWIDTH 16 0
BBX 16 16 0 0
BITMAP
0030
1098
7FD8
1998
1D98
1D18
1578
FF98
4010
0360
3FB0
0360
02D0
038C
0304
0000
ENDCHAR
STARTCHAR U+af84
ENCODING 44932
SWIDTH 500 0
DWIDTH 16 0
BBX 16 16 0 0
BITMAP
0020
1098
7FD8
1998
1998
1D98
1518
26F8
FF18
4018
0018
0C10
0600
0610
03F8
0000
ENDCHAR
STARTCHAR U+af85
ENCODING 44933
SWIDTH 500 0
DWIDTH 16 0
BBX 16 16 0 0
BITMAP
0030
1098
7FD8
1998
1D98
1D18
1518
04F8
FF18
4010
33F8
1860
18E0
1998
0F08
0000
ENDCHAR
STARTCHAR U+af86
ENCODING 44934
SWIDTH 500 0
DWIDTH 16 0
BBX 16 16 0 0
BITMAP
0030
1098
7FD8
1998
1D98
1D18
1578
FF98
40F0
0208
31FC
1870
1888
1B88
0C70
0000
ENDCHAR
STARTCHAR U+af87
ENCODING 44935
SWIDTH 500 0
DWIDTH 16 0
BBX 16 16 0 0
BITMAP
0030
1098
7FD8
1998
1D98
1D18
1518
04F8
FF18
4010
0FF8
0600
0600
0610
03F8
0000
ENDCHAR
STARTCHAR U+af88
ENCODING 44936
SWIDTH 500 0
DWIDTH 16 0
BBX 16 16 0 0
BITMAP
0030
1098
7FD8
1998
1D98
1D18
1578
FF98
4010
0FF8
0010
0FF8
0600
0610
03F8
0000
ENDCHAR
STARTCHAR U+af89
ENCODING 44937
SWIDTH 500 0
DWIDTH 16 0
BBX 16 16 0 0
BITMAP
0030
1098
7FD8
1998
1D98
1D18
1578
FF90
4108
1FFC
0118
1F18
0C18
0D98
0610
0000
ENDCHAR
STARTCHAR U+af8a
ENCODING 44938
SWIDTH 500 0
DWIDTH 16 0
BBX 16 16 0 0
BITMAP
0030
1098
7FD8
1998
1D98
1D18
1578
FF90
4108
3FFC
0298
3F98
1890
1FF8
0C80
0000
ENDCHAR
STARTCHAR U+af8b
ENCODING 44939
SWIDTH 500 0
DWIDTH 16 0
BBX 16 16 0 0
BITMAP
0030
1098
7FD8
1998
1D98
1D18
1578
FF98
42B0
3F18
02F8
3F98
1898
19F8
0E90
0000
ENDCHAR
STARTCHAR U+af8c
ENCODING 44940
SWIDTH 500 0
DWIDTH 16 0
BBX 16 16 0 0
BITMAP
0030
1098
7FD8
1998
1D98
1D18
1578
FF90
4200
3F60
0230
3F60
1850
198C
0F04
0000
ENDCHAR
STARTCHAR U+af8d
ENCODING 44941
SWIDTH 500 0
DWIDTH 16 0
BBX 16 16 0 0
BITMAP
0030
1098
7FD8
1998
1D98
1D18
1578
FF90
4008
1FFC
0140
1FF8
0C40
0DD0
0638
0000
ENDCHAR
STARTCHAR U+af8e
ENCODING 44942
SWIDTH 500 0
DWIDTH 16 0
BBX 16 16 0 0
BITMAP
0030
1098
7FD8
1998
1D98
1D18
1578
FF98
4210
3FFC
0200
3F98
18D8
1950
0EFC
0000
ENDCHAR
STARTCHAR U+af8f
ENCODING 44943
SWIDTH 500 0
DWIDTH 16 0
BBX 16 16 0 0
BITMAP
0030
1098
7FD8
1998
1D98
1D18
1578
FF98
4218
3F70
0208
3FFC
1870
1988
0E70
0000
ENDCHAR
STARTCHAR U+af90
ENCODING 44944
SWIDTH 500 0
DWIDTH 16 0
BBX 16 16 0 0
BITMAP
0030
1098
7FD8
1998
1D98
1D18
1578
FF98
4010
0FFC
0618
0618
0610
07F8
0400
0000
ENDCHAR
STARTCHAR U+af91
ENCODING 44945
SWIDTH 500 0
DWIDTH 16 0
BBX 16 16 0 0
BITMAP
0030
1098
7FD8
1998
1D98
1D18
1578
FF98
4030
0C18
07F8
0618
0618
07F8
0410
0000
ENDCHAR
STARTCHAR U+af92
ENCODING 44946
SWIDTH 500 0
DWIDTH 16 0
BBX 16 16 0 0
BITMAP
0030
1098
7FD8
1998
1D98
1D18
1518
04F8
FF18
4270
3130
1F30
1958
1FCC
1180
0000
ENDCHAR
STARTCHAR U+af93
ENCODING 44947
SWIDTH 500 0
DWIDTH 16 0
BBX 16 16 0 0
BITMAP
0020
1098
7FD8
1998
1998
1D18
1518
27F8
FE18
4198
00D0
0180
0360
0638
1818
0000
ENDCHAR
STARTCHAR U+af94
ENCODING 44948
SWIDTH 500 0
DWIDTH 16 0
BBX 16 16 0 0
BITMAP
0030
1098
7FD8
1998
1D98
1D18
1518
0478
FF98
4010
0660
0330
0660
0DD8
3308
0000
ENDCHAR
STARTCHAR U+af95
ENCODING 44949
SWIDTH 500 0
DWIDTH 16 0
BBX 16 16 0 0
BITMAP
0020
1098
7FD8
1998
1998
1D18
1578
2798
FC18
40D0
0330
0618
0618
0330
00C0
0000
ENDCHAR
STARTCHAR U+af96
ENCODING 44950
SWIDTH 500 0
DWIDTH 16 0
BBX 16 16 0 0
BITMAP
0030
1098
7FD8
1998
1D98
1D18
15F8
FF18
4010
3FF8
1100
0380
06C0
0C70
3018
0000
ENDCHAR
STARTCHAR U+af97
ENCODING 44951
SWIDTH 500 0
DWIDTH 16 0
BBX 16 16 0 0
BITMAP
0030
1098
7FD8
1998
1D98
1D18
15F8
FF18
47D8
0010
3FF8
0180
0380
0660
1838
0000
ENDCHAR
STARTCHAR U+af98
ENCODING 44952
SWIDTH 500 0
DWIDTH 16 0
BBX 16 16 0 0
BITMAP
0030
1098
7FD8
1998
1D98
1D18
1518
04F8
FF18
4010
1FFC
0018
0FF8
0418
0018
0010
ENDCHAR
STARTCHAR U+af99
ENCODING 44953
SWIDTH 500 0
DWIDTH 16 0
BBX 16 16 0 0
BITMAP
0030
1098
7FD8
1998
1D98
1D18
1518
04F8
FF18
4030
0FF8
0600
07F8
0600
0610
03F8
ENDCHAR
STARTCHAR U+af9a
ENCODING 44954
SWIDTH 500 0
DWIDTH 16 0
BBX 16 16 0 0
BITMAP
0030
1098
7FD8
1998
1D98
1D18
15F8
FF18
6010
1FF8
0060
0630
0330
2120
1FF8
0000
ENDCHAR
STARTCHAR U+af9b
ENCODING 44955
SWIDTH 500 0
DWIDTH 16 0
BBX 16 16 0 0
BITMAP
0030
1098
7FD8
1998
1D98
1D18
15F8
FF18
43D8
1010
0FF8
01C0
0220
0220
01C0
0000
ENDCHAR
STARTCHAR U+af9c
ENCODING 44956
SWIDTH 500 0
DWIDTH 16 0
BBX 16 14 0 0
BITMAP
2318
1FFC
0318
0318
0250
0550
0570
8964
7FFE
2000
0000
0000
0000
0000
ENDCHAR
STARTCHAR U+af9d
ENCODING 44957
SWIDTH 500 0
DWIDTH 16 0
BBX 16 16 0 0
BITMAP
2318
1FFC
0318
0318
0250
0560
8144
7FFE
2000
0018
1FFC
0818
0018
0018
0010
0000
ENDCHAR
STARTCHAR U+af9e
ENCODING 44958
SWIDTH 500 0
DWIDTH 16 0
BBX 16 16 0 0
BITMAP
2318
1FFC
0318
0318
0250
0560
8144
7FFE
2000
0210
3FFC
1318
0318
0318
0210
0000
ENDCHAR
STARTCHAR U+af9f
ENCODING 44959
SWIDTH 500 0
DWIDTH 16 0
BBX 16 16 0 0
BITMAP
2318
1FFC
0318
0318
0250
0560
8144
7FFE
2000
0360
3FB0
0360
02D0
038C
0304
0000
ENDCHAR
STARTCHAR U+afa0
ENCODING 44960
SWIDTH 500 0
DWIDTH 16 0
BBX 16 16 0 0
BITMAP
2318
1FFC
0318
0318
0250
0560
8144
7FFE
2000
0000
0000
1800
0C00
0C20
07F0
0000
ENDCHAR
STARTCHAR U+afa1
ENCODING 44961
SWIDTH 500 0
DWIDTH 16 0
BBX 16 16 0 0
BITMAP
2318
1FFC
0318
0318
0250
0560
8144
7FFE
2000
0000
33F8
1860
18E0
1998
0F08
0000
ENDCHAR
STARTCHAR U+afa2
ENCODING 44962
SWIDTH 500 0
DWIDTH 16 0
BBX 16 16 0 0
BITMAP
2318
1FFC
0318
0318
0250
0560
8144
7FFE
20F0
0208
31FC
1870
1888
1B88
0C70
0000
ENDCHAR
STARTCHAR U+afa3
ENCODING 44963
SWIDTH 500 0
DWIDTH 16 0
BBX 16 16 0 0
BITMAP
2318
1FFC
0318
0318
0250
0560
8144
7FFE
2000
0020
1FF0
0C00
0C00
0C20
07F0
0000
ENDCHAR
STARTCHAR U+afa4
ENCODING 44964
SWIDTH 500 0
DWIDTH 16 0
BBX 16 16 0 0
BITMAP
2318
1FFC
0318
0318
0250
0560
8144
7FFE
2020
1FF0
0020
1FF0
0C00
0C20
07F0
0000
ENDCHAR
STARTCHAR U+afa5
ENCODING 44965
SWIDTH 500 0
DWIDTH 16 0
BBX 16 16 0 0
BITMAP
2318
1FFC
0318
0318
0250
0560
8144
7FFE
2000
0108
1FFC
0118
1F18
0C18
0D98
0610
ENDCHAR
STARTCHAR U+afa6
ENCODING 44966
SWIDTH 500 0
DWIDTH 16 0
BBX 16 16 0 0
BITMAP
2318
1FFC
0318
0318
0250
0560
8144
7FFE
2108
3FFC
0298
3F98
1890
1FF8
0C80
0000
ENDCHAR
STARTCHAR U+afa7
ENCODING 44967
SWIDTH 500 0
DWIDTH 16 0
BBX 16 16 0 0
BITMAP
2318
1FFC
0318
0318
0250
0560
8144
7FFE
22B0
3F18
02F8
3F98
1898
19F8
0E90
0000
ENDCHAR
STARTCHAR U+afa8
ENCODING 44968
SWIDTH 500 0
DWIDTH 16 0
BBX 16 16 0 0
BITMAP
2318
1FFC
0318
0318
0250
0560
8144
7FFE
2200
3F60
0230
3F60
1850
198C
0F04
0000
ENDCHAR
STARTCHAR U+afa9
ENCODING 44969
SWIDTH 500 0
DWIDTH 16 0
BBX 16 16 0 0
BITMAP
2318
1FFC
0318
0318
0250
0560
8144
7FFE
2008
1FFC
0140
1FF8
0C40
0DD0
0638
0000
ENDCHAR
STARTCHAR U+afaa
ENCODING 44970
SWIDTH 500 0
DWIDTH 16 0
BBX 16 16 0 0
BITMAP
2318
1FFC
0318
0318
0250
0560
8144
7FFE
2200
3FFC
0200
3F98
18D8
1950
0EFC
0000
ENDCHAR
STARTCHAR U+afab
ENCODING 44971
SWIDTH 500 0
DWIDTH 16 0
BBX 16 16 0 0
BITMAP
2318
1FFC
0318
0318
0250
0560
8144
7FFE
2270
3F08
02FC
3F70
1888
1988
0E70
0000
ENDCHAR
STARTCHAR U+afac
ENCODING 44972
SWIDTH 500 0
DWIDTH 16 0
BBX 16 16 0 0
BITMAP
2318
1FFC
0318
0318
0250
0560
8144
7FFE
2000
0030
1FF8
0C30
0C30
0C20
0FF0
0800
ENDCHAR
STARTCHAR U+afad
ENCODING 44973
SWIDTH 500 0
DWIDTH 16 0
BBX 16 16 0 0
BITMAP
2318
1FFC
0318
0318
0250
0560
8144
7FFE
2000
2060
1830
0FF0
0C30
0C30
0FF0
0820
ENDCHAR
STARTCHAR U+afae
ENCODING 44974
SWIDTH 500 0
DWIDTH 16 0
BBX 16 16 0 0
BITMAP
2318
1FFC
0318
0318
0250
0560
8144
7FFE
2200
3160
1930
1F30
1958
1FCC
1180
0000
ENDCHAR
STARTCHAR U+afaf
ENCODING 44975
SWIDTH 500 0
DWIDTH 16 0
BBX 16 16 0 0
BITMAP
2318
1FFC
0318
0318
0250
0560
8144
7FFE
2000
0300
0180
0300
06C0
0C70
3030
0000
ENDCHAR
STARTCHAR U+afb0
ENCODING 44976
SWIDTH 500 0
DWIDTH 16 0
BBX 16 16 0 0
BITMAP
2318
1FFC
0318
0318
0250
0560
8144
7FFE
2000
0000
0660
0330
0660
0DD8
3308
0000
ENDCHAR
STARTCHAR U+afb1
ENCODING 44977
SWIDTH 500 0
DWIDTH 16 0
BBX 16 16 0 0
BITMAP
2318
1FFC
0318
0318
0250
0560
8144
7FFE
2000
0180
0660
0C30
0C30
0660
0180
0000
ENDCHAR
STARTCHAR U+afb2
ENCODING 44978
SWIDTH 500 0
DWIDTH 16 0
BBX 16 16 0 0
BITMAP
2318
1FFC
0318
0318
0250
0560
8144
7FFE
2010
3FF8
1100
0380
06C0
0C70
3030
0000
ENDCHAR
STARTCHAR U+afb3
ENCODING 44979
SWIDTH 500 0
DWIDTH 16 0
BBX 16 16 0 0
BITMAP
2318
1FFC
0318
0318
0250
0560
8144
7FFE
27C0
0010
3FF8
0180
0380
0660
1830
0000
ENDCHAR
STARTCHAR U+afb4
ENCODING 44980
SWIDTH 500 0
DWIDTH 16 0
BBX 16 16 0 0
BITMAP
2318
1FFC
0318
0318
0250
0560
8144
7FFE
2030
1FF8
0030
0FF0
0430
0030
0020
0000
ENDCHAR
STARTCHAR U+afb5
ENCODING 44981
SWIDTH 500 0
DWIDTH 16 0
BBX 16 16 0 0
BITMAP
2318
1FFC
0318
0318
0250
0560
8144
7FFE
2020
1FF0
0C00
0FF0
0C00
0C20
07F0
0000
ENDCHAR
STARTCHAR U+afb6
ENCODING 44982
SWIDTH 500 0
DWIDTH 16 0
BBX 16 16 0 0
BITMAP
2318
1FFC
0318
0318
0250
0560
8144
7FFE
2010
1FF8
00C0
0C60
0660
2250
1FF8
0000
ENDCHAR
STARTCHAR U+afb7
ENCODING 44983
SWIDTH 500 0
DWIDTH 16 0
BBX 16 16 0 0
BITMAP
2318
1FFC
0318
0318
0250
0560
8144
7FFE
23C0
1010
0FF8
0380
0440
0440
0380
0000
ENDCHAR
STARTCHAR U+afb8
ENCODING 44984
SWIDTH 500 0
DWIDTH 16 0
BBX 16 16 0 0
BITMAP
2318
1FFC
0318
0318
0210
0630
8424
7FFE
2180
0180
0180
0180
0180
0180
0100
0000
ENDCHAR
STARTCHAR U+afb9
ENCODING 44985
SWIDTH 500 0
DWIDTH 16 0
BBX 16 16 0 0
BITMAP
2318
1FFC
0318
0318
0210
8424
7FFE
2180
0130
1FF8
0830
0030
0030
0030
0020
0000
ENDCHAR
STARTCHAR U+afba
ENCODING 44986
SWIDTH 500 0
DWIDTH 16 0
BBX 16 16 0 0
BITMAP
2318
1FFC
0318
0318
0210
8424
7FFE
2180
0110
3FF8
1330
0330
0330
0330
0220
0000
ENDCHAR
STARTCHAR U+afbb
ENCODING 44987
SWIDTH 500 0
DWIDTH 16 0
BBX 16 16 0 0
BITMAP
2318
1FFC
0318
0318
0210
8424
7FFE
2180
0100
0360
3FB0
0360
02D0
038C
0304
0000
ENDCHAR
STARTCHAR U+afbc
ENCODING 44988
SWIDTH 500 0
DWIDTH 16 0
BBX 16 16 0 0
BITMAP
2318
1FFC
0318
0318
0210
8424
7FFE
2180
0180
0180
1900
0C00
0C20
07F0
0000
0000
ENDCHAR
STARTCHAR U+afbd
ENCODING 44989
SWIDTH 500 0
DWIDTH 16 0
BBX 16 16 0 0
BITMAP
2318
1FFC
0318
0318
0210
8424
7FFE
2180
0180
0100
33F8
1860
18E0
1998
0F08
0000
ENDCHAR
STARTCHAR U+afbe
ENCODING 44990
SWIDTH 500 0
DWIDTH 16 0
BBX 16 16 0 0
BITMAP
2318
1FFC
0318
0318
0210
8424
7FFE
2180
01F0
3008
1BFC
1870
1888
1B88
0C70
0000
ENDCHAR
STARTCHAR U+afbf
ENCODING 44991
SWIDTH 500 0
DWIDTH 16 0
BBX 16 16 0 0
BITMAP
0318
3FFC
0318
0318
0210
8424
7FFE
2180
0180
0110
1FF8
0C00
0C00
0C10
07F8
0000
ENDCHAR
STARTCHAR U+afc0
ENCODING 44992
SWIDTH 500 0
DWIDTH 16 0
BBX 16 16 0 0
BITMAP
2318
1FFC
0318
0318
0210
8424
7FFE
2180
0130
1FF8
0020
1FF0
0C00
0C20
07F0
0000
ENDCHAR
STARTCHAR U+afc1
ENCODING 44993
SWIDTH 500 0
DWIDTH 16 0
BBX 16 16 0 0
BITMAP
2318
1FFC
0318
0318
0210
8424
7FFE
2180
0118
3FFC
0118
3F98
1818
1998
0E10
0000
ENDCHAR
STARTCHAR U+afc2
ENCODING 44994
SWIDTH 500 0
DWIDTH 16 0
BBX 16 16 0 0
BITMAP
2318
1FFC
0318
0318
0210
8424
7FFE
2180
0118
3FFC
0298
3F98
1890
1990
0EF8
0080
ENDCHAR
STARTCHAR U+afc3
ENCODING 44995
SWIDTH 500 0
DWIDTH 16 0
BBX 16 16 0 0
BITMAP
2318
1FFC
0318
0318
0210
8424
7FFE
2180
0330
3F18
02F8
3F98
1898
19F8
0E90
0000
ENDCHAR
STARTCHAR U+afc4
ENCODING 44996
SWIDTH 500 0
DWIDTH 16 0
BBX 16 16 0 0
BITMAP
2318
1FFC
0318
0318
0210
8424
7FFE
2180
0300
3F60
0230
3F60
1850
198C
0F04
0000
ENDCHAR
STARTCHAR U+afc5
ENCODING 44997
SWIDTH 500 0
DWIDTH 16 0
BBX 16 16 0 0
BITMAP
2318
1FFC
0318
0318
0210
8424
7FFE
2180
0510
3FF8
0380
3FF0
1980
1980
0EF8
0000
ENDCHAR
STARTCHAR U+afc6
ENCODING 44998
SWIDTH 500 0
DWIDTH 16 0
BBX 16 16 0 0
BITMAP
2318
1FFC
0318
0318
0210
8424
7FFE
2180
0300
3FFC
0200
3F98
18D8
1950
0EFC
0000
ENDCHAR
STARTCHAR U+afc7
ENCODING 44999
SWIDTH 500 0
DWIDTH 16 0
BBX 16 16 0 0
BITMAP
2318
1FFC
0318
0318
0210
8424
7FFE
2180
05F0
3F08
05FC
3E70
1088
1388
0C70
0000
ENDCHAR
STARTCHAR U+afc8
ENCODING 45000
SWIDTH 500 0
DWIDTH 16 0
BBX 16 16 0 0
BITMAP
2318
1FFC
0318
0318
0210
8424
7FFE
2180
0130
1FF8
0C30
0C30
0C20
0FF0
0800
0000
ENDCHAR
STARTCHAR U+afc9
ENCODING 45001
SWIDTH 500 0
DWIDTH 16 0
BBX 16 16 0 0
BITMAP
0318
3FFC
0318
0318
0210
8424
7FFE
2180
0180
0160
1830
0FF0
0C30
0C30
0FF0
0820
ENDCHAR
STARTCHAR U+afca
ENCODING 45002
SWIDTH 500 0
DWIDTH 16 0
BBX 16 16 0 0
BITMAP
2318
1FFC
0318
0318
0210
8424
7FFE
2180
0300
3160
1930
1F30
1958
1FCC
1180
0000
ENDCHAR
STARTCHAR U+afcb
ENCODING 45003
SWIDTH 500 0
DWIDTH 16 0
BBX 16 16 0 0
BITMAP
0318
3FFC
0318
0318
0210
8424
7FFE
2180
0180
0300
0180
0180
0360
0638
1818
0000
ENDCHAR
STARTCHAR U+afcc
ENCODING 45004
SWIDTH 500 0
DWIDTH 16 0
BBX 16 16 0 0
BITMAP
2318
1FFC
0318
0318
0210
8424
7FFE
2180
0100
0080
0660
0330
0660
0DD8
3308
0000
ENDCHAR
STARTCHAR U+afcd
ENCODING 45005
SWIDTH 500 0
DWIDTH 16 0
BBX 16 16 0 0
BITMAP
0318
3FFC
0318
0318
0210
8424
7FFE
2180
0100
0180
0660
0C30
0C30
0660
0180
0000
ENDCHAR
STARTCHAR U+afce
ENCODING 45006
SWIDTH 500 0
DWIDTH 16 0
BBX 16 16 0 0
BITMAP
0318
3FFC
0318
0318
0210
8424
7FFE
2180
0110
1FF8
0980
0180
0360
0638
1818
0000
ENDCHAR
STARTCHAR U+afcf
ENCODING 45007
SWIDTH 500 0
DWIDTH 16 0
BBX 16 16 0 0
BITMAP
2318
1FFC
0318
0318
0210
8424
7FFE
2180
0900
07E0
2010
1FF8
0180
0660
1830
0000
ENDCHAR
STARTCHAR U+afd0
ENCODING 45008
SWIDTH 500 0
DWIDTH 16 0
BBX 16 16 0 0
BITMAP
2318
1FFC
0318
0318
0210
8424
7FFE
2180
0100
0010
1FF8
0030
01F0
0E30
0420
0000
ENDCHAR
STARTCHAR U+afd1
ENCODING 45009
SWIDTH 500 0
DWIDTH 16 0
BBX 16 16 0 0
BITMAP
2318
1FFC
0318
0318
0210
8424
7FFE
2180
0120
1FF0
0C00
0FF0
0C00
0C20
07F0
0000
ENDCHAR
STARTCHAR U+afd2
ENCODING 45010
SWIDTH 500 0
DWIDTH 16 0
BBX 16 16 0 0
BITMAP
2318
1FFC
0318
0318
0210
8424
7FFE
2180
0110
3FF8
0000
0C60
0660
2250
1FF8
0000
ENDCHAR
STARTCHAR U+afd3
ENCODING 45011
SWIDTH 500 0
DWIDTH 16 0
BBX 16 16 0 0
BITMAP
2318
1FFC
0318
0318
0210
8424
7FFE
2180
0300
2190
1FF8
03C0
0420
0420
03C0
0000
ENDCHAR
STARTCHAR U+afd4
ENCODING 45012
SWIDTH 500 0
DWIDTH 16 0
BBX 16 16 0 0
BITMAP
0020
0018
4898
3FD8
0D98
0D98
0918
1218
FFF8
4C18
0DF8
0C18
0C18
0818
0010
0000
ENDCHAR
STARTCHAR U+afd5
ENCODING 45013
SWIDTH 500 0
DWIDTH 16 0
BBX 16 16 0 0
BITMAP
0030
0898
7FD8
0D98
0918
1278
FF98
4DF8
0810
0FFC
0418
0018
0018
0018
0010
0000
ENDCHAR
STARTCHAR U+afd6
ENCODING 45014
SWIDTH 500 0
DWIDTH 16 0
BBX 16 16 0 0
BITMAP
0030
0898
7FD8
0D98
0918
1278
FF98
4DF8
0A10
3FFC
1318
0318
0318
0318
0210
0000
ENDCHAR
STARTCHAR U+afd7
ENCODING 45015
SWIDTH 500 0
DWIDTH 16 0
BBX 16 16 0 0
BITMAP
0020
0898
7FD8
0D98
0918
12F8
FF18
4CF8
0C50
0B60
3FB0
0360
02D0
038C
0304
0000
ENDCHAR
STARTCHAR U+afd8
ENCODING 45016
SWIDTH 500 0
DWIDTH 16 0
BBX 16 16 0 0
BITMAP
0020
0898
7FD8
0D98
0918
1218
8418
7FF8
2C18
0DF8
0818
1C10
0600
0610
03F8
0000
ENDCHAR
STARTCHAR U+afd9
ENCODING 45017
SWIDTH 500 0
DWIDTH 16 0
BBX 16 16 0 0
BITMAP
0030
0898
7FD8
0D98
0918
1278
FF98
4C18
0DF8
0810
33F8
1860
18E0
1998
0F08
0000
ENDCHAR
STARTCHAR U+afda
ENCODING 45018
SWIDTH 500 0
DWIDTH 16 0
BBX 16 16 0 0
BITMAP
0030
0898
7FD8
0D98
0918
1278
FF98
4C78
0C10
0AF8
33FC
1870
1888
1B88
0C60
0000
ENDCHAR
STARTCHAR U+afdb
ENCODING 45019
SWIDTH 500 0
DWIDTH 16 0
BBX 16 16 0 0
BITMAP
0030
0898
7FD8
0D98
0918
1218
05F8
FE18
4DF8
0810
0FF8
0600
0600
0610
03F8
0000
ENDCHAR
STARTCHAR U+afdc
ENCODING 45020
SWIDTH 500 0
DWIDTH 16 0
BBX 16 16 0 0
BITMAP
0030
0898
7FD8
0D98
0918
12F8
FF18
4CF8
0810
0FF8
0010
0FF8
0600
0610
03F8
0000
ENDCHAR
STARTCHAR U+afdd
ENCODING 45021
SWIDTH 500 0
DWIDTH 16 0
BBX 16 16 0 0
BITMAP
0030
0898
7FD8
0D98
0918
12F8
FF18
4CF8
0C10
1FFC
0218
3F18
1818
1998
0E10
0000
ENDCHAR
STARTCHAR U+afde
ENCODING 45022
SWIDTH 500 0
DWIDTH 16 0
BBX 16 16 0 0
BITMAP
0030
0898
7FD8
0D98
0918
12F8
FF18
4CF8
0C10
3FFC
0298
3F98
1890
19F8
0E80
0000
ENDCHAR
STARTCHAR U+afdf
ENCODING 45023
SWIDTH 500 0
DWIDTH 16 0
BBX 16 16 0 0
BITMAP
0030
0898
7FD8
0D98
0918
12F8
FF18
4CF8
0A30
3F18
02F8
3F98
1898
19F8
0E90
0000
ENDCHAR
STARTCHAR U+afe0
ENCODING 45024
SWIDTH 500 0
DWIDTH 16 0
BBX 16 16 0 0
BITMAP
0030
0898
7FD8
0D98
0918
12F8
FF18
4CF8
0810
3F60
0230
3F30
1870
19CC
0E04
0000
ENDCHAR
STARTCHAR U+afe1
ENCODING 45025
SWIDTH 500 0
DWIDTH 16 0
BBX 16 16 0 0
BITMAP
0030
0898
7FD8
0D98
0918
12F8
FF18
4CF8
0910
3FF8
02C0
3FF8
18C0
19D0
0E78
0000
ENDCHAR
STARTCHAR U+afe2
ENCODING 45026
SWIDTH 500 0
DWIDTH 16 0
BBX 16 16 0 0
BITMAP
0030
0898
7FD8
0D98
0918
12F8
FF18
4CF8
0A10
3FFC
0200
3F98
18D8
1950
0EFC
0000
ENDCHAR
STARTCHAR U+afe3
ENCODING 45027
SWIDTH 500 0
DWIDTH 16 0
BBX 16 16 0 0
BITMAP
0030
0898
7FD8
0D98
0918
1278
FF98
4C78
0910
1F60
01FC
1F70
0888
0988
0670
0000
ENDCHAR
STARTCHAR U+afe4
ENCODING 45028
SWIDTH 500 0
DWIDTH 16 0
BBX 16 16 0 0
BITMAP
0030
0898
7FD8
0D98
0918
1218
05F8
FE18
4DF8
0810
0FFC
0618
0618
0610
07F8
0400
ENDCHAR
STARTCHAR U+afe5
ENCODING 45029
SWIDTH 500 0
DWIDTH 16 0
BBX 16 16 0 0
BITMAP
0030
0898
7FD8
0D98
0918
1278
FF98
4C18
0DF8
0830
0C18
07F8
0618
0618
07F8
0410
ENDCHAR
STARTCHAR U+afe6
ENCODING 45030
SWIDTH 500 0
DWIDTH 16 0
BBX 16 16 0 0
BITMAP
0030
0898
7FD8
0D98
0918
1278
FF98
4C18
0CF8
0A30
3160
1930
1F30
1958
1FCC
1180
ENDCHAR
STARTCHAR U+afe7
ENCODING 45031
SWIDTH 500 0
DWIDTH 16 0
BBX 16 16 0 0
BITMAP
0020
0898
7FD8
0D98
0918
1218
FFF8
4C18
0CF8
0B18
0190
0180
0360
0638
1818
0000
ENDCHAR
STARTCHAR U+afe8
ENCODING 45032
SWIDTH 500 0
DWIDTH 16 0
BBX 16 16 0 0
BITMAP
0020
0898
7FD8
0D98
0918
1218
FFF8
4C18
0CF8
0818
0670
0330
0660
0DD8
3308
0000
ENDCHAR
STARTCHAR U+afe9
ENCODING 45033
SWIDTH 500 0
DWIDTH 16 0
BBX 16 16 0 0
BITMAP
0020
0898
7FD8
0D98
0918
1278
FF98
4CF8
0C18
08D0
0330
0618
0618
0330
00C0
0000
ENDCHAR
STARTCHAR U+afea
ENCODING 45034
SWIDTH 500 0
DWIDTH 16 0
BBX 16 16 0 0
BITMAP
0030
0898
7FD8
0D98
0918
12F8
FF18
4CF8
0818
1010
0FF8
0180
0360
0638
1818
0000
ENDCHAR
STARTCHAR U+afeb
ENCODING 45035
SWIDTH 500 0
DWIDTH 16 0
BBX 16 16 0 0
BITMAP
0030
0898
7FD8
0D98
0918
12F8
FF18
4CF8
0810
03F0
1010
0FF8
00C0
01A0
0630
0000
ENDCHAR
STARTCHAR U+afec
ENCODING 45036
SWIDTH 500 0
DWIDTH 16 0
BBX 16 16 0 0
BITMAP
0030
0898
7FD8
0D98
0918
12F8
FF18
4CF8
0810
0FFC
0018
00F8
0F18
0418
0010
0000
ENDCHAR
STARTCHAR U+afed
ENCODING 45037
SWIDTH 500 0
DWIDTH 16 0
BBX 16 16 0 0
BITMAP
0030
0898
7FD8
0D98
0918
12F8
FF18
4CF8
0810
0FF8
0600
07F8
0600
0610
03F8
0000
ENDCHAR
STARTCHAR U+afee
ENCODING 45038
SWIDTH 500 0
DWIDTH 16 0
BBX 16 16 0 0
BITMAP
0030
0898
7FD8
0D98
0918
12F8
FF18
4CF8
0810
0FF8
0060
0630
0330
1120
0FF8
0000
ENDCHAR
STARTCHAR U+afef
ENCODING 45039
SWIDTH 500 0
DWIDTH 16 0
BBX 16 16 0 0
BITMAP
0030
0898
7FD8
0D98
0918
12F8
FF18
4CF8
0810
03F0
1010
0FF8
01C0
0220
0220
01C0
ENDCHAR
STARTCHAR U+aff0
ENCODING 45040
SWIDTH 500 0
DWIDTH 16 0
BBX 16 16 0 0
BITMAP
0030
0118
22D8
FED8
36D8
34D8
24D8
FFD8
58D8
1FD8
18D8
18D8
10D8
0098
0010
0000
ENDCHAR
STARTCHAR U+aff1
ENCODING 45041
SWIDTH 500 0
DWIDTH 16 0
BBX 16 16 0 0
BITMAP
0020
0198
22D8
FED8
36D8
24D8
4FD8
F8D8
1BD8
1090
1FFC
0818
0018
0018
0010
0000
ENDCHAR
STARTCHAR U+aff2
ENCODING 45042
SWIDTH 500 0
DWIDTH 16 0
BBX 16 16 0 0
BITMAP
0020
0198
22D8
FED8
36D8
24D8
4FD8
F8D8
1BD8
1090
3FFC
1318
0318
0318
0210
0000
ENDCHAR
STARTCHAR U+aff3
ENCODING 45043
SWIDTH 500 0
DWIDTH 16 0
BBX 16 16 0 0
BITMAP
0020
0198
22D8
FED8
36D8
24D8
4FD8
F8D8
1BD8
1370
3FB0
0360
02D0
038C
0304
0000
ENDCHAR
STARTCHAR U+aff4
ENCODING 45044
SWIDTH 500 0
DWIDTH 16 0
BBX 16 16 0 0
BITMAP
0020
0198
12D8
FED8
36D8
24D8
48D8
FFD8
18D8
1FD8
10D8
0C90
0600
0610
03F8
0000
ENDCHAR
STARTCHAR U+aff5
ENCODING 45045
SWIDTH 500 0
DWIDTH 16 0
BBX 16 16 0 0
BITMAP
0020
0198
22D8
FED8
36D8
27D8
FCD8
58D8
1FD8
1090
33F8
1860
18E0
1998
0F08
0000
ENDCHAR
STARTCHAR U+aff6
ENCODING 45046
SWIDTH 500 0
DWIDTH 16 0
BBX 16 16 0 0
BITMAP
0020
0198
22D8
FED8
36D8
27D8
FCD8
5BD8
1890
12F8
33FC
1870
1888
1B88
0C70
0000
ENDCHAR
STARTCHAR U+aff7
ENCODING 45047
SWIDTH 500 0
DWIDTH 16 0
BBX 16 16 0 0
BITMAP
0020
0198
22D8
FED8
36D8
27D8
FCD8
58D8
1FD8
1090
0FF8
0600
0600
0610
03F8
0000
ENDCHAR
STARTCHAR U+aff8
ENCODING 45048
SWIDTH 500 0
DWIDTH 16 0
BBX 16 16 0 0
BITMAP
0020
0198
12D8
FED8
36D8
24D8
FFD8
18D8
1BD8
1090
0FF8
0010
0FF8
0600
0610
03F8
ENDCHAR
STARTCHAR U+aff9
ENCODING 45049
SWIDTH 500 0
DWIDTH 16 0
BBX 16 16 0 0
BITMAP
0020
0198
22D8
FED8
36D8
24D8
FFD8
58D8
1BD8
1090
1FFC
0218
3F18
1818
1998
0E10
ENDCHAR
STARTCHAR U+affa
ENCODING 45050
SWIDTH 500 0
DWIDTH 16 0
BBX 16 16 0 0
BITMAP
0020
0198
22D8
FED8
36D8
24D8
FFD8
58D8
1BD8
1090
3FFC
0298
3F98
1890
19F8
0E80
ENDCHAR
STARTCHAR U+affb
ENCODING 45051
SWIDTH 500 0
DWIDTH 16 0
BBX 16 16 0 0
BITMAP
0020
0198
22D8
FED8
36D8
24D8
FFD8
58D8
1BD8
12B0
3F18
02F8
3F98
1898
19F8
0E90
ENDCHAR
STARTCHAR U+affc
ENCODING 45052
SWIDTH 500 0
DWIDTH 16 0
BBX 16 16 0 0
BITMAP
0020
0198
22D8
FED8
36D8
24D8
FFD8
58D8
1BD8
1090
3F60
0230
3F30
1870
19CC
0E04
ENDCHAR
STARTCHAR U+affd
ENCODING 45053
SWIDTH 500 0
DWIDTH 16 0
BBX 16 16 0 0
BITMAP
0020
0198
22D8
FED8
36D8
24D8
FFD8
58D8
1BD8
1190
3FF8
02C0
3FF8
18C0
19D0
0E78
ENDCHAR
STARTCHAR U+affe
ENCODING 45054
SWIDTH 500 0
DWIDTH 16 0
BBX 16 16 0 0
BITMAP
0020
0198
22D8
FED8
36D8
24D8
FFD8
58D8
1BD8
1290
3FFC
0200
3F98
18D8
1950
0EFC
ENDCHAR
STARTCHAR U+afff
ENCODING 45055
SWIDTH 500 0
DWIDTH 16 0
BBX 16 16 0 0
BITMAP
0020
0198
22D8
FED8
36D8
24D8
FFD8
58D8
1B90
11F0
1F88
01FC
1F70
0888
0988
0670
ENDCHAR
STARTCHAR U+b000
ENCODING 45056
SWIDTH 500 0
DWIDTH 16 0
BBX 16 16 0 0
BITMAP
0020
0198
12D8
FFD8
36D8
24D8
FFD8
18D8
1FD8
1090
0FFC
0618
0618
0610
07F8
0400
ENDCHAR
STARTCHAR U+b001
ENCODING 45057
SWIDTH 500 0
DWIDTH 16 0
BBX 16 16 0 0
BITMAP
0020
0198
12D8
FFD8
36D8
24D8
FFD8
18D8
1FD8
10B0
0C18
07F8
0618
0618
07F8
0410
ENDCHAR
STARTCHAR U+b002
ENCODING 45058
SWIDTH 500 0
DWIDTH 16 0
BBX 16 16 0 0
BITMAP
0020
0198
22D8
FED8
36D8
24D8
FFD8
58D8
1FD8
1698
3170
1920
1F30
1958
1FCC
1180
ENDCHAR
STARTCHAR U+b003
ENCODING 45059
SWIDTH 500 0
DWIDTH 16 0
BBX 16 16 0 0
BITMAP
0020
0198
22D8
FED8
36D8
24D8
4BD8
FCD8
5FD8
1898
1998
10D0
01C0
0330
0C18
0000
ENDCHAR
STARTCHAR U+b004
ENCODING 45060
SWIDTH 500 0
DWIDTH 16 0
BBX 16 16 0 0
BITMAP
0020
0198
12D8
FFD8
36D8
24D8
FFD8
18D8
1BD8
1898
1670
0330
0660
0DD0
3318
0000
ENDCHAR
STARTCHAR U+b005
ENCODING 45061
SWIDTH 500 0
DWIDTH 16 0
BBX 16 16 0 0
BITMAP
0020
0198
12D8
FED8
36D8
24D8
FFD8
18D8
1F98
18D0
1330
0618
0618
0330
00C0
0000
ENDCHAR
STARTCHAR U+b006
ENCODING 45062
SWIDTH 500 0
DWIDTH 16 0
BBX 16 16 0 0
BITMAP
0020
0198
22D8
FED8
36D8
27D8
FCD8
58D8
1FD8
1090
0FF8
0180
0360
0638
1818
0000
ENDCHAR
STARTCHAR U+b007
ENCODING 45063
SWIDTH 500 0
DWIDTH 16 0
BBX 16 16 0 0
BITMAP
0020
0198
22D8
FED8
36D8
27D8
FCD8
5BD8
1890
13F0
0810
07F8
00C0
0180
0370
0C18
ENDCHAR
STARTCHAR U+b008
ENCODING 45064
SWIDTH 500 0
DWIDTH 16 0
BBX 16 16 0 0
BITMAP
0020
0198
22D8
FED8
36D8
24D8
4FD8
F8D8
1BD8
1090
1FFC
0818
00F8
0F18
0410
0000
ENDCHAR
STARTCHAR U+b009
ENCODING 45065
SWIDTH 500 0
DWIDTH 16 0
BBX 16 16 0 0
BITMAP
0020
0198
22D8
FED8
36D8
27D8
FCD8
58D8
1FD8
1090
0FF8
0600
07F8
0600
03F8
0000
ENDCHAR
STARTCHAR U+b00a
ENCODING 45066
SWIDTH 500 0
DWIDTH 16 0
BBX 16 16 0 0
BITMAP
0020
0198
22D8
FED8
36D8
27D8
FCD8
58D8
1FD8
1090
0FF8
0060
0630
0330
1120
0FF8
ENDCHAR
STARTCHAR U+b00b
ENCODING 45067
SWIDTH 500 0
DWIDTH 16 0
BBX 16 16 0 0
BITMAP
0020
0198
22D8
FED8
36D8
27D8
FCD8
58D8
1FD8
1090
0BF0
07D8
01C0
0220
0220
01C0
ENDCHAR
STARTCHAR U+b00c
ENCODING 45068
SWIDTH 500 0
DWIDTH 16 0
BBX 16 16 0 0
BITMAP
0020
0018
4898
3FD8
0D98
0D98
0918
1278
FF98
4C18
0C18
0C18
0C18
0818
0010
0000
ENDCHAR
STARTCHAR U+b00d
ENCODING 45069
SWIDTH 500 0
DWIDTH 16 0
BBX 16 16 0 0
BITMAP
0030
0898
7FD8
0D98
0D98
8978
7F98
2C18
0810
1FFC
0818
0018
0018
0018
0010
0000
ENDCHAR
STARTCHAR U+b00e
ENCODING 45070
SWIDTH 500 0
DWIDTH 16 0
BBX 16 16 0 0
BITMAP
0030
0898
7FD8
0D98
0D98
0978
FF98
4C18
0A10
3FFC
1318
0318
0318
0318
0210
0000
ENDCHAR
STARTCHAR U+b00f
ENCODING 45071
SWIDTH 500 0
DWIDTH 16 0
BBX 16 16 0 0
BITMAP
0030
0898
7FD8
0D98
0D98
0978
FF98
4C18
0C10
0B60
3FB0
0360
02D0
038C
0304
0000
ENDCHAR
STARTCHAR U+b010
ENCODING 45072
SWIDTH 500 0
DWIDTH 16 0
BBX 16 16 0 0
BITMAP
0020
0898
7FD8
0D98
0D98
0918
1278
FF98
4C18
0C18
0818
1810
0C00
0C10
07F8
0000
ENDCHAR
STARTCHAR U+b011
ENCODING 45073
SWIDTH 500 0
DWIDTH 16 0
BBX 16 16 0 0
BITMAP
0030
0898
7FD8
0D98
0D98
0978
FF98
4C18
0C18
0810
33F8
1860
18E0
1998
0F08
0000
ENDCHAR
STARTCHAR U+b012
ENCODING 45074
SWIDTH 500 0
DWIDTH 16 0
BBX 16 16 0 0
BITMAP
0030
0898
7FD8
0D98
0D98
0978
FF98
4C18
0C10
0AF8
33FC
1870
1888
1B88
0C70
0000
ENDCHAR
STARTCHAR U+b013
ENCODING 45075
SWIDTH 500 0
DWIDTH 16 0
BBX 16 16 0 0
BITMAP
0030
0898
7FD8
0D98
0D98
0978
FF98
4C18
0C18
0810
0FF8
0600
0600
0610
03F8
0000
ENDCHAR
STARTCHAR U+b014
ENCODING 45076
SWIDTH 500 0
DWIDTH 16 0
BBX 16 16 0 0
BITMAP
0030
0898
7FD8
0D98
0918
1218
FFF8
4C18
0810
0FF8
0010
0FF8
0600
0610
03F8
0000
ENDCHAR
STARTCHAR U+b015
ENCODING 45077
SWIDTH 500 0
DWIDTH 16 0
BBX 16 16 0 0
BITMAP
0030
0898
7FD8
0D98
0D98
0978
FF98
4C18
0810
1FFC
0218
3F18
1818
1998
0E10
0000
ENDCHAR
STARTCHAR U+b016
ENCODING 45078
SWIDTH 500 0
DWIDTH 16 0
BBX 16 16 0 0
BITMAP
0030
0898
7FD8
0D98
0D98
0978
FF98
4C18
0810
3FFC
0298
3F98
1890
19F8
0E80
0000
ENDCHAR
STARTCHAR U+b017
ENCODING 45079
SWIDTH 500 0
DWIDTH 16 0
BBX 16 16 0 0
BITMAP
0030
0898
7FD8
0D98
0D98
0978
FF98
4C18
0A30
3F18
02F8
3F98
1898
19F8
0E90
0000
ENDCHAR
STARTCHAR U+b018
ENCODING 45080
SWIDTH 500 0
DWIDTH 16 0
BBX 16 16 0 0
BITMAP
0030
0898
7FD8
0D98
0D98
0978
FF98
4C18
0810
3F60
0230
3F30
1870
19CC
0E04
0000
ENDCHAR
STARTCHAR U+b019
ENCODING 45081
SWIDTH 500 0
DWIDTH 16 0
BBX 16 16 0 0
BITMAP
0030
0898
7FD8
0D98
0D98
0978
FF98
4C18
0910
3FF8
02C0
3FF8
18C0
19D0
0E78
0000
ENDCHAR
STARTCHAR U+b01a
ENCODING 45082
SWIDTH 500 0
DWIDTH 16 0
BBX 16 16 0 0
BITMAP
0030
0898
7FD8
0D98
0D98
0978
FF98
4C18
0A10
3FFC
0200
3F98
18D8
1950
0EFC
0000
ENDCHAR
STARTCHAR U+b01b
ENCODING 45083
SWIDTH 500 0
DWIDTH 16 0
BBX 16 16 0 0
BITMAP
0030
0898
7FD8
0D98
0D98
0978
FF98
4C18
0970
3F88
02FC
3F70
1888
1988
0E70
0000
ENDCHAR
STARTCHAR U+b01c
ENCODING 45084
SWIDTH 500 0
DWIDTH 16 0
BBX 16 16 0 0
BITMAP
0030
0898
7FD8
0D98
0918
1218
FFF8
4C18
0C18
0810
0FFC
0618
0618
0610
07F8
0400
ENDCHAR
STARTCHAR U+b01d
ENCODING 45085
SWIDTH 500 0
DWIDTH 16 0
BBX 16 16 0 0
BITMAP
0030
0898
7FD8
0D98
0918
1218
FFF8
4C18
0C18
0830
0C18
07F8
0618
0618
07F8
0410
ENDCHAR
STARTCHAR U+b01e
ENCODING 45086
SWIDTH 500 0
DWIDTH 16 0
BBX 16 16 0 0
BITMAP
0030
0898
7FD8
0D98
0D98
0978
FF98
4C18
0818
0610
3160
1930
1F30
1958
1FCC
1180
ENDCHAR
STARTCHAR U+b01f
ENCODING 45087
SWIDTH 500 0
DWIDTH 16 0
BBX 16 16 0 0
BITMAP
0020
0898
7FD8
0D98
0918
1218
FFF8
4C18
0C18
0D98
08D0
0180
0360
0638
1818
0000
ENDCHAR
STARTCHAR U+b020
ENCODING 45088
SWIDTH 500 0
DWIDTH 16 0
BBX 16 16 0 0
BITMAP
0030
0898
7FD8
0D98
0D98
0978
FF98
4C18
0C18
0810
0630
0330
0660
0DD8
330C
0000
ENDCHAR
STARTCHAR U+b021
ENCODING 45089
SWIDTH 500 0
DWIDTH 16 0
BBX 16 16 0 0
BITMAP
0020
0898
7FD8
0D98
0D98
0978
FF98
4C18
0C18
08D0
0330
0618
0618
0330
00C0
0000
ENDCHAR
STARTCHAR U+b022
ENCODING 45090
SWIDTH 500 0
DWIDTH 16 0
BBX 16 16 0 0
BITMAP
0030
0898
7FD8
0D98
0D98
0978
FF98
4C18
0818
1010
0FF8
0180
0360
0638
1818
0000
ENDCHAR
STARTCHAR U+b023
ENCODING 45091
SWIDTH 500 0
DWIDTH 16 0
BBX 16 16 0 0
BITMAP
0030
0898
7FD8
0D98
0D98
0978
FF98
4C18
0BF0
1010
0FF8
00C0
0180
0370
0C18
0000
ENDCHAR
STARTCHAR U+b024
ENCODING 45092
SWIDTH 500 0
DWIDTH 16 0
BBX 16 16 0 0
BITMAP
0030
0898
7FD8
0D98
0D98
0978
FF98
4C18
0810
0FFC
0018
00F8
0F18
0418
0010
0000
ENDCHAR
STARTCHAR U+b025
ENCODING 45093
SWIDTH 500 0
DWIDTH 16 0
BBX 16 16 0 0
BITMAP
0030
0898
7FD8
0D98
0D98
0978
FF98
4C18
0810
0FF8
0600
07F8
0600
0610
03F8
0000
ENDCHAR
STARTCHAR U+b026
ENCODING 45094
SWIDTH 500 0
DWIDTH 16 0
BBX 16 16 0 0
BITMAP
0030
0898
7FD8
0D98
0D98
0978
FF98
4C18
0810
0FF8
0060
0630
0330
1120
0FF8
0000
ENDCHAR
STARTCHAR U+b027
ENCODING 45095
SWIDTH 500 0
DWIDTH 16 0
BBX 16 16 0 0
BITMAP
0030
0898
7FD8
0D98
0D98
0978
FF98
4C18
0BF0
1010
0FF8
01C0
0220
0220
01C0
0000
ENDCHAR
STARTCHAR U+b028
ENCODING 45096
SWIDTH 500 0
DWIDTH 16 0
BBX 16 16 0 0
BITMAP
0318
3FFC
0318
0318
0210
8424
7FFE
2660
0660
0660
0660
0660
0660
0460
0040
0000
ENDCHAR
STARTCHAR U+b029
ENCODING 45097
SWIDTH 500 0
DWIDTH 16 0
BBX 16 16 0 0
BITMAP
2318
1FFC
0318
0318
0210
8424
7FFE
2660
0450
1FF8
0830
0030
0030
0030
0020
0000
ENDCHAR
STARTCHAR U+b02a
ENCODING 45098
SWIDTH 500 0
DWIDTH 16 0
BBX 16 16 0 0
BITMAP
2318
1FFC
0318
0318
0210
8424
7FFE
2660
0450
3FF8
1330
0330
0330
0330
0220
0000
ENDCHAR
STARTCHAR U+b02b
ENCODING 45099
SWIDTH 500 0
DWIDTH 16 0
BBX 16 16 0 0
BITMAP
2318
1FFC
0318
0318
0210
8424
7FFE
2660
0440
0360
3FB0
0360
02D0
038C
0304
0000
ENDCHAR
STARTCHAR U+b02c
ENCODING 45100
SWIDTH 500 0
DWIDTH 16 0
BBX 16 16 0 0
BITMAP
2318
1FFC
0318
0318
0210
8424
7FFE
2660
0660
0660
0440
1800
0C00
0C20
07F0
0000
ENDCHAR
STARTCHAR U+b02d
ENCODING 45101
SWIDTH 500 0
DWIDTH 16 0
BBX 16 16 0 0
BITMAP
2318
1FFC
0318
0318
0210
8424
7FFE
2660
0660
0440
33F8
1860
18E0
1998
0F08
0000
ENDCHAR
STARTCHAR U+b02e
ENCODING 45102
SWIDTH 500 0
DWIDTH 16 0
BBX 16 16 0 0
BITMAP
2318
1FFC
0318
0318
0210
8424
7FFE
2660
0440
31F0
1808
1BFC
1870
1B88
0C70
0000
ENDCHAR
STARTCHAR U+b02f
ENCODING 45103
SWIDTH 500 0
DWIDTH 16 0
BBX 16 16 0 0
BITMAP
2318
1FFC
0318
0318
0210
8424
7FFE
2660
0660
0450
1FF8
0C00
0C00
0C10
07F8
0000
ENDCHAR
STARTCHAR U+b030
ENCODING 45104
SWIDTH 500 0
DWIDTH 16 0
BBX 16 16 0 0
BITMAP
2318
1FFC
0318
0318
0210
8424
7FFE
2660
0470
1FF8
0020
1FF0
0C00
0C10
07F8
0000
ENDCHAR
STARTCHAR U+b031
ENCODING 45105
SWIDTH 500 0
DWIDTH 16 0
BBX 16 16 0 0
BITMAP
2318
1FFC
0318
0318
0210
8424
7FFE
2660
0458
3FFC
0118
3F98
1818
1998
0E10
0000
ENDCHAR
STARTCHAR U+b032
ENCODING 45106
SWIDTH 500 0
DWIDTH 16 0
BBX 16 16 0 0
BITMAP
2318
1FFC
0318
0318
0210
8424
7FFE
2660
0458
3FFC
0298
3F98
1890
1990
0EF8
0080
ENDCHAR
STARTCHAR U+b033
ENCODING 45107
SWIDTH 500 0
DWIDTH 16 0
BBX 16 16 0 0
BITMAP
2318
1FFC
0318
0318
0210
8424
7FFE
2660
0650
3F18
02F8
3F98
1898
19F8
0E90
0000
ENDCHAR
STARTCHAR U+b034
ENCODING 45108
SWIDTH 500 0
DWIDTH 16 0
BBX 16 16 0 0
BITMAP
2318
1FFC
0318
0318
0210
8424
7FFE
2660
0640
3F60
0230
3F60
1850
198C
0F04
0000
ENDCHAR
STARTCHAR U+b035
ENCODING 45109
SWIDTH 500 0
DWIDTH 16 0
BBX 16 16 0 0
BITMAP
2318
1FFC
0318
0318
0210
8424
7FFE
2660
0450
3FF8
0380
3FF0
1980
1980
0EF8
0000
ENDCHAR
STARTCHAR U+b036
ENCODING 45110
SWIDTH 500 0
DWIDTH 16 0
BBX 16 16 0 0
BITMAP
2318
1FFC
0318
0318
0210
8424
7FFE
2660
0640
3FFC
0200
3F98
18D8
1950
0EFC
0000
ENDCHAR
STARTCHAR U+b037
ENCODING 45111
SWIDTH 500 0
DWIDTH 16 0
BBX 16 16 0 0
BITMAP
2318
1FFC
0318
0318
0230
8424
7FFE
2660
05F0
3F08
03FC
3E70
1888
1B88
0C70
0000
ENDCHAR
STARTCHAR U+b038
ENCODING 45112
SWIDTH 500 0
DWIDTH 16 0
BBX 16 16 0 0
BITMAP
2318
1FFC
0318
0318
0210
8424
7FFE
2660
0660
0450
1FF8
0C30
0C30
0C20
0FF0
0800
ENDCHAR
STARTCHAR U+b039
ENCODING 45113
SWIDTH 500 0
DWIDTH 16 0
BBX 16 16 0 0
BITMAP
2318
1FFC
0318
0318
0210
8424
7FFE
2660
0640
0420
1830
0FF0
0C30
0C30
0FF0
0820
ENDCHAR
STARTCHAR U+b03a
ENCODING 45114
SWIDTH 500 0
DWIDTH 16 0
BBX 16 16 0 0
BITMAP
2318
1FFC
0318
0318
0210
8424
7FFE
2660
0640
3160
1930
1F30
1958
1FCC
1180
0000
ENDCHAR
STARTCHAR U+b03b
ENCODING 45115
SWIDTH 500 0
DWIDTH 16 0
BBX 16 16 0 0
BITMAP
2318
1FFC
0318
0318
0210
8424
7FFE
2660
0660
0440
0300
0180
0380
0660
1830
0000
ENDCHAR
STARTCHAR U+b03c
ENCODING 45116
SWIDTH 500 0
DWIDTH 16 0
BBX 16 16 0 0
BITMAP
2318
1FFC
0318
0318
0210
8424
7FFE
2660
0440
0080
0660
0330
0660
0DD8
3308
0000
ENDCHAR
STARTCHAR U+b03d
ENCODING 45117
SWIDTH 500 0
DWIDTH 16 0
BBX 16 16 0 0
BITMAP
2318
1FFC
0318
0318
0210
8424
7FFE
2660
0660
0440
0180
0660
0C30
0C30
0660
0180
ENDCHAR
STARTCHAR U+b03e
ENCODING 45118
SWIDTH 500 0
DWIDTH 16 0
BBX 16 16 0 0
BITMAP
2318
1FFC
0318
0318
0210
8424
7FFE
2660
0440
2010
1FF8
0180
0380
0660
1830
0000
ENDCHAR
STARTCHAR U+b03f
ENCODING 45119
SWIDTH 500 0
DWIDTH 16 0
BBX 16 16 0 0
BITMAP
2318
1FFC
0318
0318
0210
8424
7FFE
2660
0440
07C0
1010
0FF8
0180
0360
0C30
0000
ENDCHAR
STARTCHAR U+b040
ENCODING 45120
SWIDTH 500 0
DWIDTH 16 0
BBX 16 16 0 0
BITMAP
2318
1FFC
0318
0318
0210
8424
7FFE
2660
0440
0010
1FF8
0030
01F0
0E30
0420
0000
ENDCHAR
STARTCHAR U+b041
ENCODING 45121
SWIDTH 500 0
DWIDTH 16 0
BBX 16 16 0 0
BITMAP
2318
1FFC
0318
0318
0210
8424
7FFE
2660
0450
1FF0
0C00
0FF0
0C00
0C00
07F0
0000
ENDCHAR
STARTCHAR U+b042
ENCODING 45122
SWIDTH 500 0
DWIDTH 16 0
BBX 16 16 0 0
BITMAP
2318
1FFC
0318
0318
0210
8424
7FFE
2660
0448
3FF8
0000
0C60
0660
2250
1FF8
0000
ENDCHAR
STARTCHAR U+b043
ENCODING 45123
SWIDTH 500 0
DWIDTH 16 0
BBX 16 16 0 0
BITMAP
2318
1FFC
0318
0318
0210
8424
7FFE
2660
0540
2190
1FF8
03C0
0420
0420
03C0
0000
ENDCHAR
STARTCHAR U+b044
ENCODING 45124
SWIDTH 500 0
DWIDTH 16 0
BBX 16 14 0 0
BITMAP
2318
1FFC
0318
0318
0210
0410
0430
8824
7FFE
2000
0000
0000
0000
0000
ENDCHAR
STARTCHAR U+b045
ENCODING 45125
SWIDTH 500 0
DWIDTH 16 0
BBX 16 16 0 0
BITMAP
2318
1FFC
0318
0318
0210
8424
7FFE
2000
0030
1FF8
0830
0030
0030
0030
0020
0000
ENDCHAR
STARTCHAR U+b046
ENCODING 45126
SWIDTH 500 0
DWIDTH 16 0
BBX 16 16 0 0
BITMAP
2318
1FFC
0318
0318
0210
8424
7FFE
2000
0010
3FF8
1330
0330
0330
0330
0220
0000
ENDCHAR
STARTCHAR U+b047
ENCODING 45127
SWIDTH 500 0
DWIDTH 16 0
BBX 16 16 0 0
BITMAP
2318
1FFC
0318
0318
0210
8424
7FFE
2000
0340
3FA0
0330
0360
02D0
038C
0304
0000
ENDCHAR
STARTCHAR U+b048
ENCODING 45128
SWIDTH 500 0
DWIDTH 16 0
BBX 16 16 0 0
BITMAP
2318
1FFC
0318
0318
0210
0210
8424
7FFE
2000
0000
1800
0C00
0C10
07F8
0000
0000
ENDCHAR
STARTCHAR U+b049
ENCODING 45129
SWIDTH 500 0
DWIDTH 16 0
BBX 16 16 0 0
BITMAP
2318
1FFC
0318
0318
0210
8424
7FFE
2000
0000
33F8
1840
1860
18E0
0F98
0108
0000
ENDCHAR
STARTCHAR U+b04a
ENCODING 45130
SWIDTH 500 0
DWIDTH 16 0
BBX 16 16 0 0
BITMAP
2318
1FFC
0318
0318
0210
8424
7FFE
2000
00F0
0008
33FC
1870
19D8
0ED8
0070
0000
ENDCHAR
STARTCHAR U+b04b
ENCODING 45131
SWIDTH 500 0
DWIDTH 16 0
BBX 16 16 0 0
BITMAP
2318
1FFC
0318
0318
0210
8424
7FFE
2000
0000
0010
1FF8
0C00
0C00
0C10
07F8
0000
ENDCHAR
STARTCHAR U+b04c
ENCODING 45132
SWIDTH 500 0
DWIDTH 16 0
BBX 16 16 0 0
BITMAP
2318
1FFC
0318
0318
0210
8424
7FFE
2000
0030
1FF8
0020
1FF0
0C00
0C20
07F0
0000
ENDCHAR
STARTCHAR U+b04d
ENCODING 45133
SWIDTH 500 0
DWIDTH 16 0
BBX 16 16 0 0
BITMAP
2318
1FFC
0318
0318
0210
8424
7FFE
2000
2088
1FFC
0118
3F98
1818
1998
0E10
0000
ENDCHAR
STARTCHAR U+b04e
ENCODING 45134
SWIDTH 500 0
DWIDTH 16 0
BBX 16 16 0 0
BITMAP
2318
1FFC
0318
0318
0210
8424
7FFE
2000
0118
3FFC
0198
3F98
1890
1BF8
0C80
0000
ENDCHAR
ENDFONT
